<?xml version="1.0" encoding="UTF-8" standalone="no"?>
<svg width="24px" height="24px" viewBox="0 0 24 24" version="1.1" xmlns="http://www.w3.org/2000/svg" xmlns:xlink="http://www.w3.org/1999/xlink">
    <!-- Generator: Sketch 39.1 (31720) - http://www.bohemiancoding.com/sketch -->
    <title>icon_cog_dark</title>
    <desc>Created with Sketch.</desc>
    <defs></defs>
    <g id="Symbols" stroke="none" stroke-width="1" fill="none" fill-rule="evenodd">
        <g id="icon_cog_dark">
            <g>
                <rect id="Rectangle" fill-opacity="0" fill="#D8D8D8" x="0" y="0" width="24" height="24"></rect>
                <path d="M13.4898281,3.57585937 C13.2974063,2.925375 12.6998906,2.479125 12.0216094,2.47926563 L12.0216094,2.484375 C11.3468906,2.48582813 10.7533125,2.93029687 10.5619219,3.57726562 C10.3774219,4.183125 10.1841563,4.83646875 10.1841563,4.83646875 C9.51389063,5.00910937 8.87123438,5.2753125 8.27521875,5.62715625 C8.27521875,5.62715625 7.67653125,5.30184375 7.12011563,4.99945312 C6.5241375,4.67559375 5.78607656,4.78251562 5.30655,5.26228125 L5.31015,5.26589063 C4.83411094,5.74396875 4.7286375,6.47803125 5.05079063,7.0708125 C5.34872344,7.62965625 5.67405,8.22834375 5.67405,8.22834375 C5.32218281,8.82435938 5.05599844,9.46701563 4.88333906,10.1372813 C4.88333906,10.1372813 4.22998125,10.3305469 3.62271563,10.5101719 C2.97227344,10.7025938 2.52600938,11.3001094 2.52615938,11.9783906 L2.53125469,11.9783906 C2.53272188,12.6531094 2.97717188,13.2466875 3.62415,13.4380781 C4.22998125,13.6225781 4.88333906,13.8158438 4.88333906,13.8158438 C5.05599844,14.4861094 5.32218281,15.1287656 5.67405,15.7247813 C5.67405,15.7247813 5.34872344,16.3234687 5.04634219,16.8798844 C4.72245938,17.4758625 4.82940938,18.2139234 5.30914688,18.69345 L5.31274688,18.68985 C5.79086719,19.1658891 6.5248875,19.2713625 7.11770156,18.9492094 C7.67653125,18.6512766 8.27521875,18.32595 8.27521875,18.32595 C8.87123438,18.6778172 9.51389063,18.9440016 10.1841563,19.1166609 C10.1841563,19.1166609 10.3774219,19.7700187 10.5570469,20.3772844 C10.7494688,21.0277266 11.3469844,21.4739906 12.0252656,21.4738406 L12.0252656,21.4687453 C12.6999844,21.4672781 13.2935625,21.0228281 13.4849531,20.37585 C13.6694531,19.7700187 13.8627188,19.1166609 13.8627188,19.1166609 C14.5329844,18.9440016 15.1756406,18.6778172 15.7716563,18.32595 C15.7716563,18.32595 16.3703438,18.6512766 16.92675,18.9536578 C17.5227188,19.2775406 18.2608125,19.1705906 18.7403438,18.6908531 L18.7367344,18.6872531 C19.21275,18.2091328 19.3182188,17.4751125 18.9960938,16.8822984 C18.6981563,16.3234687 18.3728438,15.7247813 18.3728438,15.7247813 C18.7246875,15.1287656 18.9908906,14.4861094 19.1635313,13.8158438 C19.1635313,13.8158438 19.816875,13.6225781 20.4241406,13.4429531 C21.074625,13.2505312 21.520875,12.6530156 21.5207344,11.9747344 L21.515625,11.9747344 C21.5141719,11.3000156 21.0697031,10.7064375 20.4227344,10.5150469 C19.816875,10.3305469 19.1635313,10.1372813 19.1635313,10.1372813 C18.9908906,9.46701563 18.7246875,8.82435938 18.3728438,8.22834375 C18.3728438,8.22834375 18.6981563,7.62965625 19.0005469,7.07325 C19.3244063,6.47728125 19.2174844,5.7391875 18.7377188,5.25965625 L18.7341094,5.26326563 C18.2560313,4.78725 17.5219688,4.68178125 16.9291875,5.00390625 C16.3703438,5.30184375 15.7716563,5.62715625 15.7716563,5.62715625 C15.1756406,5.2753125 14.5329844,5.00910937 13.8627188,4.83646875 C13.8627188,4.83646875 13.6694531,4.183125 13.4898281,3.57585937 L13.4898281,3.57585937 Z M12.0234375,9.30220313 C13.4994375,9.30220313 14.6977969,10.5005625 14.6977969,11.9765625 C14.6977969,13.4525625 13.4994375,14.6509219 12.0234375,14.6509219 C10.5474375,14.6509219 9.34907813,13.4525625 9.34907813,11.9765625 C9.34907813,10.5005625 10.5474375,9.30220313 12.0234375,9.30220313 L12.0234375,9.30220313 Z" id="Fill-1" fill="#2D3F52"></path>
            </g>
        </g>
    </g>
</svg>