<?xml version="1.0" encoding="UTF-8" standalone="no"?>
<svg width="20px" height="19px" viewBox="0 0 20 19" version="1.1" xmlns="http://www.w3.org/2000/svg" xmlns:xlink="http://www.w3.org/1999/xlink">
    <!-- Generator: Sketch 39.1 (31720) - http://www.bohemiancoding.com/sketch -->
    <title>icon_search</title>
    <desc>Created with Sketch.</desc>
    <defs></defs>
    <g id="Symbols" stroke="none" stroke-width="1" fill="none" fill-rule="evenodd">
        <g id="search_bar_light" transform="translate(-17.000000, -13.000000)">
            <g id="icon_search">
                <g transform="translate(16.000000, 10.000000)">
                    <g id="Group">
                        <rect id="Rectangle" fill-opacity="0" fill="#909090" x="0" y="0" width="24" height="24"></rect>
                        <path d="M13.7099531,17.6980156 C13.6695937,17.7255781 13.629,17.7527187 13.5880781,17.7794844 C13.2003281,18.033125 12.7891406,18.251 12.3613125,18.4289844 C11.8903594,18.6249219 11.3994844,18.7724375 10.8985312,18.8684844 C10.4293594,18.9584844 9.95170312,19.0033437 9.474,19.0033437 C8.99629687,19.0033437 8.51864062,18.9584844 8.04942187,18.8684844 C7.54851562,18.7724375 7.05759375,18.6249219 6.5866875,18.4289844 C6.15885937,18.251 5.74767187,18.033125 5.359875,17.7794844 C4.96865625,17.5235469 4.60134375,17.2312344 4.26396562,16.9076094 C3.937725,16.5947187 3.63952969,16.2525781 3.37419844,15.8865781 C3.11187656,15.52475 2.881725,15.139625 2.687625,14.7370625 C2.5179,14.3850312 2.37576562,14.0197344 2.26308281,13.6455312 C2.15284687,13.2794844 2.070825,12.905 2.01778125,12.5263906 C1.96895156,12.177875 1.94467969,11.8259375 1.94467969,11.474 C1.94467969,11.004125 1.98803906,10.5342969 2.07511406,10.0725312 C2.13980625,9.72945312 2.22855937,9.390875 2.34055781,9.06021875 C2.45580469,8.71995312 2.59564687,8.38803125 2.75852812,8.06778125 C2.95411875,7.6833125 3.18290156,7.31571875 3.44130469,6.97029687 C3.69850781,6.62646875 3.9850125,6.30457812 4.29666094,6.00921875 C4.6085625,5.71357812 4.94564062,5.44451562 5.30315625,5.20601562 C5.6503125,4.97445312 6.0166875,4.77171875 6.39745312,4.6008125 C6.69848437,4.46576562 7.00842187,4.35059375 7.32464062,4.25642187 C7.63078125,4.16529687 7.94278125,4.0938125 8.25801562,4.04253125 C8.51653125,4.00048437 8.77725,3.97203125 9.03871875,3.95707812 C9.17559375,3.94925 9.31260937,3.94535937 9.44967187,3.94470312 L9.49832812,3.94470312 C9.63539062,3.94535937 9.77240625,3.94925 9.90928125,3.95707812 C10.17075,3.97203125 10.4314687,4.00048437 10.6899375,4.04253125 C11.0052187,4.0938125 11.3172187,4.16529687 11.6233125,4.25642187 C11.9395781,4.35059375 12.2495156,4.46576562 12.5505469,4.6008125 C12.9312656,4.77171875 13.2976875,4.97445312 13.6448437,5.20601562 C14.0023594,5.44451562 14.3394375,5.71357812 14.6513437,6.00921875 C14.9629687,6.30457812 15.2494687,6.62646875 15.5066719,6.97029687 C15.7650937,7.31571875 15.9938906,7.6833125 16.1894531,8.06778125 C16.3523437,8.38803125 16.4921719,8.71995312 16.6074375,9.06021875 C16.7194219,9.390875 16.8082031,9.72945312 16.8728906,10.0725312 C16.9599375,10.5342969 17.0032969,11.004125 17.0032969,11.474 C17.0032969,11.8259375 16.9790625,12.177875 16.9302187,12.5263906 C16.8771562,12.905 16.795125,13.2794844 16.6849219,13.6455312 C16.5722344,14.0197344 16.4301094,14.3850312 16.260375,14.7370625 C16.0975312,15.0747969 15.9093281,15.40025 15.6980156,15.71 L20.9170781,20.9290156 L20.9170312,20.9290625 C19.8190781,22.0270016 18.0389531,22.0270016 16.941,20.9290625 L13.7099531,17.6980156 Z M9.45857812,6.75720312 C9.372,6.757625 9.28551562,6.7600625 9.19907812,6.76503125 C9.0253125,6.77492187 8.85210937,6.794375 8.6805,6.82339062 C8.29073437,6.88929687 7.90959375,7.00498437 7.5489375,7.16679687 C7.08998437,7.37276562 6.66501562,7.65298437 6.2938125,7.99240625 C5.90896875,8.34434375 5.58234375,8.75946875 5.33189062,9.21692187 C5.12020312,9.60354687 4.9635,10.0199375 4.86825,10.4503906 C4.79395312,10.7862031 4.75720312,11.1300781 4.75720312,11.474 C4.75720312,11.6954375 4.77234375,11.916875 4.80309375,12.1361562 C4.83553125,12.367625 4.88526562,12.5967031 4.95196875,12.8207187 C5.02021875,13.0498906 5.1061875,13.2738125 5.20870312,13.4898594 C5.32879687,13.7428437 5.471625,13.985 5.63465625,14.2127656 C5.80289062,14.44775 5.99259375,14.6673125 6.20057812,14.8680312 C6.41540625,15.0753125 6.64973437,15.2623906 6.89957812,15.4258437 C7.13817187,15.5819375 7.39092187,15.7164219 7.65384375,15.8267187 C7.95154687,15.9516875 8.2621875,16.0455312 8.57925,16.1063281 C8.86889062,16.1619219 9.1636875,16.1898594 9.45857812,16.1907969 C9.75398437,16.1917344 10.0494375,16.165625 10.3399219,16.1117656 C10.6575469,16.0529375 10.9689844,15.9609687 11.2676719,15.8377344 C11.5401094,15.725375 11.8018125,15.5871875 12.0484219,15.4258437 C12.2903437,15.2675937 12.5176875,15.087125 12.7269375,14.887625 C12.9429844,14.6816562 13.139625,14.4553906 13.3133437,14.2127187 C13.4708437,13.9927344 13.6094531,13.75925 13.7269687,13.5155469 C13.8349687,13.2915781 13.9250625,13.0590312 13.9960312,12.8207187 C14.0599219,12.606125 14.10825,12.3869375 14.1407344,12.1654531 C14.17425,11.9365625 14.1907969,11.7052812 14.1907969,11.474 C14.1907969,11.1397812 14.1560625,10.8056562 14.0859375,10.4788437 C13.992375,10.0429531 13.8358125,9.62107812 13.6229062,9.22939062 C13.3716094,8.76701562 13.0425,8.34753125 12.6541406,7.99240625 C12.2900156,7.65940625 11.8740937,7.38335937 11.4250781,7.17860937 C11.0656875,7.0146875 10.6855781,6.89670312 10.2965156,6.82840625 C10.1253281,6.79835937 9.9525,6.77782812 9.77910937,6.7668125 C9.69290625,6.761375 9.6065625,6.758375 9.52021875,6.75739062 C9.49964062,6.75725 9.47910937,6.75720312 9.45857812,6.75720312 L9.45857812,6.75720312 Z" id="Fill-14" fill="#2D3F52"></path>
                    </g>
                </g>
            </g>
        </g>
    </g>
</svg>