<?xml version="1.0" encoding="UTF-8" standalone="no"?>
<svg width="24px" height="24px" viewBox="0 0 24 24" version="1.1" xmlns="http://www.w3.org/2000/svg" xmlns:xlink="http://www.w3.org/1999/xlink">
    <!-- Generator: Sketch 39.1 (31720) - http://www.bohemiancoding.com/sketch -->
    <title>icon_clock_light</title>
    <desc>Created with Sketch.</desc>
    <defs></defs>
    <g id="Symbols" stroke="none" stroke-width="1" fill="none" fill-rule="evenodd">
        <g id="icon_clock_light">
            <g id="icon_clock">
                <g id="icon_chevronup" opacity="0.719999969" fill="#D8D8D8">
                    <rect id="Rectangle" opacity="0" x="0" y="0" width="24" height="24"></rect>
                </g>
                <path d="M20,12 C20,7.581722 16.418278,4 12,4 C7.581722,4 4,7.581722 4,12 C4,16.418278 7.581722,20 12,20 C16.418278,20 20,16.418278 20,12 Z M2,12 C2,6.4771525 6.4771525,2 12,2 C17.5228475,2 22,6.4771525 22,12 C22,17.5228475 17.5228475,22 12,22 C6.4771525,22 2,17.5228475 2,12 Z" id="Oval" fill="#FFFFFF"></path>
                <path d="M11,12 L11,12.4599349 L11.3492086,12.7592566 L14.8492086,15.7592566 C15.2685345,16.1186788 15.8998345,16.0701172 16.2592566,15.6507914 C16.6186788,15.2314655 16.5701172,14.6001655 16.1507914,14.2407434 L12.6507914,11.2407434 L13,12 L13,7 C13,6.44771525 12.5522847,6 12,6 C11.4477153,6 11,6.44771525 11,7 L11,12 Z" id="Path-3" fill="#FFFFFF"></path>
            </g>
        </g>
    </g>
</svg>