<?xml version="1.0" encoding="UTF-8" standalone="no"?>
<svg width="24px" height="24px" viewBox="0 0 24 24" version="1.1" xmlns="http://www.w3.org/2000/svg" xmlns:xlink="http://www.w3.org/1999/xlink">
    <!-- Generator: Sketch 39.1 (31720) - http://www.bohemiancoding.com/sketch -->
    <title>icon_post_dark</title>
    <desc>Created with Sketch.</desc>
    <defs></defs>
    <g id="Symbols" stroke="none" stroke-width="1" fill="none" fill-rule="evenodd">
        <g id="icon_post_dark">
            <g id="Group">
                <rect id="Rectangle-2" fill-opacity="0" fill="#D8D8D8" x="0" y="0" width="24" height="24"></rect>
                <path d="M10.1826563,13.9827187 L6.75,13.9827187 C6.62567813,13.9827187 6.50645156,13.9333594 6.41854219,13.8454219 C6.3306375,13.7575313 6.28124531,13.6382813 6.28125,13.5139688 L6.28125,11.6407031 C6.28124531,11.5163906 6.3306375,11.3971406 6.41854219,11.30925 C6.50645156,11.2213125 6.62567813,11.1719531 6.75,11.1719531 L8.10949219,11.1719531 C8.33671406,11.1719531 8.53121719,11.0089687 8.57100469,10.7852813 C8.78629219,9.57464063 9.44792813,5.854125 9.69894375,4.442625 C9.723225,4.30607812 9.6858,4.16582812 9.5967375,4.05951563 C9.507675,3.95320312 9.37611563,3.89179687 9.23743594,3.89179687 L7.26508594,3.89179687 C7.22771719,3.89179687 7.19187656,3.8769375 7.16545312,3.85054687 C7.139025,3.82410938 7.12417969,3.78825 7.12417969,3.75089063 C7.12417969,3.042 7.40577188,2.36217188 7.90700156,1.8609375 C8.40823594,1.35970313 9.08805,1.078125 9.79689844,1.078125 L14.1922031,1.078125 C14.9010469,1.078125 15.580875,1.35970313 16.0821094,1.8609375 C16.5833438,2.36217188 16.8649219,3.042 16.8649219,3.75084375 C16.8649219,3.78825 16.8500625,3.82410938 16.8236719,3.85054687 C16.7972344,3.8769375 16.761375,3.89179687 16.7240156,3.89179687 L14.7552188,3.89179687 C14.616,3.89179687 14.4840469,3.95367188 14.3949844,4.06064062 C14.3059219,4.16760937 14.2689844,4.30860938 14.2942031,4.44548437 C14.554875,5.86026563 15.2404219,9.58134375 15.4627969,10.7881406 C15.5037656,11.0105156 15.6976406,11.1719531 15.9237656,11.1719531 L17.2388438,11.1719531 C17.3631563,11.1719531 17.4824063,11.2213125 17.5702969,11.30925 C17.6582344,11.3971406 17.7075938,11.5163906 17.7075938,11.6407031 L17.7075938,13.5139688 C17.7075938,13.6382813 17.6582344,13.7575313 17.5702969,13.8454219 C17.4824063,13.9333594 17.3631563,13.9827187 17.2388438,13.9827187 L13.8530625,13.9827187 L11.994422,22 L10.1826563,13.9827187 Z" id="Page-1" fill="#2D3F52"></path>
            </g>
        </g>
    </g>
</svg>