<?xml version="1.0" encoding="UTF-8" standalone="no"?>
<svg width="25px" height="24px" viewBox="0 0 25 24" version="1.1" xmlns="http://www.w3.org/2000/svg" xmlns:xlink="http://www.w3.org/1999/xlink">
    <!-- Generator: Sketch 39.1 (31720) - http://www.bohemiancoding.com/sketch -->
    <title>icon_message_color</title>
    <desc>Created with Sketch.</desc>
    <defs></defs>
    <g id="Symbols" stroke="none" stroke-width="1" fill="none" fill-rule="evenodd">
        <g id="icon_message_color">
            <g id="Group-3">
                <path d="M15.2420463,18.7448531 C15.0003588,18.7675125 14.7554369,18.7790906 14.5077963,18.7790906 L11.0791713,18.7790906 C6.786626,18.7790906 3.30683225,15.2992969 3.30682756,11.0067656 L3.30682756,11.0067188 C3.30683225,6.7141875 6.786626,3.234375 11.0791713,3.234375 L14.5077963,3.234375 C18.8003276,3.234375 22.2801401,6.7141875 22.2801401,11.0067188 C22.2801401,11.0067188 22.2801401,11.0067188 22.2801401,11.0067656 C22.2801401,13.9311562 20.6650619,16.478325 18.2781869,17.8049437 L20.4208901,19.947675 L20.4208901,19.9476984 C19.8936401,20.4749484 19.1785151,20.7711609 18.4328744,20.7711563 C17.6872338,20.7711516 16.9721088,20.4749484 16.4448588,19.9476937 L15.2420463,18.7448531 Z" id="Page-1" fill="#60ABB0"></path>
                <rect id="Rectangle" fill-opacity="0" fill="#D8D8D8" x="0.775577558" y="0" width="24" height="24"></rect>
            </g>
        </g>
    </g>
</svg>