<?xml version="1.0" encoding="UTF-8" standalone="no"?>
<svg width="24px" height="24px" viewBox="0 0 24 24" version="1.1" xmlns="http://www.w3.org/2000/svg" xmlns:xlink="http://www.w3.org/1999/xlink">
    <!-- Generator: Sketch 39.1 (31720) - http://www.bohemiancoding.com/sketch -->
    <title>icon_refresh_dark</title>
    <desc>Created with Sketch.</desc>
    <defs></defs>
    <g id="Symbols" stroke="none" stroke-width="1" fill="none" fill-rule="evenodd">
        <g id="icon_refresh_dark">
            <g id="icon_refresh">
                <rect id="Rectangle" fill-opacity="0" fill="#FFFFFF" x="0" y="0" width="24" height="24"></rect>
                <path d="M0.57143125,11.5118571 L4.8273598,17.1510881 L9.08328835,11.5118571 L6.55106951,11.5118571 C6.76981497,8.65956384 9.15568214,6.40474284 12.0624942,6.40474284 C15.1132001,6.40474284 17.5952572,8.88679992 17.5952572,11.9375058 C17.5952572,14.9882117 15.1132001,17.4702688 12.0624942,17.4702688 C10.9180466,17.4702688 9.85526541,17.1186896 8.97279843,16.5198768 C8.43051527,16.1336648 7.6793179,16.2491821 7.27824733,16.7806285 C6.87728847,17.2605726 6.73786338,17.8955823 6.87036191,18.5029976 C7.00274871,19.1104128 7.39365287,19.6297936 7.94085167,19.9249548 C9.19478373,20.512484 10.5861299,20.8750116 12.0624942,20.8750116 C16.9908583,20.8750116 21,16.86587 21,11.9375058 C21,7.00914167 16.9908583,3 12.0624942,3 C7.27791217,3 3.37099323,6.78179386 3.14632667,11.5118571 L0.57143125,11.5118571 Z" id="Page-1" fill="#2D3F52"></path>
            </g>
        </g>
    </g>
</svg>