<?xml version="1.0" encoding="UTF-8" standalone="no"?>
<svg width="26px" height="24px" viewBox="0 0 26 24" version="1.1" xmlns="http://www.w3.org/2000/svg" xmlns:xlink="http://www.w3.org/1999/xlink">
    <!-- Generator: Sketch 39.1 (31720) - http://www.bohemiancoding.com/sketch -->
    <title>icon_message_dark</title>
    <desc>Created with Sketch.</desc>
    <defs></defs>
    <g id="Symbols" stroke="none" stroke-width="1" fill="none" fill-rule="evenodd">
        <g id="tab_bar_chat" transform="translate(-314.000000, -14.000000)">
            <g id="Group" transform="translate(32.000000, 10.000000)">
                <g id="icon_message_dark" transform="translate(279.000000, 0.000000)">
                    <rect id="Rectangle" fill-opacity="0" fill="#D8D8D8" x="0" y="0" width="32" height="32"></rect>
                    <path d="M19.288625,24.9931375 C18.966375,25.02335 18.6398125,25.0387875 18.309625,25.0387875 L13.738125,25.0387875 C8.01473125,25.0387875 3.37500625,20.3990625 3.375,14.6756875 L3.375,14.675625 C3.37500625,8.95225 8.01473125,4.3125 13.738125,4.3125 L18.309625,4.3125 C24.033,4.3125 28.67275,8.95225 28.67275,14.675625 C28.67275,14.675625 28.67275,14.675625 28.67275,14.6756875 C28.67275,18.574875 26.5193125,21.9711 23.3368125,23.739925 L26.19375,26.5969 L26.19375,26.5969313 C25.49075,27.2999313 24.53725,27.6948813 23.5430625,27.694875 C22.548875,27.6948688 21.595375,27.2999313 20.892375,26.596925 L19.288625,24.9931375 Z" id="Page-1" fill="#2D3F52"></path>
                </g>
            </g>
        </g>
    </g>
</svg>