<?xml version="1.0" encoding="UTF-8" standalone="no"?>
<svg width="24px" height="24px" viewBox="0 0 24 24" version="1.1" xmlns="http://www.w3.org/2000/svg" xmlns:xlink="http://www.w3.org/1999/xlink">
    <!-- Generator: Sketch 39.1 (31720) - http://www.bohemiancoding.com/sketch -->
    <title>icon_mailNew_accent</title>
    <desc>Created with Sketch.</desc>
    <defs></defs>
    <g id="Symbols" stroke="none" stroke-width="1" fill="none" fill-rule="evenodd">
        <g id="icon_mailNew_accent">
            <g id="icon_mailNew_black">
                <rect id="Rectangle-2" fill-opacity="0" fill="#D8D8D8" x="0" y="0" width="24" height="24"></rect>
                <path d="M23.0030625,6.046875 C23.0030625,5.30095312 22.7067656,4.58559375 22.1793281,4.05815625 C21.6518906,3.53067187 20.9364844,3.234375 20.1905625,3.234375 L3.84375,3.234375 C3.09782813,3.234375 2.38245937,3.53067187 1.8550125,4.05815625 C1.32756563,4.58559375 1.03124531,5.30095312 1.03125,6.046875 L1.03125,17.90625 C1.03124531,18.6521719 1.32756563,19.3675406 1.8550125,19.8949875 C2.38245937,20.4224344 3.09782813,20.7187547 3.84375,20.71875 L20.1905625,20.71875 C20.9364844,20.7187547 21.6518906,20.4224344 22.1793281,19.8949875 C22.7067656,19.3675406 23.0030625,18.6521719 23.0030625,17.90625 L23.0030625,6.046875 L23.0030625,6.046875 Z M3.51602344,8.0355 L3.51602344,16.0134375 C3.51602344,16.5212344 3.74531719,17.0082516 4.15346719,17.3673281 C4.56161719,17.7264094 5.1151875,17.9281359 5.69239688,17.9281359 L18.3419531,17.9281359 C18.919125,17.9281359 19.4727188,17.7264094 19.8808594,17.3673281 C20.289,17.0082516 20.5183125,16.5212344 20.5183125,16.0134375 L20.5183125,8.24596875 L13.0950469,15.6309844 C12.9289219,15.7696875 12.893625,15.8175938 12.6950156,15.9097031 C12.621,15.9440625 12.54375,15.972 12.4649063,15.993 C12.3066563,16.0351078 12.1422188,16.04925 11.9790938,16.0347891 C11.8159688,16.0203281 11.6566406,15.9774844 11.5082344,15.9082031 C11.3098594,15.8155781 11.2746563,15.7675313 11.1089063,15.6284063 L3.51602344,8.0355 Z M18.7318594,6.05596875 C18.6040781,6.03548438 18.473625,6.02498438 18.3419531,6.02498438 L5.69239688,6.02498438 C5.62493438,6.02498438 5.55779531,6.02775 5.4911625,6.0331875 L12.1058438,12.6478594 L18.7318594,6.05596875 Z" id="Page-1" fill="#FAB024"></path>
            </g>
        </g>
    </g>
</svg>