<?xml version="1.0" encoding="UTF-8" standalone="no"?>
<svg width="24px" height="24px" viewBox="0 0 24 24" version="1.1" xmlns="http://www.w3.org/2000/svg" xmlns:xlink="http://www.w3.org/1999/xlink">
    <!-- Generator: Sketch 39.1 (31720) - http://www.bohemiancoding.com/sketch -->
    <title>icon_mailRead_black</title>
    <desc>Created with Sketch.</desc>
    <defs></defs>
    <g id="Symbols" stroke="none" stroke-width="1" fill="none" fill-rule="evenodd">
        <g id="icon_mailRead_black">
            <g id="Group">
                <rect id="Rectangle-2" fill-opacity="0" fill="#D8D8D8" x="0" y="0" width="24" height="24"></rect>
                <path d="M2.51870156,6.601875 L2.51869688,6.601875 C2.51869688,6.601875 8.04614062,3.54370312 10.6810313,2.0859375 C11.5305469,1.61592187 12.5624063,1.61728125 13.4107031,2.08954687 L21.515625,6.601875 C21.7577344,6.73115625 21.9817031,6.89634375 22.1793281,7.09396875 C22.7067656,7.62140625 23.0030625,8.33676562 23.0030625,9.0826875 L23.0030625,19.4496563 C23.0030625,20.1955781 22.7067656,20.9109469 22.1793281,21.4383937 C21.6518906,21.9658406 20.9364844,22.2621609 20.1905625,22.2621563 L3.84375,22.2621563 C3.09782813,22.2621609 2.38245937,21.9658406 1.8550125,21.4383937 C1.32756563,20.9109469 1.03124531,20.1955781 1.03125,19.4496563 L1.03125,9.0826875 C1.03124531,8.33676562 1.32756563,7.62140625 1.8550125,7.09396875 C2.05262344,6.89634375 2.27661094,6.73115625 2.51870156,6.601875 L2.51870156,6.601875 Z M12.0136406,17.5808156 C12.0021094,17.5800937 11.990625,17.5792172 11.9790938,17.5781953 C11.8159688,17.5637344 11.6566406,17.5208906 11.5082344,17.4516094 C11.3098594,17.3589844 11.2746563,17.3109375 11.1089063,17.1718125 L3.51602344,11.0713594 L3.51602344,17.5568437 C3.51602344,18.0646406 3.74531719,18.5516578 4.15346719,18.9107344 C4.56161719,19.2698156 5.1151875,19.4715422 5.69239688,19.4715422 L18.3419531,19.4715422 C18.919125,19.4715422 19.4727188,19.2698156 19.8808594,18.9107344 C20.289,18.5516578 20.5183125,18.0646406 20.5183125,17.5568437 L20.5183125,11.2817812 L13.0950469,17.1743906 C12.9289219,17.3130938 12.893625,17.361 12.6950156,17.4531094 C12.621,17.4874687 12.54375,17.5154062 12.4649063,17.5364062 C12.3383906,17.5700625 12.2079844,17.5858547 12.0774375,17.5834312 L12.046875,17.6134547 L12.0136406,17.5808156 Z" id="Page-1" fill="#2C2C2D"></path>
            </g>
        </g>
    </g>
</svg>