<?xml version="1.0" encoding="UTF-8" standalone="no"?>
<svg width="24px" height="24px" viewBox="0 0 24 24" version="1.1" xmlns="http://www.w3.org/2000/svg" xmlns:xlink="http://www.w3.org/1999/xlink">
    <!-- Generator: Sketch 39.1 (31720) - http://www.bohemiancoding.com/sketch -->
    <title>icon_cog_light</title>
    <desc>Created with Sketch.</desc>
    <defs>
        <polygon id="path-1" points="0 18.984375 18.984375 18.984375 18.984375 0 0 0"></polygon>
    </defs>
    <g id="Symbols" stroke="none" stroke-width="1" fill="none" fill-rule="evenodd">
        <g id="icon_cog_light">
            <g>
                <g id="Page-1" transform="translate(2.531250, 2.484375)">
                    <mask id="mask-2" fill="white">
                        <use xlink:href="#path-1"></use>
                    </mask>
                    <g id="Clip-2"></g>
                    <path d="M10.9585781,1.09148438 C10.7661563,0.441 10.1686406,-0.00525 9.49035938,-0.005109375 L9.49035938,8.8817842e-15 C8.81564063,0.001453125 8.2220625,0.445921875 8.03067188,1.09289063 C7.84617188,1.69875 7.65290625,2.35209375 7.65290625,2.35209375 C6.98264063,2.52473438 6.33998438,2.7909375 5.74396875,3.14278125 C5.74396875,3.14278125 5.14528125,2.81746875 4.58886563,2.51507813 C3.9928875,2.19121875 3.25482656,2.29814063 2.7753,2.77790625 L2.7789,2.78151563 C2.30286094,3.25959375 2.1973875,3.99365625 2.51954063,4.5864375 C2.81747344,5.14528125 3.1428,5.74396875 3.1428,5.74396875 C2.79093281,6.33998438 2.52474844,6.98264063 2.35208906,7.65290625 C2.35208906,7.65290625 1.69873125,7.84617188 1.09146563,8.02579688 C0.441023438,8.21821875 -0.005240625,8.81573438 -0.005090625,9.49401563 L4.68750005e-06,9.49401563 C0.001471875,10.1687344 0.445921875,10.7623125 1.0929,10.9537031 C1.69873125,11.1382031 2.35208906,11.3314688 2.35208906,11.3314688 C2.52474844,12.0017344 2.79093281,12.6443906 3.1428,13.2404063 C3.1428,13.2404063 2.81747344,13.8390938 2.51509219,14.3955094 C2.19120938,14.9914875 2.29815938,15.7295484 2.77789688,16.209075 L2.78149688,16.205475 C3.25961719,16.6815141 3.9936375,16.7869875 4.58645156,16.4648344 C5.14528125,16.1669016 5.74396875,15.841575 5.74396875,15.841575 C6.33998438,16.1934422 6.98264063,16.4596266 7.65290625,16.6322859 C7.65290625,16.6322859 7.84617188,17.2856438 8.02579688,17.8929094 C8.21821875,18.5433516 8.81573438,18.9896156 9.49401563,18.9894656 L9.49401563,18.9843703 C10.1687344,18.9829031 10.7623125,18.5384531 10.9537031,17.891475 C11.1382031,17.2856438 11.3314688,16.6322859 11.3314688,16.6322859 C12.0017344,16.4596266 12.6443906,16.1934422 13.2404063,15.841575 C13.2404063,15.841575 13.8390938,16.1669016 14.3955,16.4692828 C14.9914688,16.7931656 15.7295625,16.6862156 16.2090938,16.2064781 L16.2054844,16.2028781 C16.6815,15.7247578 16.7869688,14.9907375 16.4648438,14.3979234 C16.1669063,13.8390938 15.8415938,13.2404063 15.8415938,13.2404063 C16.1934375,12.6443906 16.4596406,12.0017344 16.6322813,11.3314688 C16.6322813,11.3314688 17.285625,11.1382031 17.8928906,10.9585781 C18.543375,10.7661563 18.989625,10.1686406 18.9894844,9.49035938 L18.984375,9.49035938 C18.9829219,8.81564063 18.5384531,8.2220625 17.8914844,8.03067188 C17.285625,7.84617188 16.6322813,7.65290625 16.6322813,7.65290625 C16.4596406,6.98264063 16.1934375,6.33998438 15.8415938,5.74396875 C15.8415938,5.74396875 16.1669063,5.14528125 16.4692969,4.588875 C16.7931563,3.99290625 16.6862344,3.2548125 16.2064688,2.77528125 L16.2028594,2.77889063 C15.7247813,2.302875 14.9907188,2.19740625 14.3979375,2.51953125 C13.8390938,2.81746875 13.2404063,3.14278125 13.2404063,3.14278125 C12.6443906,2.7909375 12.0017344,2.52473438 11.3314688,2.35209375 C11.3314688,2.35209375 11.1382031,1.69875 10.9585781,1.09148438 L10.9585781,1.09148438 Z M9.4921875,6.81782813 C10.9681875,6.81782813 12.1665469,8.0161875 12.1665469,9.4921875 C12.1665469,10.9681875 10.9681875,12.1665469 9.4921875,12.1665469 C8.0161875,12.1665469 6.81782813,10.9681875 6.81782813,9.4921875 C6.81782813,8.0161875 8.0161875,6.81782813 9.4921875,6.81782813 L9.4921875,6.81782813 Z" id="Fill-1" fill="#FFFFFF" mask="url(#mask-2)"></path>
                </g>
                <rect id="Rectangle" fill-opacity="0" fill="#D8D8D8" x="0" y="0" width="24" height="24"></rect>
            </g>
        </g>
    </g>
</svg>