<?xml version="1.0" encoding="UTF-8" standalone="no"?>
<svg width="24px" height="24px" viewBox="0 0 24 24" version="1.1" xmlns="http://www.w3.org/2000/svg" xmlns:xlink="http://www.w3.org/1999/xlink">
    <!-- Generator: Sketch 39.1 (31720) - http://www.bohemiancoding.com/sketch -->
    <title>icon_tick_accent</title>
    <desc>Created with Sketch.</desc>
    <defs></defs>
    <g id="Symbols" stroke="none" stroke-width="1" fill="none" fill-rule="evenodd">
        <g id="icon_tick_accent">
            <g>
                <rect id="Rectangle-2" fill-opacity="0" fill="#D8D8D8" x="0" y="0" width="24" height="24"></rect>
                <path d="M22.7050781,9.37898437 C22.7497969,9.56259375 22.7897344,9.74742188 22.8247969,9.93309375 C22.9521563,10.6074375 23.015625,11.2935469 23.015625,11.97975 C23.015625,12.4821562 22.9816875,12.9845625 22.9134375,13.4823281 C22.8390469,14.0245313 22.7239688,14.5611563 22.5691406,15.0860625 C22.4075625,15.6338906 22.2028125,16.1689687 21.9575156,16.6847813 C21.6770156,17.2746562 21.3435938,17.8392656 20.9629219,18.3700125 C20.5778437,18.9069281 20.1445312,19.4091516 19.6700156,19.8689109 C19.1712656,20.3521172 18.6270938,20.7883313 18.0467812,21.1697391 C17.4805781,21.5418844 16.8801094,21.8617453 16.2551719,22.1235281 C15.5672344,22.4116828 14.8499531,22.629225 14.1179063,22.7717672 C13.4205937,22.9075406 12.7103437,22.9751719 12,22.9751719 C11.2896563,22.9751719 10.5794063,22.9075406 9.88209375,22.7717672 C9.15004687,22.629225 8.43276563,22.4116828 7.74482813,22.1235281 C7.11989062,21.8617453 6.51942187,21.5418844 5.95321875,21.1697391 C5.37290625,20.7883313 4.82872969,20.3521172 4.33000313,19.8689109 C3.85547812,19.4091516 3.42215156,18.9069281 3.03707813,18.3700125 C2.65641563,17.8392656 2.32298906,17.2746562 2.04248437,16.6847813 C1.79719688,16.1689687 1.59242344,15.6338906 1.43085469,15.0860625 C1.27604063,14.5611563 1.16093906,14.0245313 1.08657187,13.4823281 C1.01830781,12.9845625 0.984375,12.4821562 0.984375,11.97975 C0.984375,11.2935469 1.04782031,10.6074375 1.17520312,9.93309375 C1.26777656,9.44310937 1.39400156,8.95945312 1.55277656,8.48671875 C1.71636562,7.99964062 1.91448281,7.5241875 2.14498594,7.065 C2.432775,6.49167187 2.77102031,5.94375 3.15419531,5.42925 C3.53562656,4.91709375 3.96151406,4.438125 4.42539844,3.99928125 C4.88180625,3.56746875 5.37495469,3.1745625 5.89790625,2.82632813 C6.40589063,2.48807813 6.94195312,2.19201562 7.49892188,1.94254687 C7.93935937,1.74525 8.39282812,1.57710937 8.8554375,1.439625 C9.303375,1.3065 9.75979687,1.20210937 10.221,1.12725 C10.5992344,1.06584375 10.9806563,1.02426562 11.3632031,1.00242187 C11.4924375,0.9950625 11.6218594,0.989953125 11.7512812,0.98709375 C11.8222969,0.9855 11.8933594,0.98475 11.964375,0.984375 L12.035625,0.984375 C12.1066406,0.98475 12.1777031,0.9855 12.2487188,0.98709375 C12.3781406,0.989953125 12.5075625,0.9950625 12.6367969,1.00242187 C13.0193437,1.02426562 13.4007656,1.06584375 13.779,1.12725 C14.2402031,1.20210937 14.696625,1.3065 15.1445625,1.439625 C15.6071719,1.57710937 16.0606406,1.74525 16.5010781,1.94254687 C17.0580469,2.19201562 17.5941094,2.48807813 18.1020938,2.82632813 C18.6250312,3.1745625 19.1182031,3.56746875 19.5745781,3.99928125 C19.7263594,4.1428125 19.8740156,4.29070312 20.0174063,4.44257812 L18.0275625,6.43242187 C17.8977656,6.29217188 17.7630469,6.156375 17.6238281,6.02545313 C17.2823437,5.70435937 16.9135781,5.41228125 16.5226406,5.15367187 C16.1574844,4.91207812 15.7730625,4.69973437 15.3740156,4.5195 C15.0549375,4.37540625 14.7265313,4.25189062 14.3915156,4.15003125 C14.0595,4.04915625 13.7210625,3.9695625 13.3789219,3.91176562 C13.080375,3.861375 12.7790156,3.827625 12.4767188,3.810375 C12.3268594,3.80184375 12.1768594,3.79757812 12.0267187,3.796875 L11.9732813,3.796875 C11.8231406,3.79757812 11.6731406,3.80184375 11.5232813,3.810375 C11.2295156,3.82710937 10.9366875,3.8595 10.6463906,3.90754687 C10.3039219,3.96426562 9.9650625,4.04282813 9.63257813,4.14276563 C9.28921875,4.24598438 8.95275,4.3719375 8.62598438,4.5195 C8.2194375,4.70310937 7.82803125,4.92009375 7.45673437,5.1673125 C7.08028125,5.418 6.72454688,5.69971875 6.39417188,6.00857812 C6.040125,6.33951562 5.71523437,6.701625 5.42460938,7.08942187 C5.14322344,7.46489062 4.89399375,7.86445312 4.68094688,8.28253125 C4.51161094,8.61482813 4.36515469,8.95875 4.24313438,9.31115625 C4.12224375,9.66032812 4.02536719,10.0177969 3.95335781,10.3802344 C3.848775,10.9065937 3.79687969,11.443125 3.79687969,11.97975 C3.79687969,12.3629531 3.82325625,12.7461563 3.876525,13.1256563 C3.9329625,13.5277031 4.01957344,13.9254844 4.13563125,14.3145937 C4.25440781,14.71275 4.40399531,15.1017187 4.58243438,15.4769531 C4.79115469,15.9158438 5.03931563,16.3359375 5.3225625,16.7308594 C5.60981719,17.1314063 5.93310937,17.5060312 6.28710938,17.8490156 C6.6650625,18.2152031 7.07798437,18.5452594 7.51865625,18.8329922 C7.93396875,19.1042016 8.37389062,19.3377562 8.8314375,19.5294047 C9.34265625,19.743525 9.875625,19.9051875 10.4196562,20.0111109 C10.9399688,20.1124219 11.4699375,20.1626672 12,20.1626672 C12.5300625,20.1626672 13.0600313,20.1124219 13.5803437,20.0111109 C14.124375,19.9051875 14.6573438,19.743525 15.1685625,19.5294047 C15.6261094,19.3377562 16.0660313,19.1042063 16.4813438,18.8329969 C16.9220156,18.54525 17.3349844,18.2152031 17.7129375,17.8489688 C18.0669375,17.5060312 18.3901875,17.1314063 18.6774375,16.7308594 C18.9607031,16.3359375 19.2088594,15.9158438 19.4175938,15.4769063 C19.596,15.1016719 19.7455781,14.71275 19.8643594,14.3145937 C19.9804219,13.9255313 20.0670469,13.52775 20.1234844,13.1256563 C20.1767344,12.7461563 20.203125,12.3629531 20.203125,11.97975 C20.203125,11.9470313 20.2029375,11.9142656 20.2025156,11.8815469 L22.7050781,9.37898437 Z M11.7095625,14.5738594 L22.14,4.14346875 C22.14,4.14346875 22.14,4.14346875 22.1400469,4.14351562 C23.2382812,5.24175 23.2382812,7.02234375 22.1400469,8.12057812 L12.7033125,17.5573594 C12.1542188,18.1064531 11.2626094,18.1064531 10.7135156,17.5573594 L6.98620313,13.8300469 C6.43710937,13.2809531 6.43710937,12.3893438 6.98620313,11.84025 C7.53529688,11.2911563 8.42685937,11.2911563 8.97595313,11.84025 L11.7095625,14.5738594 Z" id="Page-1" fill="#FAB024"></path>
            </g>
        </g>
    </g>
</svg>