<?xml version="1.0" encoding="UTF-8" standalone="no"?>
<svg width="24px" height="24px" viewBox="0 0 24 24" version="1.1" xmlns="http://www.w3.org/2000/svg" xmlns:xlink="http://www.w3.org/1999/xlink">
    <!-- Generator: Sketch 39.1 (31720) - http://www.bohemiancoding.com/sketch -->
    <title>icon_cross_light</title>
    <desc>Created with Sketch.</desc>
    <defs></defs>
    <g id="Symbols" stroke="none" stroke-width="1" fill="none" fill-rule="evenodd">
        <g id="icon_cross_light">
            <g id="icon_cross">
                <g>
                    <rect id="Rectangle" fill="#D8D8D8" opacity="0" x="0" y="0" width="24" height="24"></rect>
                    <path d="M17.3033054,18.7175189 C17.6938297,19.1080432 18.3269946,19.1080432 18.7175189,18.7175189 C19.1080432,18.3269946 19.1080432,17.6938297 18.7175189,17.3033054 L6.70710678,5.29289322 C6.31658249,4.90236893 5.68341751,4.90236893 5.29289322,5.29289322 C4.90236893,5.68341751 4.90236893,6.31658249 5.29289322,6.70710678 L17.3033054,18.7175189 Z" id="Path-2" fill="#FFFFFF"></path>
                    <path d="M5.29289322,17.3033054 C4.90236893,17.6938297 4.90236893,18.3269946 5.29289322,18.7175189 C5.68341751,19.1080432 6.31658249,19.1080432 6.70710678,18.7175189 L18.7175189,6.70710678 C19.1080432,6.31658249 19.1080432,5.68341751 18.7175189,5.29289322 C18.3269946,4.90236893 17.6938297,4.90236893 17.3033054,5.29289322 L5.29289322,17.3033054 Z" id="Path-2" fill="#FFFFFF"></path>
                </g>
            </g>
        </g>
    </g>
</svg>