<?xml version="1.0" encoding="UTF-8" standalone="no"?>
<svg width="24px" height="24px" viewBox="0 0 24 24" version="1.1" xmlns="http://www.w3.org/2000/svg" xmlns:xlink="http://www.w3.org/1999/xlink">
    <!-- Generator: Sketch 39.1 (31720) - http://www.bohemiancoding.com/sketch -->
    <title>icon_reverse_light</title>
    <desc>Created with Sketch.</desc>
    <defs></defs>
    <g id="Symbols" stroke="none" stroke-width="1" fill="none" fill-rule="evenodd">
        <g id="icon_reverse_light">
            <g id="icon_reverse_dark">
                <rect id="Rectangle" fill-opacity="0" fill="#D8D8D8" x="0" y="0" width="24" height="24"></rect>
                <g id="Page-1" transform="translate(2.906250, 2.484375)" fill="#FFFFFF">
                    <path d="M12.13875,6.77765625 L12.1387969,18.984375 L12.1387969,18.984375 C14.0374219,18.9843703 15.5765156,17.4452578 15.5765156,15.5466609 L15.5765156,6.77765625 L17.7032344,6.77765625 C17.8780313,6.77765625 18.0383438,6.68039062 18.1190156,6.52532812 C18.1997344,6.37026562 18.1875,6.1831875 18.0872344,6.04003125 C17.1276563,4.6696875 15.0905625,1.76067187 14.2416094,0.54834375 C14.1539063,0.423046875 14.0105625,0.34846875 13.8576563,0.34846875 C13.7047031,0.34846875 13.5614063,0.423046875 13.4737031,0.54834375 C12.6247031,1.76067187 10.5876563,4.6696875 9.62807813,6.04003125 C9.5278125,6.1831875 9.51553125,6.37026562 9.59625,6.52532812 C9.67696875,6.68039062 9.83723438,6.77765625 10.0120781,6.77765625 L12.13875,6.77765625 L12.13875,6.77765625 Z" id="Fill-1"></path>
                    <path d="M6.043125,12.2067187 L6.04307813,0 L6.04307813,0 C4.1444625,0 2.60534531,1.53909375 2.60534063,3.43771875 C2.60534063,7.0479375 2.60533125,12.2067187 2.60533125,12.2067187 L0.478621875,12.2067187 C0.303825,12.2067187 0.143545313,12.3039844 0.06283125,12.4590469 C-0.017878125,12.6141094 -0.0056109375,12.8011875 0.0946546875,12.9443437 C1.05421875,14.3146641 3.09128438,17.2236891 3.94025156,18.43605 C4.02797344,18.5613234 4.17128906,18.635925 4.32421875,18.635925 C4.47717188,18.635925 4.62046875,18.5613234 4.70817188,18.43605 C5.55717188,17.2236891 7.59421875,14.3146641 8.55379688,12.9443437 C8.6540625,12.8011875 8.66629688,12.6141094 8.585625,12.4590469 C8.50490625,12.3039844 8.34459375,12.2067187 8.16979688,12.2067187 L6.043125,12.2067187 L6.043125,12.2067187 Z" id="Fill-2"></path>
                </g>
            </g>
        </g>
    </g>
</svg>