<?xml version="1.0" encoding="UTF-8" standalone="no"?>
<svg width="24px" height="24px" viewBox="0 0 24 24" version="1.1" xmlns="http://www.w3.org/2000/svg" xmlns:xlink="http://www.w3.org/1999/xlink">
    <!-- Generator: Sketch 39.1 (31720) - http://www.bohemiancoding.com/sketch -->
    <title>icon_money</title>
    <desc>Created with Sketch.</desc>
    <defs></defs>
    <g id="Symbols" stroke="none" stroke-width="1" fill="none" fill-rule="evenodd">
        <g id="icon_money">
            <g transform="translate(12.000000, 12.000000) scale(-1, -1) translate(-12.000000, -12.000000) ">
                <g id="icon_chevronup" opacity="0.719999969" fill="#D8D8D8">
                    <rect id="Rectangle" opacity="0" x="0" y="0" width="24" height="24"></rect>
                </g>
                <path d="M10.664706,3.95708825 L10.664706,3.23563952 C10.664706,2.553237 11.217943,2 11.9003455,2 C12.582748,2 13.135985,2.553237 13.135985,3.23563952 L13.135985,4.02875534 C13.8902194,4.19531955 14.6190819,4.48165841 15.2751241,4.88233512 C15.4693667,5.00095652 15.8188055,5.29405021 16.1603363,5.59571101 C16.412901,5.79687312 16.5661203,6.0972159 16.580948,6.41963544 C16.5957757,6.74205498 16.4705642,7.05508366 16.2374402,7.27832253 C16.2397467,7.28095856 16.239582,7.28095856 16.239582,7.28095856 C15.8305029,7.67240916 15.1932424,7.69530968 14.7573088,7.33433819 C14.4605906,7.05821394 14.1492094,6.78456098 13.9989556,6.69081713 C13.7261264,6.52079313 13.4364925,6.38602604 13.135985,6.28750439 L13.135985,11.0980962 C14.0866037,11.363841 15.0303028,11.7307436 15.7619661,12.4141346 C16.2708848,12.8891145 16.6397644,13.4937541 16.8303824,14.1631412 C16.9663028,14.640098 17.0130923,15.1386374 16.9969466,15.6333875 C16.9766821,16.2543375 16.8455396,16.872322 16.5768292,17.4342909 C16.2695668,18.0766587 15.7901387,18.6251179 15.2161429,19.043423 C14.5984879,19.4933606 13.8821465,19.7711323 13.135985,19.9052404 L13.135985,20.6253711 C13.135985,20.9530627 13.0056662,21.2674094 12.774025,21.4990507 C12.542219,21.7308566 12.2280371,21.8610107 11.9003455,21.8610107 C11.217943,21.8610107 10.664706,21.3077737 10.664706,20.6253711 L10.664706,19.8655352 C10.5070383,19.8334086 10.3506888,19.7955156 10.1959867,19.7516916 C9.48771812,19.551518 8.81882526,19.2259682 8.21995197,18.7986017 C8.09836504,18.7117774 7.86392304,18.5025424 7.61498286,18.2715602 C7.36851397,18.0634785 7.2227085,17.7600055 7.21430615,17.4375859 C7.20606856,17.1151664 7.33589308,16.8044442 7.57115885,16.5838414 L7.56984083,16.5825234 C7.97974365,16.1989809 8.6095903,16.1760803 9.04601818,16.528979 C9.31143355,16.7731414 9.57668417,17.0049473 9.68772697,17.0738136 C9.99465983,17.2639374 10.3231752,17.4127084 10.664706,17.5249044 L10.664706,12.8200834 C9.59431262,12.4999704 8.55472791,11.9805075 7.85436743,11.0832685 C7.71235126,10.9013824 7.58648078,10.7068103 7.47922727,10.5025179 C7.19552443,9.96246107 7.04938947,9.36342303 7.01050801,8.75680641 C6.96454222,8.03964123 7.06767693,7.31967527 7.35352154,6.65753724 C7.71284551,5.82488095 8.33643159,5.0970069 9.09346674,4.59945605 C9.55971472,4.2931822 10.0819784,4.07900468 10.6278015,3.96466684 C10.6399932,3.96203081 10.6523496,3.95955953 10.664706,3.95708825 L10.664706,3.95708825 Z M13.135985,13.4375737 L13.135985,17.6010198 C13.3020549,17.5507705 13.4638413,17.4870115 13.6183787,17.4067773 C13.9744076,17.2222551 14.285624,16.95338 14.4848091,16.6021289 C14.6788869,16.2601038 14.7536843,15.8656877 14.7581326,15.4757199 C14.7625809,15.0880586 14.6947031,14.6908416 14.4867861,14.3573837 C14.3429577,14.126731 14.1393243,13.9446801 13.9104838,13.8010164 C13.6724173,13.6515864 13.4124387,13.5380723 13.1488356,13.4423515 L13.135985,13.4375737 Z M10.664706,6.29195269 C10.6475718,6.29920177 10.6304375,6.30661561 10.6134681,6.3145237 C10.3129606,6.45225632 10.0538058,6.65951426 9.8350152,6.90598316 C9.61540087,7.15311106 9.43796304,7.43533113 9.33581684,7.75099584 C9.21999622,8.10867229 9.19841372,8.50028764 9.26414974,8.86999099 C9.3033607,9.09042908 9.37832283,9.30411234 9.49266068,9.49703686 C9.66911,9.79457885 9.93155984,10.0298446 10.2231708,10.211566 C10.3643632,10.2997083 10.5123104,10.3766474 10.664706,10.4445252 L10.664706,6.29195269 Z" id="Page-1" fill="#2D3F52" transform="translate(12.000000, 11.930505) scale(-1, -1) translate(-12.000000, -11.930505) "></path>
            </g>
        </g>
    </g>
</svg>