<?xml version="1.0" encoding="UTF-8" standalone="no"?>
<svg width="24px" height="24px" viewBox="0 0 24 24" version="1.1" xmlns="http://www.w3.org/2000/svg" xmlns:xlink="http://www.w3.org/1999/xlink">
    <!-- Generator: Sketch 39.1 (31720) - http://www.bohemiancoding.com/sketch -->
    <title>icon_info_light</title>
    <desc>Created with Sketch.</desc>
    <defs></defs>
    <g id="Symbols" stroke="none" stroke-width="1" fill="none" fill-rule="evenodd">
        <g id="icon_info_light">
            <g>
                <path d="M20,12 C20,7.581722 16.418278,4 12,4 C7.581722,4 4,7.581722 4,12 C4,16.418278 7.581722,20 12,20 C16.418278,20 20,16.418278 20,12 Z M2,12 C2,6.4771525 6.4771525,2 12,2 C17.5228475,2 22,6.4771525 22,12 C22,17.5228475 17.5228475,22 12,22 C6.4771525,22 2,17.5228475 2,12 Z" id="Oval" fill="#FFFFFF"></path>
                <path d="M11.8333324,9.79999991 C12.606531,9.79999991 13.2333324,9.17319858 13.2333324,8.39999996 C13.2333324,7.62680133 12.606531,7 11.8333324,7 C11.0601338,7 10.4333324,7.62680133 10.4333324,8.39999996 C10.4333324,9.17319858 11.0601338,9.79999991 11.8333324,9.79999991 Z M10.6666667,11.1666667 L15.3333333,11.1666667 L15.3333333,17.8333333 L13,17.8333333 C11.7113356,17.8333333 10.6666667,16.7916667 10.6666667,15.5016569 L10.6666667,11.1666667 Z M13,11.1666667 L15.3333333,11.1666667 L15.3333333,17.8333333 L13,17.8333333 L13,11.1666667 Z" id="Combined-Shape" fill="#FFFFFF"></path>
                <rect id="Rectangle-4" fill-opacity="0" fill="#D8D8D8" x="0" y="0" width="24" height="24"></rect>
            </g>
        </g>
    </g>
</svg>