<?xml version="1.0" encoding="UTF-8" standalone="no"?>
<svg width="24px" height="24px" viewBox="0 0 24 24" version="1.1" xmlns="http://www.w3.org/2000/svg" xmlns:xlink="http://www.w3.org/1999/xlink">
    <!-- Generator: Sketch 39.1 (31720) - http://www.bohemiancoding.com/sketch -->
    <title>icon_wheel_light</title>
    <desc>Created with Sketch.</desc>
    <defs></defs>
    <g id="Symbols" stroke="none" stroke-width="1" fill="none" fill-rule="evenodd">
        <g id="icon_wheel_light">
            <g>
                <path d="M1.19493281,10.1220937 C1.20348281,10.0729687 1.21238438,10.0239375 1.22162344,9.97495313 C1.31604844,9.4741875 1.44557812,8.98007812 1.60904531,8.49740625 C1.77725156,8.0008125 1.98135469,7.51635937 2.21908594,7.04896875 C2.50455,6.48778125 2.83846406,5.95129688 3.21561094,5.44715625 C3.59100469,4.9453125 4.00916719,4.47553125 4.46402344,4.04442188 C4.91926406,3.6129375 5.41122187,3.22026563 5.93301562,2.87217188 C6.4396875,2.53415625 6.97448437,2.23823438 7.5301875,1.98885938 C7.96954687,1.79170313 8.4219375,1.62365625 8.88346875,1.48621875 C9.33028125,1.3531875 9.78557813,1.24889063 10.24575,1.17403125 C10.6230469,1.11267188 11.0035312,1.07109375 11.3851875,1.04929687 C11.5141406,1.0419375 11.6432344,1.03682813 11.7723281,1.03396875 C11.8432031,1.032375 11.9140781,1.03157813 11.9849531,1.03125 L12.0559688,1.03125 C12.1268438,1.03157813 12.1977187,1.032375 12.2685938,1.03396875 C12.3976875,1.03682813 12.5267812,1.0419375 12.6557344,1.04929687 C13.0373906,1.07109375 13.417875,1.11267188 13.7951719,1.17403125 C14.2553438,1.24889063 14.7106406,1.3531875 15.1574531,1.48621875 C15.6189844,1.62365625 16.071375,1.79170313 16.5107344,1.98885938 C17.0664375,2.23823438 17.6012344,2.53415625 18.1079062,2.87217188 C18.6297188,3.22026563 19.1216719,3.6129375 19.576875,4.04442188 C20.03175,4.47553125 20.4499219,4.9453125 20.8252969,5.44715625 C21.2024531,5.95129688 21.5363906,6.48778125 21.8218125,7.04896875 C22.0595625,7.51635937 22.2636563,8.0008125 22.4318906,8.49740625 C22.5953437,8.98007812 22.7248594,9.4741875 22.8193125,9.97495313 C22.8265312,10.0133906 22.8335625,10.0518281 22.8404062,10.0903594 L22.842375,10.1014219 L22.8450938,10.1170781 L22.8455625,10.11975 L22.8459375,10.1218594 L22.8479063,10.1331094 L22.8499687,10.1451094 L22.8506719,10.1491406 L22.8514219,10.1535469 L22.8533438,10.1647969 L22.8548437,10.17375 L22.8556875,10.1785781 L22.8569063,10.1858906 L22.8586875,10.1964844 L22.8597188,10.2027188 L22.8606563,10.2080625 L22.8624844,10.2193594 L22.8639844,10.2281719 L22.8645938,10.2319687 L22.8654844,10.2375469 L22.8682969,10.2548437 L22.8691406,10.2599062 L22.869375,10.2614063 C22.9516875,10.7722031 22.99875,11.2946719 23.0079844,11.8263281 L23.008125,11.8356094 L23.0084531,11.8568437 L23.0085,11.8597031 L23.0085,11.8606406 L23.0085937,11.8663594 L23.008875,11.8873594 L23.0089219,11.8918125 L23.0089219,11.8929844 L23.0089688,11.8971094 L23.0092031,11.9179688 L23.00925,11.9239688 L23.00925,11.9250938 L23.0092969,11.9279062 L23.0094375,11.9488594 L23.0094844,11.956125 L23.0094844,11.95875 L23.0095781,11.9807344 L23.009625,11.9882812 L23.009625,11.9887969 C23.0096719,11.9993438 23.0096719,12.0098906 23.0096719,12.0204375 C23.0096719,12.0353906 23.009625,12.0503437 23.0095781,12.0652969 L23.0095781,12.0685781 L23.0094844,12.0791719 L23.0093906,12.1018125 L23.0092969,12.1105781 L23.00925,12.1167188 L23.0091563,12.1262344 L23.0090156,12.1425 L23.0088281,12.1566094 L23.0087344,12.1648594 L23.0086406,12.1716563 L23.0085,12.1830937 L23.008125,12.2045156 L23.0079844,12.2130469 L23.0079375,12.2165625 L23.0078437,12.2236875 L23.0070937,12.2608594 L23.0070937,12.2611875 L23.0070469,12.2612344 C23.0067188,12.2771719 23.0063437,12.2931094 23.0059219,12.3090469 L23.0059219,12.3093281 L23.005875,12.3105469 L23.0049375,12.3452344 L23.0046563,12.3547031 L23.0045625,12.3574219 L23.0044219,12.3627656 L23.0037188,12.3856406 L23.0031562,12.4011094 L23.0030156,12.4055625 L23.002875,12.4100625 L23.0023125,12.4260469 L23.0014219,12.4493906 L23.0012344,12.4537031 L23.0011406,12.4559531 C22.9993594,12.5027812 22.9972031,12.5495156 22.9948125,12.5962031 L22.9947188,12.5979844 L22.9944844,12.6022969 L22.993125,12.6275156 L22.9923281,12.6414375 L22.9920937,12.6460781 L22.9917656,12.6515156 L22.990875,12.6676875 L22.9908281,12.6676875 C22.9735781,12.9649688 22.9442812,13.2615 22.9029844,13.5563906 C22.8255469,14.1089531 22.7058281,14.6555625 22.5449531,15.1897969 C22.3804687,15.7359844 22.1730469,16.2691406 21.9253125,16.7829375 C21.6420469,17.3704688 21.3060937,17.9325937 20.9232656,18.4606922 C20.5359844,18.9948656 20.10075,19.4941922 19.6245937,19.9509 C19.1322187,20.4231984 18.5960625,20.84985 18.0250781,21.2233734 C17.4591094,21.5936203 16.8589688,21.9115594 16.2345469,22.1713641 C15.5472187,22.457325 14.8307344,22.6726125 14.099625,22.8128484 C14.0348438,22.8252703 13.9700156,22.8371016 13.9050469,22.8483422 L13.9050469,22.8483422 C13.8951094,22.8500578 13.8851719,22.8517641 13.8752344,22.8534563 L13.8744844,22.8535828 L13.870125,22.8543187 L13.8475781,22.8581297 L13.8433594,22.8588375 L13.8422813,22.8590156 L13.8390937,22.8595406 L13.8187969,22.8629156 L13.810875,22.8642094 L13.8100313,22.86435 L13.8085312,22.8645938 C13.2896719,22.9496672 12.7585781,22.9983281 12.2180625,23.0078719 L12.2165625,23.0079 L12.2147344,23.0079281 L12.2008125,23.0081719 L12.187125,23.0083734 L12.1838438,23.008425 L12.1810781,23.0084625 L12.1708125,23.0086172 L12.1561406,23.0087906 L12.1511719,23.0088563 L12.1481719,23.0088891 L12.1407656,23.0089781 L12.1250625,23.0091281 L12.1185,23.0091937 L12.1157812,23.0092125 L12.1107187,23.0092594 L12.0936094,23.0093766 L12.0858281,23.0094328 L12.0837656,23.0094422 L12.0806719,23.0094609 L12.0610781,23.0095406 L12.0531562,23.0095781 L12.0519844,23.0095781 C12.0414844,23.0096109 12.0309844,23.009625 12.0204375,23.009625 L11.9877656,23.0095781 L11.9730938,23.0095125 L11.9672344,23.0094984 L11.962875,23.0094656 C11.9478281,23.0093906 11.9328281,23.0092828 11.9177813,23.0091469 L11.9140781,23.0091187 L11.9069062,23.0090344 L11.88975,23.0088563 L11.86875,23.0085797 L11.8609687,23.0084906 L11.8579687,23.0084391 C11.8441406,23.0082375 11.8302656,23.0080078 11.8164375,23.00775 L11.8079063,23.0076047 L11.7989062,23.0074125 L11.7916875,23.0072766 L11.764875,23.0066859 L11.7549375,23.006475 L11.7396094,23.0060719 L11.7263437,23.0057438 L11.7172969,23.0054906 L11.7020156,23.0050875 L11.6687813,23.0040609 L11.661,23.0038219 L11.6608594,23.0038172 L11.6491406,23.0034562 L11.6312813,23.0028187 L11.628375,23.0027203 L11.6231719,23.0025328 C11.1918281,22.9872 10.7667656,22.9469297 10.3494375,22.8831469 L10.3494375,22.8831094 C10.2129844,22.8622828 10.0769063,22.8388547 9.94129688,22.8128484 C9.2101875,22.6726125 8.49370312,22.457325 7.806375,22.1713641 C7.18195312,21.9115594 6.5818125,21.5936203 6.01584375,21.2233734 C5.44484531,20.84985 4.9087125,20.4231984 4.41630469,19.9509 C3.94014375,19.4941922 3.50492344,18.9948656 3.11766563,18.4606922 C2.7348,17.9325937 2.39889375,17.3704688 2.1156,16.7829375 C1.86787969,16.2691406 1.66043437,15.7359844 1.49596406,15.1897969 C1.33507969,14.6555625 1.21536563,14.1089531 1.13794687,13.5563906 C1.09483125,13.2486562 1.06483594,12.9391406 1.04788594,12.628875 L1.04785313,12.628875 L1.04625,12.5986406 L1.04621719,12.5979844 L1.04620781,12.5977969 C1.04458125,12.5664844 1.04308594,12.535125 1.04173125,12.5037656 L1.04164219,12.5017969 L1.04151562,12.49875 L1.04061094,12.4775625 L1.0398,12.4569844 L1.03966406,12.4537031 L1.03958438,12.4515 C1.038375,12.4203281 1.03729688,12.3890625 1.03635,12.3578438 L1.03634063,12.3574219 L1.03630313,12.3561563 L1.03541719,12.3256875 L1.03509844,12.3132656 L1.03499063,12.3093281 L1.03486875,12.3042656 L1.03444219,12.287625 L1.03398281,12.2669531 L1.03384688,12.2611875 L1.03378594,12.258 C1.03313906,12.2279531 1.03261875,12.1978594 1.03222969,12.1677656 L1.03218281,12.1648594 L1.03210312,12.1572188 L1.03183594,12.1351406 L1.0317375,12.1235156 L1.03166719,12.1167188 L1.03161562,12.1093594 L1.0315125,12.0969375 L1.03141406,12.0776719 L1.03135313,12.0685781 L1.03134375,12.0644531 C1.03127813,12.0497813 1.03125,12.0351094 1.03125,12.0204375 C1.03125,12.0097969 1.03126406,11.9992031 1.03129688,11.9886563 L1.03129688,11.9882812 L1.031325,11.9813437 L1.03142344,11.958 L1.0314375,11.956125 L1.03147969,11.9498438 L1.03163906,11.9267812 L1.03166719,11.9239688 L1.03171406,11.9193281 L1.03194375,11.8956094 L1.03199062,11.8918125 L1.03202813,11.889 L1.0323375,11.8644844 L1.03242188,11.8587656 C1.04010937,11.3265469 1.08571406,10.8034687 1.1666625,10.2920625 L1.169175,10.2761719 L1.17139219,10.2624375 L1.17179063,10.2599062 L1.17218438,10.2575156 L1.17399375,10.2463125 L1.17616406,10.2330469 L1.17695625,10.2281719 L1.17756562,10.2245156 L1.1788875,10.2164531 L1.18095938,10.2040313 L1.18221094,10.1964844 L1.18296094,10.1920312 L1.18386562,10.1865938 L1.18574531,10.1755313 L1.18755937,10.1647969 L1.18838906,10.1599687 L1.18892813,10.1567812 L1.19045625,10.1479219 L1.19300625,10.1331094 L1.19385469,10.1282344 L1.19406562,10.1270156 L1.19493281,10.1220937 Z M4.3021875,13.9732969 C4.18838437,14.0640937 4.14107812,14.2148437 4.18261875,14.3543437 C4.302675,14.7607031 4.45551094,15.1570781 4.63828594,15.5391094 C4.84777969,15.9770156 5.09655469,16.3960781 5.38030312,16.7899219 C5.67269062,17.1957656 6.00215625,17.5748906 6.36314062,17.9211562 C6.73021875,18.2731875 7.12982812,18.5912906 7.55545312,18.8697234 C7.97629687,19.1450062 8.4225,19.3814719 8.88679687,19.5746484 C9.030375,19.6343859 9.39162523,19.6113233 9.50000023,19.4999998 C9.60837523,19.3886764 9.10646234,15.1093049 9.00000023,15 C8,13.9732969 4.41598594,13.8825 4.3021875,13.9732969 Z M19.2442916,14.0582325 C19.3580948,14.1490294 19.405401,14.2997794 19.3638604,14.4392794 C19.2438041,14.8456388 19.0909682,15.2420138 18.9081932,15.624045 C18.6986994,16.0619513 18.4499244,16.4810138 18.166176,16.8748575 C17.8737885,17.2807013 17.5443229,17.6598263 17.1833385,18.0060919 C16.8162604,18.3581232 16.416651,18.6762263 15.991026,18.9546591 C15.5701823,19.2299419 15.1239791,19.4664075 14.6596823,19.6595841 C14.5161041,19.7193216 14.1548539,19.6962589 14.0464789,19.5849355 C13.9381039,19.4736121 14.4400168,15.1942406 14.5464789,15.0849356 C15.5464791,14.0582325 19.1304932,13.9674357 19.2442916,14.0582325 Z M17.6817188,8.3895 C18.022875,8.46679688 18.3758906,8.32232813 18.5649844,8.02804687 C18.7540781,7.7338125 18.7388438,7.35267188 18.5268281,7.07446875 C18.52875,7.07296875 18.5287031,7.07292188 18.5287031,7.07292188 C18.2453906,6.70120313 17.9304375,6.35367187 17.5883906,6.03525 C17.2581563,5.72779687 16.9026563,5.44748438 16.5265781,5.19820312 C16.1557969,4.95248438 15.7650469,4.73695313 15.35925,4.55484375 C15.0331406,4.40854687 14.6974219,4.28376563 14.3548594,4.18176563 C14.031375,4.0854375 13.7018438,4.00945313 13.3688906,3.9541875 C13.0797188,3.90623438 12.7880156,3.8739375 12.495375,3.85725 C12.3460781,3.84871875 12.1965938,3.84445312 12.0470625,3.84375 C12.0293438,3.84370313 12.0115781,3.84370313 11.9938594,3.84375 C11.8443281,3.84445312 11.6948438,3.84871875 11.5455469,3.85725 C11.2529063,3.8739375 10.9611563,3.90623438 10.6720313,3.9541875 C10.3307813,4.0108125 9.99323438,4.08923438 9.66201563,4.18898438 C9.32779688,4.289625 9.00014063,4.41196875 8.68167188,4.55484375 C8.275875,4.73695313 7.88507813,4.95248438 7.51434375,5.19820312 C7.13826563,5.44748438 6.78276563,5.72779687 6.45253125,6.03525 C6.11648438,6.34809375 5.80654688,6.68901562 5.5271625,7.05332813 C5.527125,7.05342188 5.52709219,7.05346875 5.52705469,7.05351563 C5.31292031,7.33275 5.29648594,7.7161875 5.48594063,8.01276563 C5.67539531,8.30929687 6.0301875,8.45559375 6.37359375,8.37867187 C8.18601563,7.98454687 10.067625,7.77825 11.997,7.77825 C13.9479844,7.77825 15.8500781,7.9891875 17.6817188,8.3895 L17.6817188,8.3895 Z" id="Page-1" fill="#FFFFFF"></path>
                <rect id="Rectangle" fill-opacity="0" fill="#D8D8D8" x="0" y="0" width="24" height="24"></rect>
            </g>
        </g>
    </g>
</svg>