<?xml version="1.0" encoding="UTF-8" standalone="no"?>
<svg width="20px" height="74px" viewBox="0 0 20 74" version="1.1" xmlns="http://www.w3.org/2000/svg" xmlns:xlink="http://www.w3.org/1999/xlink">
    <!-- Generator: Sketch 39.1 (31720) - http://www.bohemiancoding.com/sketch -->
    <title>path</title>
    <desc>Created with Sketch.</desc>
    <defs></defs>
    <g id="Symbols" stroke="none" stroke-width="1" fill="none" fill-rule="evenodd" opacity="0.64">
        <g id="single_search" transform="translate(-24.000000, -88.000000)" fill="#FFFFFF">
            <g id="path">
                <g transform="translate(22.000000, 88.000000)">
                    <g id="Group">
                        <path d="M20,62 C20,57.581722 16.418278,54 12,54 C7.581722,54 4,57.581722 4,62 C4,66.418278 7.581722,70 12,70 C16.418278,70 20,66.418278 20,62 Z M2,62 C2,56.4771525 6.4771525,52 12,52 C17.5228475,52 22,56.4771525 22,62 C22,67.5228475 17.5228475,72 12,72 C6.4771525,72 2,67.5228475 2,62 Z" id="Oval"></path>
                        <path d="M20,10 C20,5.581722 16.418278,2 12,2 C7.581722,2 4,5.581722 4,10 C4,14.418278 7.581722,18 12,18 C16.418278,18 20,14.418278 20,10 Z M2,10 C2,4.4771525 6.4771525,0 12,0 C17.5228475,0 22,4.4771525 22,10 C22,15.5228475 17.5228475,20 12,20 C6.4771525,20 2,15.5228475 2,10 Z" id="Oval"></path>
                        <circle id="Oval" cx="12.1666667" cy="10.1666667" r="4.16666667"></circle>
                        <circle id="Oval-2" cx="12" cy="28" r="2"></circle>
                        <circle id="Oval-2" cx="12" cy="36" r="2"></circle>
                        <circle id="Oval-2" cx="12" cy="44" r="2"></circle>
                    </g>
                </g>
            </g>
        </g>
    </g>
</svg>