<?xml version="1.0" encoding="UTF-8" standalone="no"?>
<svg width="20px" height="74px" viewBox="0 0 20 74" version="1.1" xmlns="http://www.w3.org/2000/svg" xmlns:xlink="http://www.w3.org/1999/xlink">
    <!-- Generator: Sketch 39.1 (31720) - http://www.bohemiancoding.com/sketch -->
    <title>path</title>
    <desc>Created with Sketch.</desc>
    <defs>
        <circle id="path-1" cx="12" cy="10" r="10"></circle>
        <mask id="mask-2" maskContentUnits="userSpaceOnUse" maskUnits="objectBoundingBox" x="0" y="0" width="20" height="20" fill="white">
            <use xlink:href="#path-1"></use>
        </mask>
    </defs>
    <g id="Symbols" stroke="none" stroke-width="1" fill="none" fill-rule="evenodd" opacity="0.64">
        <g id="round_search" transform="translate(-24.000000, -91.000000)">
            <g id="path">
                <g transform="translate(22.000000, 91.000000)">
                    <g id="Group">
                        <g id="icon_pin_light" transform="translate(0.000000, 50.000000)">
                            <g id="Group">
                                <path d="M6.70900781,11.0483438 C6.22740937,10.1798906 5.953125,9.18079687 5.953125,8.1181875 C5.953125,4.77595313 8.66659219,2.0625 12.0088125,2.0625 C15.3510469,2.0625 18.0645469,4.77595313 18.0645469,8.1181875 C18.0645469,9.12103125 17.8202344,10.0672031 17.388,10.9005 L17.388,10.9005 L17.3872969,10.9017656 C17.3693437,10.9364063 17.3510625,10.9708125 17.3324531,11.0050313 L11.9975625,21.046875 L6.70900781,11.0483438 Z M12.0088125,5.28201562 C13.5741562,5.28201562 14.8449844,6.55289063 14.8449844,8.1181875 C14.8449844,9.68353125 13.5741562,10.9543594 12.0088125,10.9543594 C10.4435016,10.9543594 9.17265938,9.68353125 9.17265938,8.1181875 C9.17265938,6.55289063 10.4435016,5.28201562 12.0088125,5.28201562 L12.0088125,5.28201562 Z" id="Page-1" fill="#FFFFFF"></path>
                                <rect id="Rectangle" fill-opacity="0" fill="#D8D8D8" x="0" y="0" width="24" height="24"></rect>
                            </g>
                        </g>
                        <use id="Oval" stroke="#FFFFFF" mask="url(#mask-2)" stroke-width="4" xlink:href="#path-1"></use>
                        <circle id="Oval" fill="#FFFFFF" cx="12.1666667" cy="10.1666667" r="4.16666667"></circle>
                        <circle id="Oval-2" fill="#FFFFFF" cx="12" cy="28" r="2"></circle>
                        <circle id="Oval-2" fill="#FFFFFF" cx="12" cy="36" r="2"></circle>
                        <circle id="Oval-2" fill="#FFFFFF" cx="12" cy="44" r="2"></circle>
                    </g>
                </g>
            </g>
        </g>
    </g>
</svg>