<?xml version="1.0" encoding="UTF-8" standalone="no"?>
<svg width="20px" height="72px" viewBox="0 0 20 72" version="1.1" xmlns="http://www.w3.org/2000/svg" xmlns:xlink="http://www.w3.org/1999/xlink">
    <!-- Generator: Sketch 39.1 (31720) - http://www.bohemiancoding.com/sketch -->
    <title>path</title>
    <desc>Created with Sketch.</desc>
    <defs>
        <circle id="path-1" cx="12" cy="62" r="8"></circle>
        <mask id="mask-2" maskContentUnits="userSpaceOnUse" maskUnits="objectBoundingBox" x="0" y="0" width="16" height="16" fill="white">
            <use xlink:href="#path-1"></use>
        </mask>
    </defs>
    <g id="Symbols" stroke="none" stroke-width="1" fill="none" fill-rule="evenodd" opacity="0.64">
        <g id="single_search" transform="translate(-24.000000, -88.000000)">
            <g id="path">
                <g transform="translate(22.000000, 88.000000)">
                    <g id="Group" stroke-width="1" fill-rule="evenodd" fill="#FFFFFF">
                        <path d="M20,10 C20,5.581722 16.418278,2 12,2 C7.581722,2 4,5.581722 4,10 C4,14.418278 7.581722,18 12,18 C16.418278,18 20,14.418278 20,10 Z M2,10 C2,4.4771525 6.4771525,0 12,0 C17.5228475,0 22,4.4771525 22,10 C22,15.5228475 17.5228475,20 12,20 C6.4771525,20 2,15.5228475 2,10 Z" id="Oval"></path>
                        <circle id="Oval" cx="12.1666667" cy="10.1666667" r="4.16666667"></circle>
                        <circle id="Oval-2" cx="12" cy="28" r="2"></circle>
                        <circle id="Oval-2" cx="12" cy="36" r="2"></circle>
                        <circle id="Oval-2" cx="12" cy="44" r="2"></circle>
                    </g>
                    <use id="Oval-3" stroke="#FFFFFF" mask="url(#mask-2)" stroke-width="4" xlink:href="#path-1"></use>
                </g>
            </g>
        </g>
    </g>
</svg>