<?xml version="1.0" encoding="UTF-8" standalone="no"?>
<svg width="26px" height="24px" viewBox="0 0 26 24" version="1.1" xmlns="http://www.w3.org/2000/svg" xmlns:xlink="http://www.w3.org/1999/xlink">
    <!-- Generator: Sketch 39.1 (31720) - http://www.bohemiancoding.com/sketch -->
    <title>icon_search</title>
    <desc>Created with Sketch.</desc>
    <defs></defs>
    <g id="Symbols" stroke="none" stroke-width="1" fill="none" fill-rule="evenodd">
        <g id="tab_bar_drive" transform="translate(-34.000000, -15.000000)">
            <g id="Group-7" transform="translate(0.000000, -1.000000)">
                <g id="Group" transform="translate(32.000000, 11.000000)">
                    <g id="icon_search">
                        <rect id="Rectangle" fill-opacity="0" fill="#909090" x="0" y="0" width="32" height="32"></rect>
                        <path d="M18.2799375,23.5973542 C18.226125,23.6341042 18.172,23.6702917 18.1174375,23.7059792 C17.6004375,24.0441667 17.0521875,24.3346667 16.48175,24.5719792 C15.8538125,24.8332292 15.1993125,25.0299167 14.531375,25.1579792 C13.9058125,25.2779792 13.2689375,25.3377917 12.632,25.3377917 C11.9950625,25.3377917 11.3581875,25.2779792 10.7325625,25.1579792 C10.0646875,25.0299167 9.410125,24.8332292 8.78225,24.5719792 C8.2118125,24.3346667 7.6635625,24.0441667 7.1465,23.7059792 C6.624875,23.3647292 6.135125,22.9749792 5.6852875,22.5434792 C5.2503,22.1262917 4.85270625,21.6701042 4.49893125,21.1821042 C4.14916875,20.6996667 3.8423,20.1861667 3.5835,19.6494167 C3.3572,19.1800417 3.1676875,18.6929792 3.01744375,18.1940417 C2.8704625,17.7059792 2.7611,17.2066667 2.690375,16.7018542 C2.62526875,16.2371667 2.59290625,15.7679167 2.59290625,15.2986667 C2.59290625,14.6721667 2.65071875,14.0457292 2.76681875,13.4300417 C2.853075,12.9726042 2.9714125,12.5211667 3.12074375,12.0802917 C3.27440625,11.6266042 3.4608625,11.1840417 3.6780375,10.7570417 C3.938825,10.2444167 4.24386875,9.75429167 4.58840625,9.29372917 C4.93134375,8.83529167 5.31335,8.40610417 5.72888125,8.01229167 C6.14475,7.61810417 6.5941875,7.25935417 7.070875,6.94135417 C7.53375,6.63260417 8.02225,6.36229167 8.5299375,6.13441667 C8.9313125,5.95435417 9.3445625,5.80079167 9.7661875,5.67522917 C10.174375,5.55372917 10.590375,5.45841667 11.0106875,5.39004167 C11.355375,5.33397917 11.703,5.29604167 12.051625,5.27610417 C12.234125,5.26566667 12.4168125,5.26047917 12.5995625,5.25960417 L12.6644375,5.25960417 C12.8471875,5.26047917 13.029875,5.26566667 13.212375,5.27610417 C13.561,5.29604167 13.908625,5.33397917 14.25325,5.39004167 C14.673625,5.45841667 15.089625,5.55372917 15.49775,5.67522917 C15.9194375,5.80079167 16.3326875,5.95435417 16.7340625,6.13441667 C17.2416875,6.36229167 17.73025,6.63260417 18.193125,6.94135417 C18.6698125,7.25935417 19.11925,7.61810417 19.535125,8.01229167 C19.950625,8.40610417 20.332625,8.83529167 20.6755625,9.29372917 C21.020125,9.75429167 21.3251875,10.2444167 21.5859375,10.7570417 C21.803125,11.1840417 21.9895625,11.6266042 22.14325,12.0802917 C22.2925625,12.5211667 22.4109375,12.9726042 22.4971875,13.4300417 C22.61325,14.0457292 22.6710625,14.6721667 22.6710625,15.2986667 C22.6710625,15.7679167 22.63875,16.2371667 22.573625,16.7018542 C22.502875,17.2066667 22.3935,17.7059792 22.2465625,18.1940417 C22.0963125,18.6929792 21.9068125,19.1800417 21.6805,19.6494167 C21.463375,20.0997292 21.2124375,20.5336667 20.9306875,20.9466667 L27.8894375,27.9053542 L27.889375,27.9054167 C26.4254375,29.3693354 24.0519375,29.3693354 22.588,27.9054167 L18.2799375,23.5973542 Z M12.6114375,9.00960417 C12.496,9.01016667 12.3806875,9.01341667 12.2654375,9.02004167 C12.03375,9.03322917 11.8028125,9.05916667 11.574,9.09785417 C11.0543125,9.18572917 10.546125,9.33997917 10.06525,9.55572917 C9.4533125,9.83035417 8.8866875,10.2039792 8.39175,10.6565417 C7.878625,11.1257917 7.443125,11.6792917 7.1091875,12.2892292 C6.8269375,12.8047292 6.618,13.3599167 6.491,13.9338542 C6.3919375,14.3816042 6.3429375,14.8401042 6.3429375,15.2986667 C6.3429375,15.5939167 6.363125,15.8891667 6.404125,16.1815417 C6.447375,16.4901667 6.5136875,16.7956042 6.602625,17.0942917 C6.693625,17.3998542 6.80825,17.6984167 6.9449375,17.9864792 C7.1050625,18.3237917 7.2955,18.6466667 7.512875,18.9503542 C7.7371875,19.2636667 7.990125,19.5564167 8.2674375,19.8240417 C8.553875,20.1004167 8.8663125,20.3498542 9.1994375,20.5677917 C9.5175625,20.7759167 9.8545625,20.9552292 10.205125,21.1022917 C10.6020625,21.2689167 11.01625,21.3940417 11.439,21.4751042 C11.8251875,21.5492292 12.21825,21.5864792 12.6114375,21.5877292 C13.0053125,21.5889792 13.39925,21.5541667 13.7865625,21.4823542 C14.2100625,21.4039167 14.6253125,21.2812917 15.0235625,21.1169792 C15.3868125,20.9671667 15.73575,20.7829167 16.0645625,20.5677917 C16.387125,20.3567917 16.69025,20.1161667 16.96925,19.8501667 C17.2573125,19.5755417 17.5195,19.2738542 17.751125,18.9502917 C17.961125,18.6569792 18.1459375,18.3456667 18.302625,18.0207292 C18.446625,17.7221042 18.56675,17.4120417 18.661375,17.0942917 C18.7465625,16.8081667 18.811,16.5159167 18.8543125,16.2206042 C18.899,15.9154167 18.9210625,15.6070417 18.9210625,15.2986667 C18.9210625,14.8530417 18.87475,14.4075417 18.78125,13.9717917 C18.6565,13.3906042 18.44775,12.8281042 18.163875,12.3058542 C17.8288125,11.6893542 17.39,11.1300417 16.8721875,10.6565417 C16.3866875,10.2125417 15.832125,9.84447917 15.2334375,9.57147917 C14.75425,9.35291667 14.2474375,9.19560417 13.7286875,9.10454167 C13.5004375,9.06447917 13.27,9.03710417 13.0388125,9.02241667 C12.923875,9.01516667 12.80875,9.01116667 12.693625,9.00985417 C12.6661875,9.00966667 12.6388125,9.00960417 12.6114375,9.00960417 L12.6114375,9.00960417 Z" id="Fill-14" fill="#FAB024"></path>
                    </g>
                </g>
            </g>
        </g>
    </g>
</svg>
