<?xml version="1.0" encoding="UTF-8" standalone="no"?>
<svg width="26px" height="26px" viewBox="0 0 26 26" version="1.1" xmlns="http://www.w3.org/2000/svg" xmlns:xlink="http://www.w3.org/1999/xlink">
    <!-- Generator: Sketch 39.1 (31720) - http://www.bohemiancoding.com/sketch -->
    <title>icon_cog_grey</title>
    <desc>Created with Sketch.</desc>
    <defs></defs>
    <g id="Symbols" stroke="none" stroke-width="1" fill="none" fill-rule="evenodd">
        <g id="tab_bar_drive" transform="translate(-221.000000, -13.000000)">
            <g id="Group-7" transform="translate(0.000000, -1.000000)">
                <g id="Group" transform="translate(32.000000, 11.000000)">
                    <g id="icon_cog_grey" transform="translate(186.000000, 0.000000)">
                        <rect id="Rectangle" fill-opacity="0" fill="#D8D8D8" x="0" y="0" width="32" height="32"></rect>
                        <path d="M17.9864375,4.7678125 C17.729875,3.9005 16.9331875,3.3055 16.0288125,3.3056875 L16.0288125,3.3125 C15.1291875,3.3144375 14.33775,3.9070625 14.0825625,4.7696875 C13.8365625,5.5775 13.578875,6.448625 13.578875,6.448625 C12.6851875,6.6788125 11.8283125,7.03375 11.033625,7.502875 C11.033625,7.502875 10.235375,7.069125 9.4934875,6.6659375 C8.69885,6.234125 7.71476875,6.3766875 7.0754,7.016375 L7.0802,7.0211875 C6.44548125,7.658625 6.30485,8.637375 6.7343875,9.42775 C7.13163125,10.172875 7.5654,10.971125 7.5654,10.971125 C7.09624375,11.7658125 6.74133125,12.6226875 6.51111875,13.516375 C6.51111875,13.516375 5.639975,13.7740625 4.8302875,14.0135625 C3.96303125,14.270125 3.3680125,15.0668125 3.3682125,15.9711875 L3.37500625,15.9711875 C3.3769625,16.8708125 3.9695625,17.66225 4.8322,17.9174375 C5.639975,18.1634375 6.51111875,18.421125 6.51111875,18.421125 C6.74133125,19.3148125 7.09624375,20.1716875 7.5654,20.966375 C7.5654,20.966375 7.13163125,21.764625 6.72845625,22.5065125 C6.2966125,23.30115 6.4392125,24.2852312 7.0788625,24.9246 L7.0836625,24.9198 C7.72115625,25.5545187 8.69985,25.69515 9.49026875,25.2656125 C10.235375,24.8683687 11.033625,24.4346 11.033625,24.4346 C11.8283125,24.9037563 12.6851875,25.2586687 13.578875,25.4888812 C13.578875,25.4888812 13.8365625,26.360025 14.0760625,27.1697125 C14.332625,28.0369687 15.1293125,28.6319875 16.0336875,28.6317875 L16.0336875,28.6249938 C16.9333125,28.6230375 17.72475,28.0304375 17.9799375,27.1678 C18.2259375,26.360025 18.483625,25.4888812 18.483625,25.4888812 C19.3773125,25.2586687 20.2341875,24.9037563 21.028875,24.4346 C21.028875,24.4346 21.827125,24.8683687 22.569,25.2715437 C23.363625,25.7033875 24.34775,25.5607875 24.987125,24.9211375 L24.9823125,24.9163375 C25.617,24.2788438 25.757625,23.30015 25.328125,22.5097313 C24.930875,21.764625 24.497125,20.966375 24.497125,20.966375 C24.96625,20.1716875 25.3211875,19.3148125 25.551375,18.421125 C25.551375,18.421125 26.4225,18.1634375 27.2321875,17.9239375 C28.0995,17.667375 28.6945,16.8706875 28.6943125,15.9663125 L28.6875,15.9663125 C28.6855625,15.0666875 28.0929375,14.27525 27.2303125,14.0200625 C26.4225,13.7740625 25.551375,13.516375 25.551375,13.516375 C25.3211875,12.6226875 24.96625,11.7658125 24.497125,10.971125 C24.497125,10.971125 24.930875,10.172875 25.3340625,9.431 C25.765875,8.636375 25.6233125,7.65225 24.983625,7.012875 L24.9788125,7.0176875 C24.341375,6.383 23.362625,6.242375 22.57225,6.671875 C21.827125,7.069125 21.028875,7.502875 21.028875,7.502875 C20.2341875,7.03375 19.3773125,6.6788125 18.483625,6.448625 C18.483625,6.448625 18.2259375,5.5775 17.9864375,4.7678125 L17.9864375,4.7678125 Z M16.03125,12.4029375 C17.99925,12.4029375 19.5970625,14.00075 19.5970625,15.96875 C19.5970625,17.93675 17.99925,19.5345625 16.03125,19.5345625 C14.06325,19.5345625 12.4654375,17.93675 12.4654375,15.96875 C12.4654375,14.00075 14.06325,12.4029375 16.03125,12.4029375 L16.03125,12.4029375 Z" id="Fill-1" fill="#2D3F52"></path>
                    </g>
                </g>
            </g>
        </g>
    </g>
</svg>