<?xml version="1.0" encoding="UTF-8" standalone="no"?>
<svg width="375px" height="400px" viewBox="0 0 375 400" version="1.1" xmlns="http://www.w3.org/2000/svg" xmlns:xlink="http://www.w3.org/1999/xlink">
    <!-- Generator: Sketch 39.1 (31720) - http://www.bohemiancoding.com/sketch -->
    <title>illu2</title>
    <desc>Created with Sketch.</desc>
    <defs>
        <path d="M0.509000016,15.8193918 C8.9060246,23.4686434 17.281,31.098 17.281,31.098 C17.281,33.215 18.122,35.245 19.619,36.742 C21.116,38.239 23.146,39.08 25.263,39.08 L31.61,39.08 L31.719,31.098 C31.719,31.098 52.757,11.933 61.577,3.899 C62.188,3.343 62.394,2.469 62.096,1.699 C61.797,0.928 61.056,0.421 60.23,0.421 L0.509,0.421 L0.509,15.8193918 L0.509000016,15.8193918 Z" id="path-1"></path>
        <polygon id="path-3" points="12.1826039 55.831 0.39 55.831 0.39 0.036 12.1826039 0.036 12.1826039 55.831"></polygon>
        <path d="M0.28,0.748 L16.255,0.748 C20.498,0.748 24.568,2.433 27.568,5.434 C30.569,8.434 32.255,12.504 32.255,16.748 L32.255,125.641 L0.28,131.88093 L0.28,0.748 L0.28,0.748 Z" id="path-5"></path>
    </defs>
    <g id="scratch" stroke="none" stroke-width="1" fill="none" fill-rule="evenodd">
        <g id="onboarding_2">
            <g id="illu2">
                <polygon id="Fill-1" fill="#FFFFFF" points="0 400 375 400 375 0 0 0"></polygon>
                <path d="M187.5,90.888 C257.409,90.888 314.167,147.646 314.167,217.555 C314.167,287.464 257.409,344.221 187.5,344.221 C117.591,344.221 60.8333,287.464 60.8333,217.555 C60.8333,147.646 117.591,90.888 187.5,90.888 L187.5,90.888 Z" id="Fill-2" fill="#FAB024"></path>
                <path d="M267.341,52.526 C266.811,51.607 265.937,50.937 264.912,50.662 C263.887,50.388 262.796,50.531 261.877,51.062 C248.984,58.505 203.857,84.559 190.964,92.003 C190.045,92.534 189.375,93.407 189.1,94.432 C188.826,95.457 188.97,96.549 189.5,97.467 C194.197,105.602 205.887,125.85 210.583,133.985 C211.114,134.903 211.987,135.574 213.012,135.848 C214.037,136.123 215.129,135.979 216.047,135.449 C228.94,128.005 274.067,101.951 286.96,94.507 C287.879,93.977 288.549,93.103 288.824,92.078 C289.098,91.054 288.955,89.962 288.424,89.043 C283.728,80.909 272.037,60.66 267.341,52.526 L267.341,52.526 Z" id="Fill-3" fill="#FFFFFF"></path>
                <path d="M263.97,48.526 L264.044,48.528 L264.117,48.531 L264.19,48.534 L264.264,48.538 L264.337,48.543 L264.41,48.55 L264.484,48.557 L264.557,48.564 L264.63,48.573 L264.703,48.583 L264.776,48.594 L264.85,48.605 L264.922,48.618 L264.995,48.631 L265.068,48.645 L265.141,48.66 L265.213,48.676 L265.285,48.693 L265.358,48.711 L265.43,48.73 L265.502,48.75 L265.573,48.77 L265.644,48.792 L265.715,48.814 L265.786,48.837 L265.856,48.862 L265.926,48.886 L265.995,48.912 L266.063,48.938 L266.132,48.966 L266.201,48.994 L266.269,49.023 L266.336,49.053 L266.403,49.083 L266.47,49.115 L266.536,49.147 L266.601,49.18 L266.666,49.214 L266.731,49.248 L266.796,49.283 L266.86,49.32 L266.924,49.357 L266.986,49.394 L267.048,49.432 L267.11,49.471 L267.172,49.512 L267.232,49.552 L267.293,49.593 L267.353,49.635 L267.412,49.678 L267.471,49.721 L267.529,49.766 L267.588,49.811 L267.644,49.856 L267.701,49.902 L267.757,49.949 L267.813,49.997 L267.868,50.046 L267.922,50.095 L267.976,50.144 L268.029,50.194 L268.082,50.246 L268.134,50.297 L268.185,50.349 L268.236,50.403 L268.286,50.456 L268.335,50.51 L268.384,50.566 L268.433,50.622 L268.48,50.677 L268.526,50.733 L268.574,50.792 L268.619,50.85 L268.663,50.908 L268.708,50.967 L268.751,51.027 L268.794,51.087 L268.836,51.148 L268.878,51.21 L268.918,51.272 L268.958,51.334 L268.997,51.398 L269.036,51.462 L269.07,51.521 L290.159,88.048 L290.193,88.108 L290.229,88.173 L290.264,88.239 L290.299,88.305 L290.332,88.37 L290.365,88.437 L290.396,88.504 L290.427,88.571 L290.458,88.639 L290.486,88.706 L290.515,88.775 L290.543,88.844 L290.569,88.913 L290.595,88.981 L290.62,89.05 L290.644,89.12 L290.666,89.189 L290.689,89.26 L290.711,89.331 L290.731,89.4 L290.751,89.471 L290.769,89.542 L290.787,89.613 L290.804,89.684 L290.82,89.754 L290.835,89.826 L290.85,89.899 L290.864,89.971 L290.876,90.043 L290.888,90.115 L290.899,90.188 L290.909,90.26 L290.918,90.332 L290.926,90.405 L290.934,90.478 L290.94,90.552 L290.946,90.625 L290.95,90.697 L290.954,90.77 L290.957,90.843 L290.959,90.917 L290.96,90.99 L290.96,91.063 L290.959,91.136 L290.958,91.21 L290.955,91.285 L290.952,91.356 L290.948,91.429 L290.943,91.503 L290.936,91.577 L290.929,91.651 L290.921,91.724 L290.913,91.796 L290.903,91.869 L290.892,91.943 L290.881,92.016 L290.868,92.088 L290.855,92.162 L290.841,92.234 L290.826,92.306 L290.809,92.38 L290.792,92.453 L290.775,92.523 L290.756,92.596 L290.736,92.669 L290.715,92.74 L290.694,92.81 L290.672,92.881 L290.648,92.953 L290.624,93.022 L290.6,93.092 L290.574,93.162 L290.547,93.231 L290.52,93.298 L290.492,93.366 L290.463,93.436 L290.433,93.503 L290.403,93.568 L290.371,93.635 L290.339,93.702 L290.306,93.767 L290.272,93.833 L290.238,93.898 L290.203,93.962 L290.166,94.026 L290.13,94.089 L290.092,94.152 L290.054,94.215 L290.014,94.277 L289.975,94.338 L289.934,94.399 L289.892,94.46 L289.851,94.519 L289.809,94.578 L289.764,94.638 L289.72,94.697 L289.676,94.753 L289.63,94.811 L289.584,94.867 L289.536,94.924 L289.489,94.979 L289.441,95.034 L289.391,95.089 L289.342,95.142 L289.291,95.196 L289.24,95.248 L289.189,95.299 L289.136,95.351 L289.083,95.402 L289.03,95.452 L288.975,95.502 L288.921,95.55 L288.865,95.599 L288.809,95.647 L288.752,95.693 L288.695,95.739 L288.637,95.785 L288.578,95.83 L288.519,95.874 L288.458,95.918 L288.398,95.961 L288.338,96.002 L288.277,96.043 L288.215,96.084 L288.151,96.125 L288.088,96.163 L288.025,96.202 L287.966,96.236 L217.042,137.184 L216.983,137.218 L216.918,137.254 L216.852,137.289 L216.786,137.323 L216.72,137.357 L216.653,137.389 L216.587,137.421 L216.519,137.452 L216.452,137.482 L216.384,137.511 L216.315,137.54 L216.247,137.567 L216.179,137.593 L216.109,137.619 L216.04,137.644 L215.971,137.668 L215.901,137.691 L215.831,137.714 L215.76,137.735 L215.691,137.755 L215.62,137.775 L215.549,137.794 L215.478,137.812 L215.406,137.829 L215.335,137.845 L215.263,137.86 L215.192,137.875 L215.12,137.888 L215.048,137.901 L214.976,137.913 L214.903,137.923 L214.83,137.933 L214.758,137.943 L214.686,137.951 L214.612,137.958 L214.54,137.965 L214.467,137.97 L214.393,137.975 L214.321,137.979 L214.247,137.981 L214.174,137.983 L214.101,137.985 L214.027,137.985 L213.954,137.984 L213.881,137.982 L213.807,137.98 L213.734,137.977 L213.661,137.972 L213.587,137.967 L213.514,137.961 L213.441,137.954 L213.367,137.946 L213.294,137.937 L213.221,137.928 L213.148,137.917 L213.075,137.905 L213.002,137.893 L212.929,137.88 L212.856,137.865 L212.784,137.85 L212.711,137.834 L212.639,137.817 L212.567,137.799 L212.495,137.78 L212.423,137.761 L212.351,137.74 L212.28,137.719 L212.209,137.696 L212.138,137.673 L212.069,137.649 L211.999,137.624 L211.929,137.598 L211.86,137.572 L211.791,137.544 L211.723,137.516 L211.656,137.488 L211.589,137.458 L211.521,137.427 L211.455,137.396 L211.389,137.364 L211.323,137.33 L211.258,137.297 L211.193,137.262 L211.129,137.227 L211.065,137.191 L211.002,137.154 L210.938,137.116 L210.876,137.078 L210.814,137.039 L210.752,136.999 L210.692,136.959 L210.631,136.917 L210.571,136.875 L210.512,136.832 L210.453,136.789 L210.395,136.745 L210.338,136.7 L210.28,136.654 L210.223,136.608 L210.167,136.561 L210.112,136.513 L210.057,136.465 L210.002,136.416 L209.948,136.366 L209.895,136.316 L209.843,136.265 L209.791,136.213 L209.739,136.161 L209.689,136.108 L209.638,136.054 L209.589,136 L209.54,135.945 L209.492,135.89 L209.445,135.834 L209.397,135.776 L209.351,135.719 L209.305,135.661 L209.26,135.602 L209.217,135.543 L209.173,135.484 L209.13,135.423 L209.089,135.363 L209.047,135.301 L209.006,135.238 L208.966,135.175 L208.927,135.113 L208.889,135.05 L208.855,134.991 L187.764,98.461 L187.731,98.403 L187.695,98.338 L187.66,98.272 L187.625,98.206 L187.592,98.14 L187.559,98.073 L187.527,98.006 L187.497,97.939 L187.467,97.871 L187.438,97.804 L187.409,97.736 L187.382,97.667 L187.356,97.599 L187.33,97.53 L187.305,97.46 L187.281,97.39 L187.257,97.32 L187.236,97.252 L187.214,97.181 L187.193,97.109 L187.174,97.04 L187.155,96.969 L187.137,96.897 L187.12,96.828 L187.104,96.755 L187.088,96.683 L187.074,96.611 L187.061,96.539 L187.048,96.467 L187.036,96.395 L187.025,96.323 L187.015,96.25 L187.006,96.178 L186.998,96.105 L186.991,96.033 L186.984,95.959 L186.979,95.886 L186.974,95.815 L186.97,95.74 L186.967,95.666 L186.965,95.595 L186.964,95.52 L186.964,95.446 L186.965,95.375 L186.966,95.302 L186.969,95.227 L186.972,95.153 L186.977,95.08 L186.982,95.008 L186.988,94.933 L186.995,94.861 L187.003,94.788 L187.011,94.714 L187.021,94.64 L187.032,94.568 L187.043,94.494 L187.056,94.42 L187.069,94.35 L187.083,94.277 L187.099,94.203 L187.115,94.132 L187.132,94.059 L187.15,93.986 L187.169,93.913 L187.188,93.843 L187.209,93.771 L187.23,93.699 L187.253,93.629 L187.276,93.558 L187.3,93.488 L187.325,93.419 L187.35,93.35 L187.377,93.28 L187.404,93.211 L187.432,93.144 L187.461,93.076 L187.491,93.008 L187.522,92.941 L187.553,92.874 L187.585,92.808 L187.618,92.743 L187.652,92.677 L187.687,92.613 L187.722,92.549 L187.758,92.485 L187.795,92.421 L187.832,92.358 L187.871,92.296 L187.91,92.233 L187.949,92.173 L187.99,92.112 L188.031,92.051 L188.074,91.991 L188.116,91.932 L188.16,91.873 L188.204,91.815 L188.249,91.756 L188.295,91.699 L188.341,91.643 L188.387,91.588 L188.435,91.532 L188.484,91.476 L188.533,91.422 L188.582,91.368 L188.632,91.316 L188.683,91.263 L188.736,91.21 L188.788,91.159 L188.841,91.108 L188.895,91.058 L188.949,91.008 L189.004,90.96 L189.059,90.912 L189.115,90.865 L189.172,90.817 L189.23,90.771 L189.288,90.725 L189.346,90.681 L189.405,90.637 L189.465,90.593 L189.525,90.55 L189.586,90.508 L189.648,90.467 L189.71,90.426 L189.773,90.386 L189.836,90.347 L189.9,90.308 L189.959,90.274 L260.882,49.326 L260.942,49.293 L261.007,49.257 L261.072,49.222 L261.138,49.187 L261.204,49.154 L261.271,49.121 L261.338,49.089 L261.405,49.059 L261.472,49.029 L261.541,48.999 L261.609,48.971 L261.677,48.944 L261.746,48.917 L261.814,48.891 L261.884,48.866 L261.954,48.842 L262.023,48.819 L262.093,48.797 L262.164,48.775 L262.234,48.755 L262.304,48.736 L262.375,48.717 L262.447,48.699 L262.518,48.682 L262.589,48.666 L262.661,48.65 L262.732,48.636 L262.804,48.622 L262.877,48.61 L262.949,48.598 L263.021,48.587 L263.094,48.577 L263.166,48.568 L263.239,48.56 L263.312,48.552 L263.385,48.546 L263.458,48.54 L263.531,48.536 L263.604,48.532 L263.677,48.529 L263.75,48.527 L263.824,48.526 L263.897,48.526 L263.97,48.526 Z M263.841,50.526 L263.792,50.527 L263.744,50.528 L263.695,50.53 L263.646,50.532 L263.597,50.536 L263.549,50.539 L263.5,50.544 L263.452,50.548 L263.403,50.554 L263.355,50.56 L263.306,50.567 L263.258,50.574 L263.21,50.582 L263.162,50.59 L263.114,50.599 L263.066,50.609 L263.018,50.619 L262.971,50.63 L262.923,50.641 L262.876,50.653 L262.829,50.666 L262.782,50.679 L262.735,50.692 L262.688,50.707 L262.641,50.721 L262.595,50.737 L262.548,50.753 L262.502,50.769 L262.456,50.787 L262.41,50.804 L262.365,50.823 L262.319,50.842 L262.274,50.861 L262.229,50.881 L262.184,50.902 L262.14,50.923 L262.095,50.944 L262.051,50.967 L262.007,50.99 L261.963,51.013 L261.92,51.037 L261.877,51.062 L190.964,92.003 L190.921,92.028 L190.879,92.054 L190.837,92.08 L190.795,92.107 L190.753,92.134 L190.712,92.161 L190.672,92.189 L190.632,92.218 L190.592,92.247 L190.552,92.276 L190.513,92.306 L190.474,92.336 L190.436,92.367 L190.398,92.399 L190.361,92.43 L190.324,92.462 L190.287,92.495 L190.251,92.528 L190.215,92.561 L190.18,92.595 L190.145,92.629 L190.111,92.664 L190.077,92.699 L190.043,92.735 L190.01,92.77 L189.977,92.807 L189.945,92.843 L189.913,92.88 L189.882,92.918 L189.851,92.956 L189.821,92.994 L189.791,93.032 L189.761,93.071 L189.732,93.11 L189.704,93.15 L189.676,93.19 L189.648,93.23 L189.621,93.271 L189.595,93.312 L189.569,93.353 L189.543,93.395 L189.518,93.437 L189.493,93.479 L189.469,93.521 L189.446,93.564 L189.423,93.608 L189.4,93.651 L189.378,93.695 L189.357,93.739 L189.336,93.783 L189.315,93.828 L189.296,93.873 L189.276,93.918 L189.258,93.963 L189.239,94.009 L189.222,94.055 L189.205,94.101 L189.188,94.148 L189.172,94.195 L189.156,94.242 L189.142,94.289 L189.127,94.336 L189.114,94.384 L189.1,94.432 L189.088,94.48 L189.076,94.528 L189.065,94.577 L189.054,94.625 L189.044,94.673 L189.034,94.722 L189.025,94.77 L189.017,94.819 L189.009,94.868 L189.002,94.916 L188.996,94.965 L188.99,95.014 L188.985,95.063 L188.98,95.112 L188.976,95.16 L188.972,95.209 L188.97,95.258 L188.967,95.307 L188.966,95.356 L188.965,95.405 L188.964,95.454 L188.964,95.503 L188.965,95.552 L188.966,95.6 L188.968,95.649 L188.971,95.698 L188.974,95.747 L188.978,95.795 L188.982,95.844 L188.987,95.893 L188.992,95.941 L188.998,95.989 L189.005,96.038 L189.012,96.086 L189.02,96.134 L189.029,96.182 L189.038,96.23 L189.047,96.278 L189.057,96.326 L189.068,96.373 L189.079,96.421 L189.091,96.468 L189.104,96.515 L189.117,96.563 L189.131,96.61 L189.145,96.656 L189.16,96.703 L189.175,96.75 L189.191,96.796 L189.208,96.842 L189.225,96.888 L189.243,96.934 L189.261,96.979 L189.28,97.025 L189.299,97.07 L189.319,97.115 L189.34,97.16 L189.361,97.205 L189.383,97.249 L189.405,97.293 L189.428,97.337 L189.451,97.381 L189.475,97.424 L189.5,97.467 L210.583,133.985 L210.608,134.028 L210.634,134.07 L210.66,134.112 L210.687,134.154 L210.714,134.195 L210.741,134.236 L210.769,134.277 L210.798,134.317 L210.827,134.357 L210.856,134.397 L210.886,134.436 L210.917,134.474 L210.947,134.513 L210.979,134.55 L211.01,134.588 L211.043,134.625 L211.075,134.661 L211.108,134.698 L211.141,134.733 L211.175,134.769 L211.21,134.804 L211.244,134.838 L211.279,134.872 L211.315,134.906 L211.351,134.939 L211.387,134.972 L211.423,135.004 L211.461,135.036 L211.498,135.067 L211.536,135.098 L211.574,135.128 L211.612,135.158 L211.651,135.188 L211.691,135.217 L211.73,135.245 L211.77,135.273 L211.81,135.301 L211.851,135.328 L211.892,135.354 L211.933,135.38 L211.975,135.406 L212.017,135.431 L212.059,135.455 L212.102,135.48 L212.144,135.503 L212.188,135.526 L212.231,135.549 L212.275,135.571 L212.319,135.592 L212.363,135.613 L212.408,135.633 L212.453,135.653 L212.498,135.672 L212.544,135.691 L212.589,135.709 L212.635,135.727 L212.682,135.744 L212.728,135.761 L212.775,135.777 L212.822,135.792 L212.869,135.807 L212.917,135.822 L212.964,135.835 L213.012,135.848 L213.06,135.861 L213.108,135.873 L213.157,135.884 L213.205,135.895 L213.253,135.905 L213.302,135.915 L213.35,135.924 L213.399,135.932 L213.448,135.94 L213.496,135.947 L213.545,135.953 L213.594,135.959 L213.643,135.964 L213.692,135.969 L213.741,135.973 L213.79,135.976 L213.838,135.979 L213.887,135.982 L213.936,135.983 L213.985,135.984 L214.034,135.985 L214.083,135.985 L214.132,135.984 L214.181,135.982 L214.229,135.981 L214.278,135.978 L214.327,135.975 L214.376,135.971 L214.424,135.967 L214.473,135.962 L214.521,135.957 L214.57,135.95 L214.618,135.944 L214.666,135.937 L214.714,135.929 L214.762,135.92 L214.81,135.911 L214.858,135.902 L214.906,135.891 L214.954,135.881 L215.001,135.869 L215.048,135.857 L215.096,135.845 L215.143,135.832 L215.19,135.818 L215.237,135.804 L215.283,135.789 L215.33,135.774 L215.376,135.758 L215.422,135.741 L215.468,135.724 L215.514,135.706 L215.56,135.688 L215.605,135.669 L215.65,135.65 L215.695,135.63 L215.74,135.609 L215.785,135.588 L215.829,135.566 L215.873,135.544 L215.917,135.521 L215.961,135.497 L216.004,135.473 L216.047,135.449 L286.96,94.507 L287.003,94.482 L287.046,94.457 L287.088,94.43 L287.129,94.404 L287.171,94.377 L287.212,94.349 L287.253,94.321 L287.293,94.293 L287.333,94.264 L287.372,94.234 L287.411,94.204 L287.45,94.174 L287.488,94.143 L287.526,94.112 L287.563,94.08 L287.6,94.048 L287.637,94.016 L287.673,93.983 L287.709,93.949 L287.744,93.915 L287.779,93.881 L287.814,93.846 L287.848,93.811 L287.881,93.776 L287.914,93.74 L287.947,93.704 L287.979,93.667 L288.011,93.63 L288.042,93.593 L288.073,93.555 L288.104,93.517 L288.134,93.478 L288.163,93.439 L288.192,93.4 L288.221,93.361 L288.249,93.321 L288.276,93.28 L288.303,93.24 L288.33,93.199 L288.356,93.157 L288.381,93.116 L288.406,93.074 L288.431,93.032 L288.455,92.989 L288.479,92.946 L288.502,92.903 L288.524,92.859 L288.546,92.816 L288.567,92.772 L288.588,92.727 L288.609,92.683 L288.629,92.638 L288.648,92.592 L288.667,92.547 L288.685,92.501 L288.703,92.455 L288.72,92.409 L288.736,92.363 L288.752,92.316 L288.768,92.269 L288.783,92.222 L288.797,92.174 L288.811,92.126 L288.824,92.078 L288.836,92.03 L288.848,91.982 L288.86,91.934 L288.87,91.886 L288.881,91.837 L288.89,91.789 L288.899,91.74 L288.907,91.692 L288.915,91.643 L288.922,91.594 L288.929,91.545 L288.934,91.497 L288.94,91.448 L288.944,91.399 L288.948,91.35 L288.952,91.301 L288.955,91.252 L288.957,91.203 L288.959,91.154 L288.96,91.105 L288.96,91.057 L288.96,91.008 L288.959,90.959 L288.958,90.91 L288.956,90.861 L288.954,90.812 L288.95,90.764 L288.947,90.715 L288.942,90.667 L288.938,90.618 L288.932,90.57 L288.926,90.521 L288.919,90.473 L288.912,90.425 L288.904,90.376 L288.896,90.328 L288.887,90.28 L288.877,90.233 L288.867,90.185 L288.856,90.137 L288.845,90.09 L288.833,90.042 L288.82,89.995 L288.807,89.948 L288.794,89.901 L288.779,89.854 L288.765,89.807 L288.749,89.761 L288.733,89.715 L288.717,89.668 L288.699,89.622 L288.682,89.577 L288.663,89.531 L288.644,89.486 L288.625,89.44 L288.605,89.395 L288.584,89.351 L288.563,89.306 L288.542,89.262 L288.519,89.217 L288.496,89.174 L288.473,89.13 L288.449,89.086 L288.424,89.043 L267.341,52.526 L267.316,52.483 L267.29,52.44 L267.264,52.398 L267.238,52.356 L267.21,52.315 L267.183,52.274 L267.155,52.233 L267.126,52.193 L267.097,52.153 L267.068,52.114 L267.038,52.075 L267.008,52.036 L266.977,51.998 L266.946,51.96 L266.914,51.923 L266.882,51.886 L266.849,51.849 L266.816,51.813 L266.783,51.777 L266.749,51.742 L266.715,51.707 L266.68,51.672 L266.645,51.638 L266.61,51.605 L266.574,51.572 L266.537,51.539 L266.501,51.507 L266.464,51.475 L266.426,51.444 L266.389,51.413 L266.35,51.382 L266.312,51.352 L266.273,51.323 L266.234,51.294 L266.194,51.265 L266.154,51.237 L266.114,51.21 L266.073,51.183 L266.032,51.156 L265.991,51.13 L265.949,51.105 L265.908,51.08 L265.865,51.055 L265.823,51.031 L265.78,51.007 L265.737,50.984 L265.693,50.962 L265.649,50.94 L265.605,50.918 L265.561,50.898 L265.516,50.877 L265.471,50.857 L265.426,50.838 L265.381,50.819 L265.335,50.801 L265.289,50.783 L265.243,50.766 L265.196,50.75 L265.149,50.734 L265.102,50.718 L265.055,50.703 L265.008,50.689 L264.96,50.675 L264.912,50.662 L264.864,50.65 L264.816,50.638 L264.768,50.626 L264.719,50.616 L264.671,50.605 L264.622,50.596 L264.574,50.587 L264.525,50.579 L264.477,50.571 L264.428,50.564 L264.379,50.557 L264.33,50.552 L264.281,50.546 L264.233,50.542 L264.184,50.538 L264.135,50.534 L264.086,50.531 L264.037,50.529 L263.988,50.527 L263.939,50.526 L263.89,50.526 L263.841,50.526 Z" id="Fill-4" fill="#E2EEEF"></path>
                <polygon id="Fill-5" fill="#E2EFF0" points="232.759 75.496 213.619 86.547 215.64 90.047 234.78 78.997"></polygon>
                <path d="M208.423,89.547 L198.59,95.224 C198.253,95.419 198.138,95.849 198.332,96.186 L204.01,106.02 C204.204,106.356 204.635,106.472 204.972,106.277 L214.805,100.6 C215.142,100.405 215.257,99.975 215.062,99.638 L209.385,89.805 C209.191,89.468 208.76,89.353 208.423,89.547 L208.423,89.547 Z" id="Fill-6" fill="#78BDC2"></path>
                <polygon id="Fill-7" fill="#E2EFF0" points="268.662 83.722 210.518 117.292 212.538 120.792 270.683 87.222"></polygon>
                <polygon id="Fill-8" fill="#E2EFF0" points="265.06 77.687 207.004 111.206 209.025 114.706 267.081 81.187"></polygon>
                <polygon id="Fill-9" fill="#E2EFF0" points="257.119 98.5 214.031 123.377 216.052 126.877 259.14 102.001"></polygon>
                <path d="M191.149,119.906 C190.543,117.782 188.33,116.551 186.205,117.157 C180.047,118.913 168.045,122.336 161.887,124.092 C159.763,124.698 158.532,126.911 159.138,129.036 C160.933,135.332 164.479,147.764 166.275,154.06 C166.881,156.185 169.094,157.416 171.218,156.81 C177.376,155.053 189.379,151.63 195.536,149.874 C197.661,149.268 198.892,147.055 198.286,144.93 C196.49,138.635 192.945,126.202 191.149,119.906 L191.149,119.906 Z" id="Fill-10" fill="#FFFFFF"></path>
                <path d="M187.372,115.003 L187.446,115.004 L187.52,115.006 L187.594,115.009 L187.667,115.013 L187.741,115.018 L187.814,115.024 L187.887,115.031 L187.96,115.038 L188.033,115.047 L188.106,115.056 L188.178,115.066 L188.25,115.078 L188.322,115.09 L188.394,115.102 L188.465,115.116 L188.536,115.131 L188.607,115.146 L188.678,115.162 L188.749,115.179 L188.819,115.197 L188.889,115.216 L188.958,115.236 L189.028,115.256 L189.096,115.277 L189.165,115.299 L189.234,115.322 L189.302,115.346 L189.37,115.37 L189.438,115.396 L189.504,115.422 L189.571,115.448 L189.638,115.476 L189.704,115.505 L189.77,115.534 L189.835,115.564 L189.899,115.594 L189.964,115.626 L190.029,115.658 L190.092,115.691 L190.156,115.725 L190.219,115.76 L190.281,115.795 L190.343,115.831 L190.406,115.868 L190.467,115.905 L190.527,115.943 L190.587,115.982 L190.648,116.022 L190.707,116.063 L190.766,116.104 L190.825,116.146 L190.882,116.188 L190.94,116.231 L190.997,116.276 L191.054,116.32 L191.11,116.366 L191.165,116.412 L191.22,116.459 L191.275,116.506 L191.329,116.554 L191.382,116.603 L191.435,116.652 L191.487,116.702 L191.539,116.754 L191.59,116.805 L191.641,116.857 L191.691,116.91 L191.74,116.963 L191.788,117.018 L191.836,117.072 L191.884,117.128 L191.931,117.184 L191.978,117.241 L192.023,117.298 L192.068,117.356 L192.112,117.415 L192.156,117.474 L192.198,117.533 L192.241,117.594 L192.283,117.656 L192.323,117.716 L192.363,117.778 L192.403,117.842 L192.442,117.905 L192.48,117.969 L192.517,118.033 L192.553,118.099 L192.589,118.164 L192.624,118.231 L192.658,118.297 L192.691,118.364 L192.724,118.432 L192.756,118.5 L192.787,118.569 L192.817,118.639 L192.847,118.708 L192.875,118.778 L192.903,118.849 L192.93,118.921 L192.956,118.992 L192.981,119.064 L193.005,119.137 L193.028,119.21 L193.051,119.283 L193.07,119.351 L200.211,144.388 L200.23,144.457 L200.25,144.53 L200.268,144.604 L200.286,144.68 L200.303,144.754 L200.318,144.828 L200.333,144.903 L200.347,144.978 L200.36,145.052 L200.372,145.127 L200.383,145.202 L200.393,145.278 L200.402,145.352 L200.41,145.426 L200.417,145.502 L200.423,145.576 L200.428,145.65 L200.433,145.725 L200.436,145.8 L200.438,145.875 L200.44,145.949 L200.44,146.023 L200.44,146.097 L200.439,146.171 L200.437,146.245 L200.433,146.319 L200.429,146.392 L200.424,146.466 L200.419,146.54 L200.412,146.613 L200.404,146.685 L200.396,146.757 L200.386,146.83 L200.376,146.903 L200.365,146.976 L200.353,147.047 L200.34,147.119 L200.327,147.19 L200.312,147.261 L200.296,147.333 L200.28,147.403 L200.263,147.474 L200.245,147.544 L200.227,147.613 L200.207,147.683 L200.186,147.753 L200.165,147.823 L200.143,147.891 L200.12,147.959 L200.097,148.027 L200.072,148.094 L200.047,148.163 L200.021,148.23 L199.994,148.296 L199.967,148.362 L199.938,148.43 L199.909,148.495 L199.879,148.56 L199.848,148.625 L199.817,148.689 L199.784,148.754 L199.751,148.818 L199.718,148.881 L199.683,148.944 L199.648,149.007 L199.611,149.069 L199.575,149.13 L199.537,149.192 L199.498,149.253 L199.46,149.312 L199.42,149.373 L199.379,149.433 L199.339,149.491 L199.298,149.549 L199.254,149.608 L199.211,149.665 L199.167,149.722 L199.122,149.779 L199.077,149.835 L199.031,149.89 L198.985,149.945 L198.936,150 L198.888,150.054 L198.84,150.107 L198.79,150.16 L198.74,150.212 L198.689,150.264 L198.637,150.315 L198.586,150.365 L198.533,150.416 L198.479,150.465 L198.425,150.513 L198.37,150.562 L198.314,150.61 L198.259,150.656 L198.202,150.703 L198.144,150.748 L198.086,150.793 L198.028,150.837 L197.969,150.881 L197.909,150.924 L197.849,150.966 L197.787,151.008 L197.726,151.049 L197.664,151.089 L197.601,151.128 L197.537,151.167 L197.474,151.205 L197.409,151.242 L197.344,151.279 L197.278,151.314 L197.212,151.349 L197.146,151.383 L197.078,151.417 L197.011,151.449 L196.942,151.481 L196.873,151.512 L196.805,151.542 L196.734,151.572 L196.663,151.6 L196.593,151.628 L196.522,151.655 L196.45,151.681 L196.378,151.706 L196.306,151.73 L196.232,151.753 L196.158,151.776 L196.091,151.796 L171.761,158.735 L171.693,158.754 L171.618,158.773 L171.544,158.792 L171.47,158.81 L171.395,158.827 L171.32,158.842 L171.246,158.857 L171.171,158.871 L171.096,158.884 L171.021,158.896 L170.946,158.907 L170.872,158.917 L170.797,158.926 L170.722,158.934 L170.647,158.941 L170.573,158.947 L170.498,158.952 L170.423,158.956 L170.349,158.96 L170.274,158.962 L170.2,158.964 L170.126,158.964 L170.052,158.964 L169.978,158.962 L169.904,158.96 L169.83,158.957 L169.756,158.953 L169.683,158.948 L169.61,158.942 L169.536,158.936 L169.463,158.928 L169.391,158.92 L169.318,158.91 L169.246,158.9 L169.174,158.889 L169.102,158.877 L169.03,158.864 L168.958,158.85 L168.887,158.836 L168.816,158.82 L168.746,158.804 L168.675,158.787 L168.605,158.769 L168.535,158.75 L168.465,158.731 L168.396,158.71 L168.327,158.689 L168.258,158.667 L168.189,158.644 L168.122,158.62 L168.054,158.596 L167.987,158.571 L167.919,158.545 L167.852,158.518 L167.786,158.49 L167.72,158.462 L167.654,158.432 L167.589,158.402 L167.524,158.372 L167.46,158.34 L167.395,158.308 L167.331,158.275 L167.268,158.242 L167.205,158.207 L167.142,158.171 L167.08,158.135 L167.019,158.099 L166.957,158.061 L166.896,158.023 L166.836,157.984 L166.776,157.944 L166.717,157.904 L166.658,157.863 L166.599,157.821 L166.541,157.778 L166.483,157.735 L166.426,157.691 L166.37,157.646 L166.314,157.601 L166.259,157.555 L166.204,157.508 L166.149,157.46 L166.095,157.412 L166.041,157.363 L165.988,157.313 L165.937,157.264 L165.885,157.213 L165.834,157.162 L165.783,157.109 L165.733,157.056 L165.684,157.003 L165.635,156.949 L165.586,156.893 L165.539,156.838 L165.493,156.783 L165.446,156.725 L165.4,156.668 L165.356,156.611 L165.312,156.552 L165.268,156.493 L165.225,156.432 L165.182,156.372 L165.141,156.311 L165.1,156.25 L165.06,156.188 L165.02,156.125 L164.982,156.061 L164.944,155.998 L164.907,155.933 L164.87,155.868 L164.835,155.802 L164.799,155.735 L164.765,155.669 L164.732,155.603 L164.699,155.535 L164.668,155.466 L164.637,155.397 L164.607,155.328 L164.577,155.258 L164.548,155.187 L164.521,155.117 L164.494,155.046 L164.468,154.974 L164.443,154.902 L164.419,154.83 L164.396,154.757 L164.373,154.683 L164.353,154.615 L157.213,129.578 L157.194,129.511 L157.174,129.436 L157.155,129.361 L157.138,129.288 L157.121,129.212 L157.105,129.138 L157.09,129.064 L157.076,128.988 L157.063,128.913 L157.052,128.839 L157.041,128.764 L157.031,128.689 L157.022,128.614 L157.014,128.54 L157.007,128.466 L157,128.39 L156.995,128.315 L156.991,128.241 L156.988,128.166 L156.985,128.092 L156.984,128.017 L156.983,127.944 L156.984,127.869 L156.985,127.796 L156.987,127.722 L156.99,127.648 L156.994,127.573 L156.999,127.5 L157.005,127.428 L157.012,127.355 L157.019,127.281 L157.028,127.208 L157.037,127.136 L157.047,127.063 L157.059,126.992 L157.07,126.92 L157.084,126.847 L157.097,126.775 L157.111,126.706 L157.127,126.634 L157.143,126.563 L157.16,126.492 L157.178,126.422 L157.197,126.353 L157.217,126.283 L157.237,126.213 L157.258,126.145 L157.28,126.075 L157.304,126.006 L157.327,125.94 L157.351,125.872 L157.377,125.803 L157.403,125.736 L157.429,125.671 L157.457,125.604 L157.486,125.538 L157.515,125.472 L157.545,125.406 L157.576,125.341 L157.607,125.277 L157.639,125.212 L157.672,125.149 L157.706,125.085 L157.741,125.022 L157.776,124.96 L157.812,124.898 L157.848,124.837 L157.886,124.775 L157.924,124.714 L157.964,124.653 L158.003,124.594 L158.043,124.535 L158.085,124.475 L158.127,124.416 L158.169,124.359 L158.212,124.301 L158.257,124.244 L158.301,124.187 L158.346,124.132 L158.393,124.076 L158.44,124.021 L158.487,123.966 L158.535,123.912 L158.584,123.859 L158.633,123.806 L158.683,123.754 L158.735,123.702 L158.786,123.652 L158.838,123.601 L158.892,123.55 L158.945,123.501 L158.998,123.453 L159.053,123.405 L159.109,123.357 L159.165,123.31 L159.221,123.264 L159.279,123.218 L159.337,123.173 L159.396,123.129 L159.455,123.085 L159.514,123.043 L159.575,123 L159.636,122.958 L159.697,122.918 L159.76,122.878 L159.823,122.838 L159.886,122.799 L159.95,122.761 L160.014,122.724 L160.079,122.688 L160.145,122.652 L160.211,122.617 L160.278,122.583 L160.345,122.549 L160.413,122.517 L160.481,122.485 L160.55,122.454 L160.619,122.424 L160.689,122.395 L160.759,122.366 L160.83,122.339 L160.902,122.311 L160.973,122.286 L161.045,122.261 L161.118,122.236 L161.191,122.213 L161.265,122.19 L161.333,122.171 L185.663,115.232 L185.731,115.213 L185.805,115.193 L185.879,115.174 L185.954,115.157 L186.029,115.14 L186.103,115.124 L186.178,115.109 L186.253,115.095 L186.328,115.083 L186.402,115.071 L186.477,115.06 L186.552,115.05 L186.626,115.041 L186.702,115.033 L186.776,115.026 L186.851,115.019 L186.926,115.014 L187,115.01 L187.074,115.007 L187.149,115.004 L187.224,115.003 L187.298,115.002 L187.372,115.003 Z M187.251,117.003 L187.201,117.004 L187.152,117.005 L187.102,117.007 L187.052,117.01 L187.003,117.014 L186.953,117.018 L186.903,117.023 L186.854,117.028 L186.804,117.034 L186.754,117.041 L186.704,117.048 L186.654,117.056 L186.604,117.064 L186.554,117.074 L186.504,117.083 L186.455,117.094 L186.405,117.105 L186.355,117.117 L186.305,117.13 L186.255,117.143 L186.205,117.157 L161.887,124.092 L161.838,124.107 L161.788,124.122 L161.739,124.137 L161.691,124.154 L161.642,124.17 L161.594,124.188 L161.547,124.206 L161.5,124.224 L161.453,124.243 L161.406,124.263 L161.36,124.283 L161.314,124.304 L161.269,124.325 L161.223,124.346 L161.179,124.369 L161.134,124.391 L161.09,124.415 L161.047,124.438 L161.003,124.463 L160.96,124.487 L160.918,124.513 L160.876,124.538 L160.834,124.565 L160.793,124.591 L160.752,124.619 L160.711,124.646 L160.671,124.674 L160.631,124.703 L160.592,124.732 L160.553,124.761 L160.514,124.791 L160.476,124.822 L160.438,124.852 L160.401,124.883 L160.364,124.915 L160.328,124.947 L160.292,124.98 L160.256,125.012 L160.221,125.046 L160.186,125.079 L160.152,125.113 L160.118,125.148 L160.084,125.183 L160.051,125.218 L160.019,125.254 L159.987,125.289 L159.955,125.326 L159.924,125.363 L159.893,125.4 L159.863,125.437 L159.833,125.475 L159.804,125.513 L159.775,125.551 L159.746,125.59 L159.718,125.629 L159.691,125.668 L159.664,125.708 L159.637,125.748 L159.611,125.788 L159.586,125.829 L159.561,125.87 L159.536,125.911 L159.512,125.953 L159.489,125.995 L159.465,126.037 L159.443,126.079 L159.421,126.122 L159.399,126.164 L159.378,126.208 L159.358,126.251 L159.338,126.295 L159.318,126.339 L159.299,126.383 L159.281,126.427 L159.263,126.472 L159.245,126.516 L159.229,126.561 L159.212,126.607 L159.196,126.652 L159.181,126.698 L159.167,126.744 L159.152,126.79 L159.139,126.836 L159.126,126.882 L159.113,126.929 L159.101,126.976 L159.09,127.023 L159.079,127.07 L159.069,127.117 L159.059,127.165 L159.05,127.212 L159.041,127.26 L159.033,127.308 L159.026,127.356 L159.019,127.404 L159.013,127.452 L159.007,127.501 L159.002,127.549 L158.998,127.598 L158.994,127.647 L158.991,127.696 L158.988,127.745 L158.986,127.794 L158.984,127.843 L158.983,127.892 L158.983,127.941 L158.984,127.991 L158.985,128.04 L158.986,128.09 L158.988,128.139 L158.991,128.189 L158.995,128.238 L158.999,128.288 L159.004,128.338 L159.009,128.388 L159.015,128.437 L159.022,128.487 L159.029,128.537 L159.037,128.587 L159.045,128.637 L159.055,128.687 L159.064,128.737 L159.075,128.787 L159.086,128.836 L159.098,128.886 L159.111,128.936 L159.124,128.986 L159.138,129.036 L166.275,154.06 L166.289,154.11 L166.304,154.159 L166.32,154.208 L166.336,154.257 L166.353,154.305 L166.37,154.353 L166.388,154.401 L166.407,154.448 L166.426,154.495 L166.445,154.541 L166.465,154.587 L166.486,154.633 L166.507,154.679 L166.529,154.724 L166.551,154.769 L166.574,154.813 L166.597,154.857 L166.621,154.901 L166.645,154.944 L166.67,154.987 L166.695,155.029 L166.721,155.072 L166.747,155.113 L166.774,155.155 L166.801,155.196 L166.829,155.236 L166.857,155.276 L166.885,155.316 L166.914,155.356 L166.944,155.395 L166.974,155.433 L167.004,155.471 L167.035,155.509 L167.066,155.546 L167.098,155.583 L167.13,155.62 L167.162,155.656 L167.195,155.691 L167.228,155.727 L167.262,155.761 L167.296,155.796 L167.33,155.829 L167.365,155.863 L167.4,155.896 L167.436,155.928 L167.472,155.961 L167.508,155.992 L167.545,156.023 L167.582,156.054 L167.619,156.085 L167.657,156.114 L167.695,156.144 L167.734,156.173 L167.772,156.201 L167.811,156.229 L167.851,156.256 L167.891,156.283 L167.931,156.31 L167.971,156.336 L168.012,156.362 L168.052,156.387 L168.094,156.411 L168.135,156.435 L168.177,156.459 L168.219,156.482 L168.261,156.504 L168.304,156.527 L168.347,156.548 L168.39,156.569 L168.433,156.59 L168.477,156.61 L168.521,156.629 L168.565,156.648 L168.609,156.667 L168.654,156.685 L168.699,156.702 L168.744,156.719 L168.789,156.735 L168.835,156.751 L168.88,156.766 L168.926,156.781 L168.972,156.795 L169.018,156.809 L169.065,156.822 L169.111,156.834 L169.158,156.846 L169.205,156.858 L169.252,156.868 L169.3,156.879 L169.347,156.888 L169.395,156.897 L169.442,156.906 L169.49,156.914 L169.538,156.921 L169.587,156.928 L169.635,156.934 L169.683,156.94 L169.732,156.945 L169.78,156.95 L169.829,156.954 L169.878,156.957 L169.927,156.959 L169.976,156.962 L170.025,156.963 L170.074,156.964 L170.124,156.964 L170.173,156.964 L170.222,156.963 L170.272,156.961 L170.322,156.959 L170.371,156.956 L170.421,156.953 L170.471,156.949 L170.52,156.944 L170.57,156.938 L170.62,156.932 L170.67,156.926 L170.72,156.919 L170.769,156.911 L170.819,156.902 L170.869,156.893 L170.919,156.883 L170.969,156.872 L171.019,156.861 L171.069,156.849 L171.119,156.837 L171.169,156.824 L171.218,156.81 L195.536,149.874 L195.586,149.86 L195.635,149.845 L195.684,149.829 L195.733,149.813 L195.781,149.796 L195.829,149.779 L195.877,149.761 L195.924,149.742 L195.971,149.723 L196.017,149.704 L196.064,149.683 L196.11,149.663 L196.155,149.642 L196.2,149.62 L196.245,149.598 L196.289,149.575 L196.333,149.552 L196.377,149.528 L196.42,149.504 L196.463,149.479 L196.506,149.454 L196.548,149.428 L196.59,149.402 L196.631,149.375 L196.672,149.348 L196.712,149.32 L196.753,149.292 L196.792,149.264 L196.832,149.235 L196.871,149.205 L196.909,149.175 L196.947,149.145 L196.985,149.114 L197.022,149.083 L197.059,149.051 L197.096,149.019 L197.132,148.987 L197.168,148.954 L197.203,148.921 L197.237,148.887 L197.272,148.853 L197.306,148.818 L197.339,148.784 L197.372,148.748 L197.405,148.713 L197.437,148.677 L197.468,148.641 L197.5,148.604 L197.53,148.567 L197.561,148.529 L197.591,148.492 L197.62,148.454 L197.649,148.415 L197.677,148.376 L197.705,148.337 L197.733,148.298 L197.76,148.258 L197.786,148.218 L197.812,148.178 L197.838,148.137 L197.863,148.096 L197.887,148.055 L197.911,148.014 L197.935,147.972 L197.958,147.93 L197.981,147.887 L198.003,147.845 L198.024,147.802 L198.045,147.759 L198.066,147.715 L198.086,147.672 L198.105,147.628 L198.124,147.584 L198.143,147.539 L198.161,147.495 L198.178,147.45 L198.195,147.405 L198.211,147.36 L198.227,147.314 L198.242,147.269 L198.257,147.223 L198.271,147.177 L198.285,147.13 L198.298,147.084 L198.31,147.037 L198.322,146.99 L198.334,146.944 L198.345,146.896 L198.355,146.849 L198.365,146.802 L198.374,146.754 L198.382,146.706 L198.39,146.658 L198.398,146.61 L198.404,146.562 L198.411,146.514 L198.416,146.466 L198.421,146.417 L198.426,146.368 L198.43,146.32 L198.433,146.271 L198.436,146.222 L198.438,146.173 L198.439,146.124 L198.44,146.074 L198.44,146.025 L198.44,145.976 L198.439,145.926 L198.437,145.877 L198.435,145.827 L198.432,145.778 L198.429,145.728 L198.425,145.678 L198.42,145.629 L198.415,145.579 L198.409,145.529 L198.402,145.479 L198.395,145.429 L198.387,145.379 L198.378,145.329 L198.369,145.28 L198.359,145.23 L198.349,145.18 L198.337,145.13 L198.326,145.08 L198.313,145.03 L198.3,144.98 L198.286,144.93 L191.149,119.906 L191.134,119.857 L191.119,119.807 L191.104,119.758 L191.087,119.71 L191.071,119.661 L191.053,119.613 L191.035,119.566 L191.017,119.519 L190.998,119.472 L190.978,119.425 L190.958,119.379 L190.938,119.333 L190.916,119.288 L190.895,119.242 L190.872,119.198 L190.85,119.153 L190.826,119.109 L190.803,119.066 L190.778,119.022 L190.754,118.979 L190.728,118.937 L190.703,118.895 L190.676,118.853 L190.65,118.812 L190.623,118.771 L190.595,118.73 L190.567,118.69 L190.538,118.65 L190.509,118.611 L190.48,118.572 L190.45,118.533 L190.42,118.495 L190.389,118.457 L190.358,118.42 L190.326,118.383 L190.294,118.347 L190.262,118.311 L190.229,118.275 L190.195,118.24 L190.162,118.205 L190.128,118.171 L190.093,118.137 L190.058,118.103 L190.023,118.07 L189.988,118.038 L189.952,118.006 L189.915,117.974 L189.879,117.943 L189.842,117.912 L189.804,117.882 L189.766,117.852 L189.728,117.823 L189.69,117.794 L189.651,117.765 L189.612,117.737 L189.573,117.71 L189.533,117.683 L189.493,117.656 L189.453,117.63 L189.412,117.605 L189.371,117.58 L189.33,117.555 L189.288,117.531 L189.247,117.508 L189.204,117.484 L189.162,117.462 L189.12,117.44 L189.077,117.418 L189.033,117.397 L188.99,117.377 L188.946,117.357 L188.903,117.337 L188.858,117.318 L188.814,117.3 L188.77,117.282 L188.725,117.264 L188.68,117.248 L188.634,117.231 L188.589,117.215 L188.543,117.2 L188.497,117.185 L188.451,117.171 L188.405,117.158 L188.359,117.145 L188.312,117.132 L188.265,117.12 L188.218,117.109 L188.171,117.098 L188.124,117.088 L188.076,117.078 L188.029,117.069 L187.981,117.06 L187.933,117.052 L187.885,117.045 L187.837,117.038 L187.789,117.032 L187.74,117.026 L187.692,117.021 L187.643,117.017 L187.594,117.013 L187.546,117.01 L187.497,117.007 L187.448,117.005 L187.398,117.003 L187.349,117.002 L187.3,117.002 L187.251,117.003 Z" id="Fill-11" fill="#E2EEEF"></path>
                <path d="M169.245,139.284 L173.404,138.098 C173.732,138.004 174.074,138.193 174.168,138.523 L176.892,148.073 C176.986,148.401 176.797,148.743 176.467,148.837 L172.308,150.024 C171.98,150.117 171.638,149.929 171.544,149.599 L168.819,140.046 C168.728,139.717 168.917,139.377 169.245,139.284 L169.245,139.284 Z M177.875,146.009 L175.924,139.166 C175.446,137.48 175.446,135.696 175.927,134.011 C176.222,132.99 177.04,131.256 177.516,130.344 C177.621,130.139 177.751,128.37 177.478,127.366 C177.305,126.729 177.672,126.06 178.309,125.884 L178.336,125.876 C179.453,125.579 180.101,126.506 180.101,126.506 C180.101,126.506 181.586,128.109 181.353,130.655 C181.157,132.806 181.048,133.006 181.048,133.006 C181.048,133.006 180.906,133.425 181.668,133.191 C181.668,133.191 186.338,131.838 186.499,131.792 C186.844,131.693 188.035,131.694 188.372,133.115 C188.623,134.166 189.744,141.357 189.92,142.029 C190.013,142.384 189.968,142.674 189.871,142.901 C189.72,143.257 189.395,143.513 189.023,143.622 L178.654,146.601 C178.651,146.599 178.09,146.762 177.875,146.009 L177.875,146.009 Z" id="Fill-12" fill="#78BDC2"></path>
                <path d="M164.083,94.579 C164.083,89.709 162.148,85.038 158.704,81.594 C155.26,78.15 150.589,76.215 145.719,76.215 L144.403,76.215 C139.533,76.215 134.862,78.15 131.418,81.594 C127.974,85.038 126.039,89.709 126.039,94.579 L126.039,94.58 C126.039,99.451 127.974,104.122 131.418,107.566 C134.862,111.01 139.533,112.944 144.403,112.944 L145.719,112.944 C150.589,112.944 155.26,111.01 158.704,107.566 C162.148,104.122 164.083,99.451 164.083,94.58 L164.083,94.579 L164.083,94.579 Z" id="Fill-13" fill="#FFFFFF"></path>
                <path d="M145.845,74.215 L145.972,74.217 L146.098,74.219 L146.225,74.221 L146.351,74.225 L146.477,74.229 L146.603,74.234 L146.729,74.24 L146.855,74.247 L146.98,74.254 L147.106,74.262 L147.231,74.271 L147.357,74.281 L147.482,74.291 L147.607,74.303 L147.732,74.315 L147.857,74.327 L147.981,74.341 L148.106,74.355 L148.23,74.37 L148.354,74.386 L148.478,74.403 L148.602,74.42 L148.726,74.438 L148.85,74.457 L148.973,74.477 L149.097,74.497 L149.22,74.518 L149.343,74.54 L149.465,74.563 L149.588,74.586 L149.71,74.61 L149.833,74.635 L149.955,74.66 L150.077,74.687 L150.198,74.714 L150.32,74.741 L150.441,74.77 L150.562,74.799 L150.683,74.829 L150.803,74.86 L150.924,74.891 L151.044,74.924 L151.164,74.956 L151.284,74.99 L151.403,75.024 L151.523,75.059 L151.642,75.095 L151.76,75.132 L151.879,75.169 L151.997,75.207 L152.115,75.246 L152.233,75.285 L152.351,75.325 L152.468,75.366 L152.585,75.407 L152.702,75.45 L152.819,75.493 L152.935,75.536 L153.051,75.581 L153.167,75.626 L153.282,75.671 L153.397,75.718 L153.512,75.765 L153.627,75.813 L153.741,75.862 L153.855,75.911 L153.968,75.961 L154.082,76.011 L154.195,76.063 L154.308,76.115 L154.42,76.168 L154.532,76.221 L154.644,76.275 L154.756,76.33 L154.867,76.385 L154.978,76.441 L155.088,76.498 L155.198,76.556 L155.308,76.614 L155.418,76.673 L155.527,76.732 L155.636,76.793 L155.744,76.853 L155.852,76.915 L155.96,76.977 L156.067,77.04 L156.174,77.104 L156.281,77.168 L156.387,77.233 L156.493,77.299 L156.599,77.365 L156.704,77.432 L156.808,77.499 L156.913,77.568 L157.017,77.636 L157.121,77.706 L157.224,77.776 L157.326,77.847 L157.429,77.919 L157.531,77.991 L157.633,78.063 L157.734,78.137 L157.834,78.211 L157.935,78.286 L158.035,78.361 L158.134,78.437 L158.233,78.514 L158.331,78.591 L158.43,78.669 L158.528,78.748 L158.625,78.827 L158.722,78.907 L158.818,78.987 L158.914,79.068 L159.01,79.15 L159.105,79.232 L159.199,79.315 L159.293,79.399 L159.387,79.483 L159.48,79.568 L159.573,79.653 L159.665,79.739 L159.756,79.826 L159.848,79.914 L159.939,80.002 L160.029,80.09 L160.118,80.179 L160.208,80.269 L160.296,80.359 L160.384,80.45 L160.472,80.541 L160.558,80.633 L160.645,80.725 L160.73,80.818 L160.815,80.911 L160.899,81.005 L160.983,81.099 L161.066,81.194 L161.148,81.289 L161.23,81.384 L161.311,81.48 L161.391,81.576 L161.471,81.673 L161.55,81.77 L161.629,81.868 L161.707,81.966 L161.784,82.065 L161.861,82.164 L161.937,82.263 L162.012,82.363 L162.087,82.464 L162.161,82.564 L162.235,82.665 L162.308,82.767 L162.38,82.869 L162.451,82.971 L162.522,83.074 L162.592,83.178 L162.662,83.281 L162.73,83.385 L162.799,83.489 L162.866,83.594 L162.933,83.699 L162.999,83.805 L163.065,83.911 L163.13,84.017 L163.194,84.123 L163.258,84.231 L163.321,84.338 L163.383,84.446 L163.444,84.554 L163.505,84.662 L163.566,84.771 L163.625,84.881 L163.684,84.99 L163.742,85.099 L163.8,85.21 L163.857,85.32 L163.913,85.431 L163.968,85.542 L164.023,85.654 L164.077,85.766 L164.13,85.878 L164.183,85.99 L164.235,86.103 L164.287,86.216 L164.337,86.33 L164.387,86.443 L164.437,86.557 L164.485,86.671 L164.533,86.786 L164.58,86.901 L164.627,87.016 L164.672,87.131 L164.717,87.247 L164.762,87.363 L164.805,87.479 L164.848,87.596 L164.891,87.713 L164.932,87.83 L164.973,87.947 L165.013,88.065 L165.052,88.183 L165.091,88.301 L165.129,88.419 L165.166,88.538 L165.203,88.656 L165.239,88.776 L165.274,88.895 L165.308,89.014 L165.342,89.134 L165.375,89.254 L165.407,89.374 L165.438,89.495 L165.469,89.615 L165.499,89.736 L165.528,89.857 L165.557,89.978 L165.584,90.1 L165.611,90.221 L165.638,90.343 L165.663,90.466 L165.688,90.588 L165.712,90.71 L165.735,90.832 L165.758,90.955 L165.78,91.079 L165.801,91.201 L165.821,91.325 L165.841,91.448 L165.86,91.572 L165.878,91.695 L165.895,91.82 L165.912,91.944 L165.928,92.068 L165.943,92.192 L165.957,92.317 L165.971,92.442 L165.983,92.566 L165.995,92.691 L166.007,92.816 L166.017,92.941 L166.027,93.067 L166.036,93.193 L166.044,93.318 L166.051,93.443 L166.058,93.57 L166.064,93.695 L166.069,93.821 L166.073,93.947 L166.077,94.073 L166.079,94.2 L166.081,94.326 L166.083,94.452 L166.083,94.576 L166.083,94.583 L166.083,94.707 L166.081,94.834 L166.079,94.959 L166.077,95.086 L166.073,95.212 L166.069,95.338 L166.064,95.464 L166.058,95.59 L166.051,95.716 L166.044,95.842 L166.036,95.967 L166.027,96.092 L166.017,96.218 L166.007,96.343 L165.995,96.468 L165.983,96.593 L165.971,96.718 L165.957,96.842 L165.943,96.967 L165.928,97.092 L165.912,97.215 L165.895,97.339 L165.878,97.464 L165.86,97.588 L165.841,97.711 L165.821,97.835 L165.801,97.958 L165.78,98.081 L165.758,98.204 L165.735,98.327 L165.712,98.449 L165.688,98.572 L165.663,98.694 L165.638,98.816 L165.611,98.938 L165.584,99.059 L165.557,99.181 L165.528,99.302 L165.499,99.423 L165.469,99.544 L165.438,99.665 L165.407,99.785 L165.375,99.905 L165.342,100.026 L165.308,100.145 L165.274,100.264 L165.239,100.384 L165.203,100.503 L165.166,100.622 L165.129,100.74 L165.091,100.858 L165.052,100.977 L165.013,101.095 L164.973,101.212 L164.932,101.329 L164.891,101.447 L164.848,101.564 L164.805,101.68 L164.762,101.796 L164.717,101.912 L164.672,102.028 L164.627,102.143 L164.58,102.258 L164.533,102.373 L164.485,102.488 L164.437,102.602 L164.387,102.716 L164.337,102.83 L164.287,102.943 L164.235,103.056 L164.183,103.169 L164.13,103.282 L164.077,103.394 L164.023,103.505 L163.968,103.617 L163.913,103.728 L163.857,103.839 L163.8,103.95 L163.742,104.06 L163.684,104.169 L163.625,104.279 L163.566,104.388 L163.505,104.497 L163.444,104.605 L163.383,104.713 L163.321,104.821 L163.258,104.929 L163.194,105.036 L163.13,105.142 L163.065,105.248 L162.999,105.355 L162.933,105.46 L162.866,105.565 L162.799,105.67 L162.73,105.774 L162.662,105.878 L162.592,105.982 L162.522,106.085 L162.451,106.188 L162.38,106.29 L162.308,106.392 L162.235,106.494 L162.161,106.595 L162.087,106.695 L162.012,106.796 L161.937,106.896 L161.861,106.995 L161.784,107.095 L161.707,107.193 L161.629,107.291 L161.55,107.389 L161.471,107.486 L161.391,107.583 L161.311,107.68 L161.23,107.776 L161.148,107.871 L161.066,107.966 L160.983,108.061 L160.899,108.155 L160.815,108.248 L160.73,108.341 L160.645,108.434 L160.558,108.526 L160.472,108.618 L160.384,108.709 L160.296,108.8 L160.208,108.89 L160.118,108.98 L160.029,109.069 L159.939,109.157 L159.848,109.245 L159.756,109.333 L159.665,109.42 L159.573,109.506 L159.48,109.591 L159.387,109.676 L159.293,109.76 L159.199,109.844 L159.105,109.927 L159.009,110.009 L158.914,110.091 L158.818,110.172 L158.722,110.253 L158.625,110.333 L158.528,110.412 L158.43,110.49 L158.331,110.568 L158.233,110.646 L158.134,110.722 L158.035,110.798 L157.935,110.874 L157.834,110.949 L157.734,111.022 L157.633,111.096 L157.531,111.169 L157.429,111.241 L157.326,111.312 L157.224,111.383 L157.12,111.453 L157.017,111.523 L156.913,111.592 L156.808,111.66 L156.704,111.728 L156.599,111.794 L156.493,111.861 L156.387,111.926 L156.281,111.991 L156.174,112.056 L156.067,112.119 L155.96,112.182 L155.852,112.244 L155.744,112.306 L155.636,112.367 L155.527,112.427 L155.418,112.486 L155.308,112.545 L155.198,112.604 L155.088,112.661 L154.978,112.718 L154.867,112.774 L154.756,112.829 L154.644,112.884 L154.532,112.938 L154.42,112.992 L154.308,113.045 L154.195,113.097 L154.082,113.148 L153.968,113.199 L153.855,113.249 L153.741,113.298 L153.627,113.346 L153.512,113.394 L153.397,113.441 L153.282,113.488 L153.167,113.534 L153.051,113.579 L152.935,113.623 L152.818,113.667 L152.702,113.71 L152.585,113.752 L152.468,113.793 L152.351,113.834 L152.233,113.874 L152.115,113.914 L151.997,113.952 L151.879,113.99 L151.76,114.028 L151.642,114.064 L151.523,114.1 L151.403,114.135 L151.284,114.169 L151.164,114.203 L151.044,114.236 L150.924,114.268 L150.803,114.299 L150.683,114.33 L150.562,114.36 L150.441,114.389 L150.32,114.418 L150.198,114.446 L150.077,114.473 L149.955,114.499 L149.833,114.525 L149.71,114.549 L149.588,114.574 L149.465,114.597 L149.343,114.619 L149.22,114.641 L149.097,114.662 L148.973,114.683 L148.85,114.702 L148.726,114.721 L148.602,114.739 L148.478,114.757 L148.354,114.773 L148.23,114.789 L148.106,114.804 L147.981,114.818 L147.857,114.832 L147.732,114.845 L147.607,114.857 L147.482,114.868 L147.357,114.878 L147.231,114.888 L147.106,114.897 L146.98,114.905 L146.855,114.913 L146.729,114.919 L146.603,114.925 L146.477,114.93 L146.351,114.935 L146.225,114.938 L146.098,114.941 L145.972,114.943 L145.845,114.944 L145.722,114.944 L144.4,114.944 L144.277,114.944 L144.15,114.943 L144.024,114.941 L143.898,114.938 L143.772,114.935 L143.646,114.93 L143.52,114.925 L143.394,114.919 L143.268,114.913 L143.142,114.905 L143.017,114.897 L142.891,114.888 L142.766,114.878 L142.641,114.868 L142.516,114.857 L142.391,114.845 L142.266,114.832 L142.141,114.818 L142.017,114.804 L141.892,114.789 L141.768,114.773 L141.644,114.757 L141.52,114.739 L141.396,114.721 L141.273,114.702 L141.149,114.683 L141.026,114.662 L140.903,114.641 L140.78,114.619 L140.657,114.597 L140.535,114.574 L140.412,114.549 L140.29,114.525 L140.168,114.499 L140.046,114.473 L139.924,114.446 L139.803,114.418 L139.681,114.389 L139.561,114.36 L139.44,114.33 L139.319,114.299 L139.199,114.268 L139.078,114.236 L138.958,114.203 L138.839,114.169 L138.719,114.135 L138.6,114.1 L138.481,114.064 L138.362,114.028 L138.243,113.99 L138.125,113.952 L138.007,113.914 L137.889,113.874 L137.771,113.834 L137.654,113.793 L137.537,113.752 L137.42,113.71 L137.304,113.667 L137.188,113.623 L137.071,113.579 L136.956,113.534 L136.84,113.488 L136.725,113.441 L136.611,113.394 L136.496,113.346 L136.382,113.298 L136.268,113.249 L136.154,113.199 L136.04,113.148 L135.928,113.097 L135.815,113.045 L135.702,112.992 L135.59,112.938 L135.478,112.884 L135.367,112.829 L135.256,112.774 L135.145,112.718 L135.034,112.661 L134.924,112.604 L134.814,112.545 L134.705,112.486 L134.596,112.427 L134.487,112.367 L134.378,112.306 L134.27,112.244 L134.162,112.182 L134.055,112.119 L133.948,112.056 L133.841,111.991 L133.735,111.926 L133.629,111.861 L133.524,111.794 L133.419,111.728 L133.314,111.66 L133.209,111.592 L133.106,111.523 L133.002,111.453 L132.899,111.383 L132.796,111.312 L132.693,111.241 L132.592,111.169 L132.49,111.096 L132.389,111.022 L132.288,110.948 L132.188,110.874 L132.088,110.798 L131.989,110.722 L131.89,110.646 L131.791,110.568 L131.692,110.49 L131.595,110.412 L131.498,110.333 L131.401,110.253 L131.304,110.172 L131.208,110.091 L131.113,110.009 L131.018,109.927 L130.923,109.844 L130.829,109.76 L130.736,109.676 L130.642,109.591 L130.55,109.506 L130.458,109.42 L130.366,109.333 L130.275,109.246 L130.184,109.158 L130.093,109.069 L130.004,108.98 L129.915,108.89 L129.826,108.8 L129.738,108.709 L129.651,108.618 L129.564,108.526 L129.478,108.434 L129.392,108.341 L129.307,108.248 L129.223,108.155 L129.14,108.061 L129.057,107.966 L128.974,107.871 L128.892,107.775 L128.811,107.679 L128.731,107.583 L128.651,107.486 L128.572,107.389 L128.494,107.291 L128.415,107.193 L128.338,107.094 L128.261,106.995 L128.186,106.896 L128.11,106.796 L128.035,106.696 L127.961,106.595 L127.888,106.494 L127.815,106.392 L127.743,106.29 L127.671,106.188 L127.601,106.085 L127.53,105.982 L127.461,105.878 L127.392,105.774 L127.324,105.67 L127.256,105.565 L127.189,105.46 L127.123,105.355 L127.058,105.249 L126.992,105.142 L126.928,105.036 L126.865,104.929 L126.802,104.821 L126.74,104.714 L126.678,104.605 L126.617,104.497 L126.557,104.388 L126.497,104.279 L126.438,104.169 L126.38,104.059 L126.323,103.95 L126.266,103.839 L126.21,103.728 L126.154,103.617 L126.099,103.505 L126.045,103.394 L125.992,103.281 L125.939,103.169 L125.887,103.056 L125.836,102.944 L125.785,102.83 L125.735,102.716 L125.686,102.602 L125.637,102.488 L125.589,102.373 L125.542,102.258 L125.496,102.144 L125.45,102.028 L125.405,101.912 L125.361,101.797 L125.317,101.68 L125.274,101.563 L125.232,101.447 L125.19,101.329 L125.149,101.212 L125.109,101.095 L125.07,100.977 L125.031,100.858 L124.993,100.74 L124.956,100.622 L124.92,100.503 L124.884,100.384 L124.849,100.265 L124.814,100.145 L124.781,100.025 L124.748,99.905 L124.716,99.785 L124.684,99.665 L124.654,99.544 L124.624,99.423 L124.594,99.302 L124.566,99.181 L124.538,99.06 L124.511,98.938 L124.485,98.816 L124.459,98.694 L124.434,98.571 L124.41,98.45 L124.387,98.327 L124.364,98.204 L124.343,98.081 L124.321,97.957 L124.301,97.835 L124.281,97.711 L124.263,97.587 L124.245,97.464 L124.227,97.339 L124.211,97.216 L124.195,97.092 L124.18,96.967 L124.165,96.843 L124.152,96.718 L124.139,96.593 L124.127,96.468 L124.116,96.343 L124.105,96.218 L124.096,96.093 L124.087,95.967 L124.078,95.841 L124.071,95.715 L124.064,95.59 L124.059,95.464 L124.054,95.339 L124.049,95.212 L124.046,95.086 L124.043,94.959 L124.041,94.833 L124.04,94.707 L124.039,94.583 L124.039,94.576 L124.04,94.452 L124.041,94.326 L124.043,94.2 L124.046,94.073 L124.049,93.947 L124.054,93.821 L124.059,93.695 L124.064,93.57 L124.071,93.444 L124.078,93.318 L124.087,93.192 L124.096,93.066 L124.105,92.941 L124.116,92.817 L124.127,92.691 L124.139,92.566 L124.152,92.442 L124.165,92.317 L124.18,92.193 L124.195,92.068 L124.211,91.943 L124.227,91.82 L124.245,91.695 L124.263,91.572 L124.281,91.448 L124.301,91.325 L124.321,91.202 L124.343,91.078 L124.364,90.955 L124.387,90.832 L124.41,90.71 L124.434,90.588 L124.459,90.466 L124.485,90.343 L124.511,90.222 L124.538,90.1 L124.566,89.978 L124.594,89.857 L124.624,89.736 L124.654,89.615 L124.684,89.495 L124.716,89.374 L124.748,89.254 L124.781,89.134 L124.814,89.014 L124.849,88.894 L124.884,88.775 L124.92,88.656 L124.956,88.538 L124.993,88.419 L125.031,88.301 L125.07,88.182 L125.109,88.065 L125.149,87.947 L125.19,87.83 L125.232,87.713 L125.274,87.596 L125.317,87.479 L125.361,87.363 L125.405,87.247 L125.45,87.131 L125.496,87.016 L125.542,86.901 L125.589,86.786 L125.637,86.671 L125.686,86.557 L125.735,86.443 L125.785,86.329 L125.836,86.216 L125.887,86.103 L125.939,85.99 L125.992,85.878 L126.045,85.766 L126.099,85.654 L126.154,85.542 L126.21,85.431 L126.266,85.32 L126.323,85.21 L126.38,85.1 L126.438,84.99 L126.497,84.88 L126.557,84.771 L126.617,84.663 L126.678,84.554 L126.74,84.446 L126.802,84.338 L126.865,84.231 L126.928,84.124 L126.992,84.017 L127.058,83.911 L127.123,83.805 L127.189,83.699 L127.256,83.594 L127.324,83.489 L127.392,83.385 L127.461,83.281 L127.53,83.177 L127.601,83.074 L127.671,82.972 L127.743,82.869 L127.815,82.767 L127.888,82.666 L127.961,82.564 L128.035,82.464 L128.11,82.363 L128.186,82.263 L128.261,82.164 L128.338,82.065 L128.415,81.966 L128.494,81.868 L128.572,81.77 L128.651,81.673 L128.731,81.576 L128.811,81.48 L128.892,81.384 L128.974,81.288 L129.057,81.193 L129.14,81.099 L129.223,81.005 L129.307,80.911 L129.392,80.818 L129.478,80.725 L129.564,80.633 L129.651,80.541 L129.738,80.45 L129.826,80.36 L129.915,80.269 L130.004,80.179 L130.093,80.091 L130.184,80.002 L130.275,79.914 L130.366,79.826 L130.458,79.74 L130.55,79.654 L130.642,79.568 L130.736,79.483 L130.829,79.399 L130.923,79.315 L131.018,79.232 L131.113,79.15 L131.208,79.068 L131.304,78.987 L131.401,78.906 L131.498,78.827 L131.595,78.748 L131.692,78.669 L131.791,78.591 L131.89,78.514 L131.989,78.437 L132.088,78.361 L132.188,78.286 L132.288,78.211 L132.389,78.137 L132.49,78.063 L132.592,77.991 L132.693,77.919 L132.796,77.847 L132.899,77.776 L133.002,77.706 L133.106,77.636 L133.21,77.567 L133.314,77.499 L133.419,77.432 L133.524,77.365 L133.629,77.298 L133.735,77.233 L133.841,77.168 L133.948,77.104 L134.055,77.04 L134.162,76.977 L134.27,76.915 L134.378,76.854 L134.487,76.793 L134.596,76.732 L134.705,76.673 L134.814,76.614 L134.924,76.556 L135.034,76.498 L135.145,76.441 L135.256,76.385 L135.367,76.33 L135.478,76.275 L135.59,76.221 L135.702,76.168 L135.815,76.115 L135.927,76.063 L136.04,76.011 L136.154,75.961 L136.268,75.911 L136.382,75.862 L136.496,75.813 L136.61,75.765 L136.725,75.718 L136.84,75.671 L136.956,75.626 L137.072,75.581 L137.188,75.536 L137.304,75.493 L137.42,75.45 L137.537,75.407 L137.654,75.366 L137.772,75.325 L137.889,75.285 L138.007,75.246 L138.125,75.207 L138.243,75.169 L138.362,75.132 L138.481,75.095 L138.6,75.059 L138.719,75.024 L138.839,74.99 L138.958,74.956 L139.078,74.924 L139.199,74.891 L139.319,74.86 L139.44,74.829 L139.561,74.799 L139.681,74.77 L139.803,74.741 L139.924,74.714 L140.046,74.687 L140.168,74.66 L140.29,74.635 L140.412,74.61 L140.534,74.586 L140.657,74.563 L140.78,74.54 L140.903,74.518 L141.026,74.497 L141.149,74.477 L141.273,74.457 L141.396,74.438 L141.52,74.42 L141.644,74.403 L141.768,74.386 L141.892,74.37 L142.017,74.355 L142.141,74.341 L142.266,74.327 L142.391,74.315 L142.516,74.303 L142.641,74.291 L142.766,74.281 L142.891,74.271 L143.017,74.262 L143.142,74.254 L143.268,74.247 L143.394,74.24 L143.52,74.234 L143.646,74.229 L143.772,74.225 L143.898,74.221 L144.024,74.219 L144.15,74.217 L144.277,74.215 L144.4,74.215 L145.722,74.215 L145.845,74.215 Z M144.289,76.215 L144.175,76.216 L144.061,76.218 L143.947,76.221 L143.834,76.224 L143.72,76.228 L143.606,76.232 L143.493,76.238 L143.379,76.244 L143.266,76.25 L143.153,76.258 L143.04,76.266 L142.927,76.274 L142.814,76.284 L142.701,76.294 L142.588,76.305 L142.476,76.316 L142.363,76.329 L142.251,76.342 L142.139,76.355 L142.027,76.369 L141.915,76.384 L141.803,76.4 L141.692,76.416 L141.58,76.433 L141.469,76.451 L141.358,76.469 L141.247,76.488 L141.136,76.508 L141.025,76.528 L140.914,76.549 L140.804,76.571 L140.694,76.594 L140.584,76.617 L140.474,76.64 L140.364,76.665 L140.255,76.69 L140.145,76.715 L140.036,76.742 L139.927,76.769 L139.818,76.797 L139.71,76.825 L139.601,76.854 L139.493,76.884 L139.385,76.914 L139.277,76.945 L139.17,76.977 L139.063,77.009 L138.955,77.042 L138.848,77.075 L138.742,77.11 L138.635,77.144 L138.529,77.18 L138.423,77.216 L138.317,77.253 L138.212,77.29 L138.106,77.328 L138.001,77.367 L137.896,77.407 L137.792,77.447 L137.687,77.487 L137.583,77.528 L137.479,77.57 L137.376,77.613 L137.273,77.656 L137.169,77.7 L137.067,77.744 L136.964,77.789 L136.862,77.835 L136.76,77.881 L136.658,77.928 L136.557,77.976 L136.456,78.024 L136.355,78.073 L136.254,78.122 L136.154,78.172 L136.054,78.223 L135.954,78.274 L135.855,78.326 L135.756,78.378 L135.657,78.432 L135.559,78.485 L135.461,78.54 L135.363,78.594 L135.265,78.65 L135.168,78.706 L135.071,78.763 L134.975,78.82 L134.879,78.878 L134.783,78.937 L134.687,78.996 L134.592,79.055 L134.497,79.116 L134.403,79.177 L134.309,79.238 L134.215,79.3 L134.122,79.363 L134.029,79.426 L133.936,79.49 L133.844,79.555 L133.752,79.62 L133.66,79.685 L133.569,79.752 L133.478,79.818 L133.388,79.886 L133.297,79.954 L133.208,80.022 L133.118,80.092 L133.029,80.161 L132.941,80.232 L132.853,80.302 L132.765,80.374 L132.678,80.446 L132.591,80.518 L132.504,80.592 L132.418,80.665 L132.333,80.74 L132.247,80.814 L132.162,80.89 L132.078,80.966 L131.994,81.042 L131.91,81.119 L131.827,81.197 L131.745,81.275 L131.662,81.354 L131.58,81.433 L131.499,81.513 L131.418,81.594 L131.338,81.675 L131.258,81.756 L131.178,81.838 L131.1,81.92 L131.021,82.003 L130.944,82.086 L130.867,82.17 L130.79,82.254 L130.714,82.338 L130.639,82.423 L130.564,82.508 L130.49,82.594 L130.416,82.68 L130.343,82.766 L130.27,82.853 L130.198,82.941 L130.127,83.028 L130.056,83.117 L129.986,83.205 L129.916,83.294 L129.847,83.383 L129.778,83.473 L129.71,83.563 L129.643,83.654 L129.576,83.744 L129.51,83.836 L129.444,83.927 L129.379,84.019 L129.315,84.111 L129.251,84.204 L129.188,84.297 L129.125,84.391 L129.063,84.484 L129.001,84.579 L128.94,84.673 L128.88,84.768 L128.82,84.863 L128.761,84.958 L128.703,85.054 L128.645,85.15 L128.587,85.247 L128.531,85.344 L128.474,85.441 L128.419,85.538 L128.364,85.636 L128.31,85.734 L128.256,85.833 L128.203,85.932 L128.15,86.031 L128.098,86.13 L128.047,86.23 L127.997,86.33 L127.947,86.43 L127.897,86.53 L127.848,86.631 L127.8,86.732 L127.753,86.834 L127.706,86.935 L127.659,87.037 L127.614,87.14 L127.569,87.242 L127.524,87.345 L127.48,87.448 L127.437,87.551 L127.395,87.655 L127.353,87.759 L127.312,87.863 L127.271,87.967 L127.231,88.072 L127.192,88.177 L127.153,88.282 L127.115,88.387 L127.077,88.493 L127.041,88.599 L127.004,88.705 L126.969,88.811 L126.934,88.917 L126.9,89.024 L126.866,89.131 L126.833,89.238 L126.801,89.345 L126.769,89.453 L126.738,89.561 L126.708,89.669 L126.678,89.777 L126.649,89.885 L126.621,89.994 L126.593,90.103 L126.566,90.212 L126.54,90.321 L126.514,90.43 L126.489,90.54 L126.465,90.649 L126.441,90.759 L126.418,90.869 L126.396,90.98 L126.374,91.09 L126.353,91.201 L126.332,91.311 L126.313,91.422 L126.294,91.533 L126.275,91.644 L126.258,91.756 L126.241,91.867 L126.224,91.979 L126.209,92.091 L126.194,92.202 L126.18,92.315 L126.166,92.427 L126.153,92.539 L126.141,92.651 L126.129,92.764 L126.118,92.877 L126.108,92.989 L126.099,93.102 L126.09,93.215 L126.082,93.328 L126.075,93.442 L126.068,93.555 L126.062,93.668 L126.057,93.782 L126.052,93.896 L126.048,94.009 L126.045,94.123 L126.043,94.237 L126.041,94.351 L126.04,94.465 L126.039,94.579 L126.039,94.58 L126.04,94.694 L126.041,94.808 L126.043,94.922 L126.045,95.036 L126.048,95.15 L126.052,95.264 L126.057,95.377 L126.062,95.491 L126.068,95.604 L126.075,95.718 L126.082,95.831 L126.09,95.944 L126.099,96.057 L126.108,96.17 L126.118,96.283 L126.129,96.395 L126.141,96.508 L126.153,96.62 L126.166,96.733 L126.18,96.845 L126.194,96.957 L126.209,97.069 L126.224,97.181 L126.241,97.292 L126.258,97.404 L126.275,97.515 L126.294,97.626 L126.313,97.737 L126.332,97.848 L126.353,97.959 L126.374,98.069 L126.396,98.18 L126.418,98.29 L126.441,98.4 L126.465,98.51 L126.489,98.62 L126.514,98.729 L126.54,98.838 L126.566,98.948 L126.593,99.057 L126.621,99.165 L126.649,99.274 L126.678,99.382 L126.708,99.491 L126.738,99.599 L126.769,99.706 L126.801,99.814 L126.833,99.921 L126.866,100.028 L126.9,100.135 L126.934,100.242 L126.969,100.349 L127.004,100.455 L127.041,100.561 L127.077,100.667 L127.115,100.772 L127.153,100.878 L127.192,100.983 L127.231,101.087 L127.271,101.192 L127.312,101.296 L127.353,101.4 L127.395,101.504 L127.437,101.608 L127.48,101.711 L127.524,101.814 L127.569,101.917 L127.614,102.02 L127.659,102.122 L127.706,102.224 L127.753,102.326 L127.8,102.427 L127.848,102.528 L127.897,102.629 L127.947,102.729 L127.997,102.83 L128.047,102.93 L128.098,103.029 L128.15,103.129 L128.203,103.228 L128.256,103.327 L128.31,103.425 L128.364,103.523 L128.419,103.621 L128.474,103.718 L128.531,103.816 L128.587,103.912 L128.645,104.009 L128.703,104.105 L128.761,104.201 L128.82,104.296 L128.88,104.392 L128.94,104.486 L129.001,104.581 L129.063,104.675 L129.125,104.769 L129.188,104.862 L129.251,104.955 L129.315,105.048 L129.379,105.14 L129.444,105.232 L129.51,105.324 L129.576,105.415 L129.643,105.506 L129.71,105.596 L129.778,105.686 L129.847,105.776 L129.916,105.865 L129.986,105.954 L130.056,106.043 L130.127,106.131 L130.198,106.219 L130.27,106.306 L130.343,106.393 L130.416,106.479 L130.49,106.566 L130.564,106.651 L130.639,106.736 L130.714,106.821 L130.79,106.906 L130.867,106.99 L130.944,107.073 L131.021,107.156 L131.1,107.239 L131.178,107.321 L131.258,107.403 L131.338,107.485 L131.418,107.566 L131.499,107.646 L131.58,107.726 L131.662,107.805 L131.745,107.884 L131.827,107.962 L131.91,108.04 L131.994,108.117 L132.078,108.194 L132.162,108.27 L132.247,108.345 L132.333,108.42 L132.418,108.494 L132.504,108.568 L132.591,108.641 L132.678,108.714 L132.765,108.786 L132.853,108.857 L132.941,108.928 L133.029,108.998 L133.118,109.068 L133.208,109.137 L133.297,109.205 L133.388,109.273 L133.478,109.341 L133.569,109.408 L133.66,109.474 L133.752,109.54 L133.844,109.605 L133.936,109.669 L134.029,109.733 L134.122,109.796 L134.215,109.859 L134.309,109.921 L134.403,109.983 L134.497,110.044 L134.592,110.104 L134.687,110.164 L134.783,110.223 L134.879,110.281 L134.975,110.339 L135.071,110.397 L135.168,110.453 L135.265,110.509 L135.363,110.565 L135.461,110.62 L135.559,110.674 L135.657,110.728 L135.756,110.781 L135.855,110.833 L135.954,110.885 L136.054,110.937 L136.154,110.987 L136.254,111.037 L136.355,111.087 L136.456,111.135 L136.557,111.184 L136.658,111.231 L136.76,111.278 L136.862,111.324 L136.964,111.37 L137.067,111.415 L137.169,111.459 L137.273,111.503 L137.376,111.546 L137.479,111.589 L137.583,111.631 L137.687,111.672 L137.792,111.713 L137.896,111.753 L138.001,111.792 L138.106,111.831 L138.212,111.869 L138.317,111.906 L138.423,111.943 L138.529,111.979 L138.635,112.015 L138.742,112.05 L138.848,112.084 L138.955,112.118 L139.063,112.151 L139.17,112.183 L139.277,112.214 L139.385,112.245 L139.493,112.276 L139.601,112.305 L139.71,112.334 L139.818,112.363 L139.927,112.39 L140.036,112.418 L140.145,112.444 L140.255,112.47 L140.364,112.495 L140.474,112.519 L140.584,112.543 L140.694,112.566 L140.804,112.588 L140.914,112.61 L141.025,112.631 L141.136,112.651 L141.247,112.671 L141.358,112.69 L141.469,112.708 L141.58,112.726 L141.692,112.743 L141.803,112.759 L141.915,112.775 L142.027,112.79 L142.139,112.804 L142.251,112.818 L142.363,112.831 L142.476,112.843 L142.588,112.854 L142.701,112.865 L142.814,112.875 L142.927,112.885 L143.04,112.894 L143.153,112.902 L143.266,112.909 L143.379,112.916 L143.493,112.922 L143.606,112.927 L143.72,112.932 L143.834,112.935 L143.947,112.939 L144.061,112.941 L144.175,112.943 L144.289,112.944 L144.403,112.944 L145.719,112.944 L145.833,112.944 L145.947,112.943 L146.061,112.941 L146.175,112.939 L146.289,112.935 L146.402,112.932 L146.516,112.927 L146.63,112.922 L146.743,112.916 L146.856,112.909 L146.97,112.902 L147.083,112.894 L147.196,112.885 L147.309,112.875 L147.421,112.865 L147.534,112.854 L147.647,112.843 L147.759,112.831 L147.871,112.818 L147.983,112.804 L148.096,112.79 L148.207,112.775 L148.319,112.759 L148.431,112.743 L148.542,112.726 L148.654,112.708 L148.765,112.69 L148.876,112.671 L148.987,112.651 L149.097,112.631 L149.208,112.61 L149.318,112.588 L149.429,112.566 L149.539,112.543 L149.649,112.519 L149.758,112.495 L149.868,112.47 L149.977,112.444 L150.086,112.418 L150.195,112.39 L150.304,112.363 L150.413,112.334 L150.521,112.305 L150.629,112.276 L150.737,112.245 L150.845,112.214 L150.953,112.183 L151.06,112.151 L151.167,112.118 L151.274,112.084 L151.381,112.05 L151.487,112.015 L151.593,111.979 L151.699,111.943 L151.805,111.906 L151.911,111.869 L152.016,111.831 L152.121,111.792 L152.226,111.753 L152.331,111.713 L152.435,111.672 L152.539,111.631 L152.643,111.589 L152.747,111.546 L152.85,111.503 L152.953,111.459 L153.056,111.415 L153.158,111.37 L153.261,111.324 L153.363,111.278 L153.464,111.231 L153.566,111.184 L153.667,111.135 L153.768,111.087 L153.868,111.037 L153.968,110.987 L154.068,110.937 L154.168,110.885 L154.267,110.833 L154.366,110.781 L154.465,110.728 L154.564,110.674 L154.662,110.62 L154.76,110.565 L154.857,110.509 L154.954,110.453 L155.051,110.397 L155.148,110.339 L155.244,110.281 L155.34,110.223 L155.435,110.164 L155.53,110.104 L155.625,110.044 L155.719,109.983 L155.814,109.921 L155.907,109.859 L156.001,109.796 L156.094,109.733 L156.187,109.669 L156.279,109.605 L156.371,109.54 L156.462,109.474 L156.554,109.408 L156.644,109.341 L156.735,109.273 L156.825,109.205 L156.915,109.137 L157.004,109.068 L157.093,108.998 L157.181,108.928 L157.27,108.857 L157.357,108.786 L157.445,108.714 L157.532,108.641 L157.618,108.568 L157.704,108.494 L157.79,108.42 L157.875,108.345 L157.96,108.27 L158.044,108.194 L158.128,108.117 L158.212,108.04 L158.295,107.962 L158.378,107.884 L158.46,107.805 L158.542,107.726 L158.623,107.646 L158.704,107.566 L158.785,107.485 L158.865,107.403 L158.944,107.321 L159.023,107.239 L159.101,107.156 L159.179,107.073 L159.256,106.99 L159.332,106.906 L159.408,106.821 L159.484,106.736 L159.558,106.651 L159.633,106.566 L159.706,106.479 L159.78,106.393 L159.852,106.306 L159.924,106.219 L159.996,106.131 L160.066,106.043 L160.137,105.954 L160.206,105.865 L160.276,105.776 L160.344,105.686 L160.412,105.596 L160.48,105.506 L160.546,105.415 L160.613,105.324 L160.678,105.232 L160.743,105.14 L160.808,105.048 L160.872,104.955 L160.935,104.862 L160.998,104.769 L161.06,104.675 L161.121,104.581 L161.182,104.486 L161.243,104.392 L161.302,104.296 L161.361,104.201 L161.42,104.105 L161.478,104.009 L161.535,103.912 L161.592,103.816 L161.648,103.718 L161.704,103.621 L161.758,103.523 L161.813,103.425 L161.867,103.327 L161.92,103.228 L161.972,103.129 L162.024,103.029 L162.075,102.93 L162.126,102.83 L162.176,102.729 L162.225,102.629 L162.274,102.528 L162.322,102.427 L162.37,102.326 L162.417,102.224 L162.463,102.122 L162.509,102.02 L162.554,101.917 L162.598,101.814 L162.642,101.711 L162.685,101.608 L162.728,101.504 L162.77,101.4 L162.811,101.296 L162.851,101.192 L162.891,101.087 L162.931,100.983 L162.97,100.878 L163.008,100.772 L163.045,100.667 L163.082,100.561 L163.118,100.455 L163.154,100.349 L163.188,100.242 L163.223,100.135 L163.256,100.028 L163.289,99.921 L163.321,99.814 L163.353,99.706 L163.384,99.599 L163.414,99.491 L163.444,99.382 L163.473,99.274 L163.501,99.165 L163.529,99.057 L163.556,98.948 L163.583,98.838 L163.608,98.729 L163.633,98.62 L163.658,98.51 L163.681,98.4 L163.704,98.29 L163.727,98.18 L163.749,98.069 L163.77,97.959 L163.79,97.848 L163.81,97.737 L163.829,97.626 L163.847,97.515 L163.865,97.404 L163.882,97.292 L163.898,97.181 L163.914,97.069 L163.929,96.957 L163.943,96.845 L163.957,96.733 L163.969,96.62 L163.982,96.508 L163.993,96.395 L164.004,96.283 L164.014,96.17 L164.024,96.057 L164.032,95.944 L164.04,95.831 L164.048,95.718 L164.054,95.604 L164.06,95.491 L164.066,95.377 L164.07,95.264 L164.074,95.15 L164.077,95.036 L164.08,94.922 L164.082,94.808 L164.083,94.694 L164.083,94.579 L164.083,94.465 L164.082,94.351 L164.08,94.237 L164.077,94.123 L164.074,94.009 L164.07,93.896 L164.066,93.782 L164.06,93.668 L164.054,93.555 L164.048,93.442 L164.04,93.328 L164.032,93.215 L164.024,93.102 L164.014,92.989 L164.004,92.877 L163.993,92.764 L163.982,92.651 L163.969,92.539 L163.957,92.427 L163.943,92.315 L163.929,92.202 L163.914,92.091 L163.898,91.979 L163.882,91.867 L163.865,91.756 L163.847,91.644 L163.829,91.533 L163.81,91.422 L163.79,91.311 L163.77,91.201 L163.749,91.09 L163.727,90.98 L163.704,90.869 L163.681,90.759 L163.658,90.649 L163.633,90.54 L163.608,90.43 L163.583,90.321 L163.556,90.212 L163.529,90.103 L163.501,89.994 L163.473,89.885 L163.444,89.777 L163.414,89.669 L163.384,89.561 L163.353,89.453 L163.321,89.345 L163.289,89.238 L163.256,89.131 L163.223,89.024 L163.188,88.917 L163.154,88.811 L163.118,88.705 L163.082,88.599 L163.045,88.493 L163.008,88.387 L162.97,88.282 L162.931,88.177 L162.891,88.072 L162.851,87.967 L162.811,87.863 L162.77,87.759 L162.728,87.655 L162.685,87.551 L162.642,87.448 L162.598,87.345 L162.554,87.242 L162.509,87.14 L162.463,87.037 L162.417,86.935 L162.37,86.834 L162.322,86.732 L162.274,86.631 L162.225,86.53 L162.176,86.43 L162.126,86.33 L162.075,86.23 L162.024,86.13 L161.972,86.031 L161.92,85.932 L161.867,85.833 L161.813,85.734 L161.758,85.636 L161.704,85.538 L161.648,85.441 L161.592,85.344 L161.535,85.247 L161.478,85.15 L161.42,85.054 L161.361,84.958 L161.302,84.863 L161.243,84.768 L161.182,84.673 L161.121,84.579 L161.06,84.484 L160.998,84.391 L160.935,84.297 L160.872,84.204 L160.808,84.111 L160.743,84.019 L160.678,83.927 L160.613,83.836 L160.546,83.744 L160.48,83.654 L160.412,83.563 L160.344,83.473 L160.276,83.383 L160.206,83.294 L160.137,83.205 L160.066,83.117 L159.996,83.028 L159.924,82.941 L159.852,82.853 L159.78,82.766 L159.706,82.68 L159.633,82.594 L159.558,82.508 L159.484,82.423 L159.408,82.338 L159.332,82.254 L159.256,82.17 L159.179,82.086 L159.101,82.003 L159.023,81.92 L158.944,81.838 L158.865,81.756 L158.785,81.675 L158.704,81.594 L158.623,81.513 L158.542,81.433 L158.46,81.354 L158.378,81.275 L158.295,81.197 L158.212,81.119 L158.128,81.042 L158.044,80.966 L157.96,80.89 L157.875,80.814 L157.79,80.74 L157.704,80.665 L157.618,80.592 L157.532,80.518 L157.445,80.446 L157.357,80.374 L157.27,80.302 L157.181,80.232 L157.093,80.161 L157.004,80.092 L156.915,80.022 L156.825,79.954 L156.735,79.886 L156.644,79.818 L156.554,79.752 L156.462,79.685 L156.371,79.62 L156.279,79.555 L156.187,79.49 L156.094,79.426 L156.001,79.363 L155.907,79.3 L155.814,79.238 L155.719,79.177 L155.625,79.116 L155.53,79.055 L155.435,78.996 L155.34,78.937 L155.244,78.878 L155.148,78.82 L155.051,78.763 L154.954,78.706 L154.857,78.65 L154.76,78.594 L154.662,78.54 L154.564,78.485 L154.465,78.432 L154.366,78.378 L154.267,78.326 L154.168,78.274 L154.068,78.223 L153.968,78.172 L153.868,78.122 L153.768,78.073 L153.667,78.024 L153.566,77.976 L153.464,77.928 L153.363,77.881 L153.261,77.835 L153.158,77.789 L153.056,77.744 L152.953,77.7 L152.85,77.656 L152.747,77.613 L152.643,77.57 L152.539,77.528 L152.435,77.487 L152.331,77.447 L152.226,77.407 L152.121,77.367 L152.016,77.328 L151.911,77.29 L151.805,77.253 L151.699,77.216 L151.593,77.18 L151.487,77.144 L151.381,77.11 L151.274,77.075 L151.167,77.042 L151.06,77.009 L150.953,76.977 L150.845,76.945 L150.737,76.914 L150.629,76.884 L150.521,76.854 L150.413,76.825 L150.304,76.797 L150.195,76.769 L150.086,76.742 L149.977,76.715 L149.868,76.69 L149.758,76.665 L149.649,76.64 L149.539,76.617 L149.429,76.594 L149.318,76.571 L149.208,76.549 L149.097,76.528 L148.987,76.508 L148.876,76.488 L148.765,76.469 L148.654,76.451 L148.542,76.433 L148.431,76.416 L148.319,76.4 L148.207,76.384 L148.096,76.369 L147.983,76.355 L147.871,76.342 L147.759,76.329 L147.647,76.316 L147.534,76.305 L147.421,76.294 L147.309,76.284 L147.196,76.274 L147.083,76.266 L146.97,76.258 L146.856,76.25 L146.743,76.244 L146.63,76.238 L146.516,76.232 L146.402,76.228 L146.289,76.224 L146.175,76.221 L146.061,76.218 L145.947,76.216 L145.833,76.215 L145.719,76.215 L144.403,76.215 L144.289,76.215 Z" id="Fill-14" fill="#E2EEEF"></path>
                <path d="M145.061,83.461 C138.958,83.461 134.011,88.07 134.011,93.756 C134.011,96.996 135.618,99.886 138.129,101.773 L138.129,105.698 L141.892,103.621 C142.896,103.9 143.96,104.051 145.061,104.051 C151.164,104.051 156.111,99.442 156.111,93.756 C156.111,88.07 151.164,83.461 145.061,83.461 L145.061,83.461 Z" id="Fill-15" fill="#78BDC2"></path>
                <path d="M194.719,176.098 L194.61,184.08 L188.263,184.08 C186.146,184.08 184.116,183.239 182.619,181.742 C181.122,180.245 180.281,178.215 180.281,176.098 L180.281,176.098 C180.281,176.098 159.243,156.933 150.423,148.899 C149.812,148.343 149.606,147.469 149.904,146.699 C150.203,145.928 150.944,145.421 151.77,145.421 L223.23,145.421 C224.056,145.421 224.797,145.928 225.096,146.699 C225.394,147.469 225.188,148.343 224.577,148.899 C215.757,156.933 194.719,176.098 194.719,176.098 L194.719,176.098 Z" id="Fill-16" fill="#FFFFFF"></path>
                <g id="Group-20" transform="translate(163.000000, 145.000000)">
                    <mask id="mask-2" fill="white">
                        <use xlink:href="#path-1"></use>
                    </mask>
                    <g id="Clip-18"></g>
                    <polyline id="Fill-17" fill="#E2EFF0" mask="url(#mask-2)" points="63.535 -11.065 24.5 0.421 24.5 23.915 24.5 79.986 63.535 63.415 63.535 -11.065"></polyline>
                    <path d="M24.5,-22.829 C37.741,-22.829 48.491,-12.079 48.491,1.162 C48.491,14.403 37.741,25.153 24.5,25.153 C11.259,25.153 0.509,14.403 0.509,1.162 C0.509,-12.079 11.259,-22.829 24.5,-22.829 L24.5,-22.829 Z" id="Fill-19" fill="#FFFFFF" mask="url(#mask-2)"></path>
                </g>
                <path d="M161.323,185.036 C157.606,185.403 155.941,187.444 156.327,191.159 C154.845,191.455 153.392,191.881 151.986,192.434 C150.302,189.1 147.798,188.283 144.473,189.984 C141.545,192.302 141.247,194.919 143.58,197.836 C142.493,198.886 141.502,200.03 140.618,201.255 C137.399,199.361 134.851,200.028 132.973,203.256 C131.763,206.789 132.927,209.152 136.467,210.344 C136.12,211.815 135.905,213.313 135.823,214.822 C132.091,214.969 130.308,216.907 130.474,220.638 C131.366,224.265 133.623,225.623 137.245,224.712 C137.748,226.137 138.377,227.514 139.124,228.827 C136.064,230.969 135.612,233.564 137.769,236.613 C140.48,239.181 143.113,239.103 145.668,236.379 C146.861,237.305 148.135,238.124 149.473,238.825 C148.057,242.28 149.08,244.708 152.542,246.107 C156.212,246.802 158.385,245.313 159.061,241.64 C160.566,241.774 162.08,241.774 163.585,241.64 C164.261,245.313 166.434,246.802 170.104,246.107 C173.566,244.708 174.589,242.28 173.172,238.825 C174.511,238.124 175.784,237.305 176.978,236.379 C179.533,239.103 182.166,239.181 184.877,236.613 C187.034,233.564 186.582,230.969 183.522,228.827 C184.269,227.514 184.898,226.137 185.401,224.712 C189.023,225.623 191.28,224.265 192.172,220.638 C192.338,216.907 190.555,214.969 186.823,214.822 C186.741,213.313 186.526,211.815 186.179,210.344 C189.718,209.152 190.883,206.789 189.673,203.256 C187.795,200.028 185.247,199.361 182.028,201.255 C181.144,200.03 180.152,198.886 179.066,197.836 C181.399,194.919 181.101,192.302 178.173,189.984 C174.848,188.283 172.343,189.1 170.66,192.434 C169.253,191.881 167.801,191.455 166.319,191.159 C166.705,187.444 165.04,185.403 161.323,185.036 L161.323,185.036 Z M161.323,200.705 C169.876,200.705 176.821,207.649 176.821,216.203 C176.821,224.757 169.876,231.701 161.323,231.701 C152.769,231.701 145.825,224.757 145.825,216.203 C145.825,207.649 152.769,200.705 161.323,200.705 L161.323,200.705 Z" id="Fill-21" fill="#FFFFFF"></path>
                <path d="M212.758,218.203 C209.077,218.688 207.574,220.73 208.248,224.328 C206.848,224.704 205.503,225.253 204.243,225.963 C202.137,222.949 199.609,222.553 196.658,224.774 C194.404,227.682 194.806,230.173 197.865,232.248 C197.145,233.489 196.587,234.815 196.206,236.194 C192.554,235.53 190.482,237.011 189.99,240.638 C190.482,244.265 192.554,245.746 196.206,245.082 C196.587,246.461 197.145,247.787 197.865,249.028 C194.806,251.103 194.404,253.594 196.658,256.502 C199.609,258.724 202.137,258.327 204.243,255.313 C205.503,256.023 206.848,256.572 208.248,256.948 C207.574,260.546 209.077,262.588 212.758,263.073 C216.439,262.588 217.942,260.546 217.268,256.948 C218.668,256.572 220.014,256.023 221.273,255.313 C223.379,258.327 225.907,258.724 228.858,256.502 C231.112,253.594 230.71,251.103 227.651,249.028 C228.371,247.787 228.929,246.461 229.31,245.082 C232.962,245.746 235.034,244.265 235.526,240.638 C235.034,237.011 232.962,235.53 229.31,236.194 C228.929,234.815 228.371,233.489 227.651,232.248 C230.71,230.173 231.112,227.682 228.858,224.774 C225.907,222.553 223.379,222.949 221.273,225.963 C220.014,225.253 218.668,224.704 217.268,224.328 C217.942,220.73 216.439,218.688 212.758,218.203 L212.758,218.203 Z M212.758,230.547 C218.41,230.547 222.999,235.069 222.999,240.638 C222.999,246.208 218.41,250.729 212.758,250.729 C207.106,250.729 202.517,246.208 202.517,240.638 C202.517,235.069 207.106,230.547 212.758,230.547 L212.758,230.547 Z" id="Fill-22" fill="#FFFFFF"></path>
                <polygon id="Fill-23" fill="#FFFFFF" points="180.39 240.831 194.609 240.831 194.609 176.2137 180.39 176.2137"></polygon>
                <g id="Group-26" transform="translate(180.000000, 185.000000)">
                    <mask id="mask-4" fill="white">
                        <use xlink:href="#path-3"></use>
                    </mask>
                    <g id="Clip-25"></g>
                    <path d="M-18.677,0.036 C-22.394,0.403 -24.059,2.444 -23.673,6.159 C-25.155,6.455 -26.608,6.881 -28.014,7.434 C-29.698,4.1 -32.202,3.283 -35.527,4.984 C-38.455,7.302 -38.753,9.919 -36.42,12.836 C-37.507,13.886 -38.498,15.03 -39.382,16.255 C-42.601,14.361 -45.149,15.028 -47.027,18.256 C-48.237,21.789 -47.073,24.152 -43.533,25.344 C-43.88,26.815 -44.095,28.313 -44.177,29.822 C-47.909,29.969 -49.692,31.907 -49.526,35.638 C-48.634,39.265 -46.377,40.623 -42.755,39.712 C-42.252,41.137 -41.623,42.514 -40.876,43.827 C-43.936,45.969 -44.388,48.564 -42.231,51.613 C-39.52,54.181 -36.887,54.103 -34.332,51.379 C-33.139,52.305 -31.865,53.124 -30.527,53.825 C-31.943,57.28 -30.92,59.708 -27.458,61.107 C-23.788,61.802 -21.615,60.313 -20.939,56.64 C-19.434,56.774 -17.92,56.774 -16.415,56.64 C-15.739,60.313 -13.566,61.802 -9.896,61.107 C-6.434,59.708 -5.411,57.28 -6.828,53.825 C-5.489,53.124 -4.216,52.305 -3.022,51.379 C-0.467,54.103 2.166,54.181 4.877,51.613 C7.034,48.564 6.582,45.969 3.522,43.827 C4.269,42.514 4.898,41.137 5.401,39.712 C9.023,40.623 11.28,39.265 12.172,35.638 C12.338,31.907 10.555,29.969 6.823,29.822 C6.741,28.313 6.526,26.815 6.179,25.344 C9.718,24.152 10.883,21.789 9.673,18.256 C7.795,15.028 5.247,14.361 2.028,16.255 C1.144,15.03 0.152,13.886 -0.934,12.836 C1.399,9.919 1.101,7.302 -1.827,4.984 C-5.152,3.283 -7.657,4.1 -9.34,7.434 C-10.747,6.881 -12.199,6.455 -13.681,6.159 C-13.295,2.444 -14.96,0.403 -18.677,0.036 L-18.677,0.036 Z M-18.677,15.705 C-10.124,15.705 -3.179,22.649 -3.179,31.203 C-3.179,39.757 -10.124,46.701 -18.677,46.701 C-27.231,46.701 -34.175,39.757 -34.175,31.203 C-34.175,22.649 -27.231,15.705 -18.677,15.705 L-18.677,15.705 Z" id="Fill-24" fill="#F7C25F" mask="url(#mask-4)"></path>
                </g>
                <path d="M145.745,377.938 L145.745,252.748 C145.745,243.911 152.909,236.748 161.745,236.748 L213.255,236.748 C217.498,236.748 221.568,238.433 224.568,241.434 C227.569,244.434 229.255,248.504 229.255,252.748 L229.255,361.641" id="Fill-27" fill="#FFFFFF"></path>
                <g id="Group-30" transform="translate(197.000000, 236.000000)">
                    <mask id="mask-6" fill="white">
                        <use xlink:href="#path-5"></use>
                    </mask>
                    <g id="Clip-29"></g>
                    <polygon id="Fill-28" fill="#E2EFF0" mask="url(#mask-6)" points="0.28 -23.222 0.28 153.091 108.899 153.091 108.899 -5.944"></polygon>
                </g>
                <path d="M145.745,377.938 L145.745,373.316" id="Stroke-31" stroke="#2E3F53" stroke-width="2" stroke-linecap="round" stroke-linejoin="round"></path>
                <path d="M145.745,367.321 L145.745,356.303" id="Stroke-32" stroke="#2E3F53" stroke-width="2" stroke-linecap="round" stroke-linejoin="round"></path>
                <path d="M145.745,352.028 L145.745,265.944" id="Stroke-33" stroke="#2E3F53" stroke-width="2" stroke-linecap="round" stroke-linejoin="round"></path>
                <path d="M145.745,283.752 L145.745,252.748 C145.745,243.911 152.909,236.748 161.745,236.748 L213.255,236.748 C217.498,236.748 221.568,238.433 224.568,241.434 C227.569,244.434 229.255,248.504 229.255,252.748 L229.255,374.644" id="Stroke-34" stroke="#2E3F53" stroke-width="2" stroke-linecap="round" stroke-linejoin="round"></path>
                <path d="M172.5,249.301 L202.5,249.301" id="Stroke-35" stroke="#2E3F53" stroke-width="2" stroke-linecap="round" stroke-linejoin="round"></path>
                <path d="M224.3,261.87 C224.3,260.766 223.405,259.87 222.3,259.87 L152.7,259.87 C151.595,259.87 150.7,260.766 150.7,261.87 L150.7,368.821 C150.7,369.926 151.595,370.821 152.7,370.821 L222.3,370.821 C223.405,370.821 224.3,369.926 224.3,368.821 L224.3,261.87 L224.3,261.87 Z" id="Fill-36" fill="#2D3F52"></path>
                <path d="M187.446,292.416 C187.145,292.417 186.844,292.426 186.543,292.443 C185.953,292.476 185.365,292.541 184.783,292.638 C184.095,292.752 183.415,292.909 182.747,293.11 C182.058,293.317 181.383,293.57 180.727,293.866 C179.91,294.235 179.125,294.67 178.379,295.167 C177.624,295.67 176.909,296.236 176.246,296.856 C175.535,297.52 174.883,298.247 174.3,299.025 C173.735,299.779 173.234,300.581 172.807,301.421 C172.467,302.088 172.173,302.778 171.928,303.486 C171.685,304.187 171.491,304.904 171.346,305.632 C171.136,306.688 171.032,307.766 171.032,308.843 C171.032,309.612 171.085,310.381 171.192,311.143 C171.305,311.95 171.479,312.749 171.712,313.53 C171.951,314.329 172.251,315.11 172.609,315.864 C173.028,316.745 173.526,317.588 174.095,318.381 C174.672,319.185 175.321,319.937 176.031,320.626 C176.79,321.361 177.619,322.023 178.504,322.601 C179.337,323.145 180.221,323.614 181.139,323.999 C182.165,324.429 183.235,324.753 184.327,324.966 C185.372,325.169 186.436,325.27 187.5,325.27 C188.564,325.27 189.628,325.169 190.673,324.966 C191.765,324.753 192.835,324.429 193.861,323.999 C194.779,323.614 195.663,323.145 196.496,322.601 C197.381,322.023 198.21,321.361 198.969,320.626 C199.68,319.937 200.328,319.185 200.905,318.381 C201.474,317.588 201.972,316.745 202.391,315.864 C202.749,315.11 203.05,314.329 203.288,313.53 C203.521,312.749 203.695,311.951 203.808,311.143 C203.835,310.952 203.858,310.761 203.878,310.569 L209.304,305.143 C209.511,306.365 209.614,307.604 209.614,308.843 C209.614,309.852 209.546,310.86 209.409,311.859 C209.26,312.948 209.029,314.025 208.718,315.079 C208.394,316.179 207.982,317.253 207.49,318.288 C206.927,319.473 206.258,320.606 205.493,321.672 C204.72,322.749 203.85,323.758 202.898,324.681 C201.897,325.651 200.804,326.526 199.639,327.292 C198.502,328.039 197.297,328.681 196.042,329.207 C194.661,329.785 193.221,330.222 191.752,330.508 C190.352,330.781 188.926,330.917 187.5,330.917 C186.074,330.917 184.648,330.781 183.248,330.508 C181.779,330.222 180.339,329.785 178.958,329.207 C177.703,328.681 176.498,328.039 175.361,327.292 C174.196,326.526 173.103,325.651 172.102,324.681 C171.15,323.758 170.28,322.749 169.507,321.672 C168.742,320.606 168.073,319.473 167.51,318.288 C167.018,317.253 166.606,316.179 166.282,315.079 C165.971,314.025 165.74,312.948 165.591,311.859 C165.454,310.86 165.386,309.852 165.386,308.843 C165.386,307.465 165.513,306.088 165.769,304.734 C165.955,303.75 166.208,302.78 166.527,301.831 C166.855,300.853 167.253,299.898 167.716,298.976 C168.294,297.825 168.973,296.725 169.742,295.693 C170.508,294.664 171.363,293.703 172.294,292.822 C173.21,291.955 174.2,291.166 175.25,290.467 C176.27,289.788 177.346,289.194 178.464,288.693 C179.348,288.297 180.259,287.959 181.187,287.683 C182.086,287.416 183.003,287.207 183.929,287.056 C184.688,286.933 185.454,286.849 186.222,286.806 C186.481,286.791 186.741,286.781 187.001,286.775 C187.143,286.772 187.286,286.77 187.429,286.769 L187.571,286.769 C187.714,286.77 187.857,286.772 187.999,286.775 C188.259,286.781 188.519,286.791 188.778,286.806 C189.546,286.849 190.312,286.933 191.071,287.056 C191.997,287.207 192.914,287.416 193.813,287.683 C194.741,287.959 195.652,288.297 196.536,288.693 C197.654,289.194 198.73,289.788 199.75,290.467 C200.759,291.139 201.712,291.893 202.597,292.72 L198.602,296.715 C197.97,296.139 197.293,295.611 196.579,295.139 C195.846,294.654 195.075,294.228 194.273,293.866 C193.633,293.577 192.974,293.329 192.301,293.125 C191.635,292.922 190.955,292.762 190.268,292.646 C189.669,292.545 189.064,292.477 188.457,292.443 C188.156,292.426 187.855,292.417 187.554,292.416 L187.446,292.416 Z M186.917,314.051 L207.856,293.111 L207.856,293.111 C210.061,295.316 210.061,298.891 207.856,301.096 L188.912,320.04 C187.81,321.142 186.02,321.142 184.917,320.04 L177.435,312.557 C176.332,311.455 176.332,309.665 177.435,308.563 C178.537,307.461 180.327,307.461 181.429,308.563 L186.917,314.051 Z" id="Fill-37" fill="#93C229"></path>
            </g>
        </g>
    </g>
</svg>