<?xml version="1.0" encoding="UTF-8" standalone="no"?>
<svg width="375px" height="346px" viewBox="0 0 375 346" version="1.1" xmlns="http://www.w3.org/2000/svg" xmlns:xlink="http://www.w3.org/1999/xlink">
    <!-- Generator: Sketch 39.1 (31720) - http://www.bohemiancoding.com/sketch -->
    <title>illu1</title>
    <desc>Created with Sketch.</desc>
    <defs>
        <path d="M0.668599996,151.514437 C2.86292183,156.944324 5.46065335,162.286207 8.472,167.502 C43.427,228.045 120.959,248.82 181.502,213.865 C209.267555,197.834328 228.669022,172.848773 238.166778,144.653807 L238.166778,63.5489178 C235.536496,55.7980361 232.112114,48.1911153 227.865,40.835 C218.344661,24.3455173 205.665965,10.8060204 191.032361,0.538999771 L45.3186832,0.539 C24.6938439,15.0079352 9.54713537,34.7802867 0.6686,56.9076572 L0.6686,151.514444 L0.668599996,151.514437 Z" id="path-1"></path>
        <path d="M10.637,78.77 L8.319,78.77 C5.953,78.771 3.7,77.756 2.131,75.984 C0.563,74.212 -0.17,71.852 0.118,69.504 C4.735,30.839 37.758,0.5 77.598,0.5 C97.942,0.5 115.19,19.754 116.581,32.714 C116.615,33.07 116.831,33.384 117.153,33.542 C132.775,41.209 142.919,47.525 147.826,50.793 C150,52.342 151.29,54.845 151.29,57.514 C151.3,61.057 151.3,66.181 151.3,70.51 C151.3,72.701 150.43,74.803 148.88,76.352 C147.331,77.901 145.229,78.771 143.038,78.771 C140.378,78.77 137.128,78.769 133.364,78.769 C133.363,67.547 124.253,58.437 113.031,58.437 C101.811,58.437 92.701,67.544 92.698,78.764 C80.021,78.763 65.981,78.763 51.303,78.764 C51.3,67.544 41.554,69.504 30.334,69.504 C19.112,69.504 10.637,67.548 10.637,78.77 L10.637,78.77 Z" id="path-3"></path>
    </defs>
    <g id="scratch" stroke="none" stroke-width="1" fill="none" fill-rule="evenodd">
        <g id="onboarding_1" transform="translate(0.000000, -46.000000)">
            <g id="illu1" transform="translate(0.000000, 40.000000)">
                <polygon id="Fill-1" fill="#FFFFFF" points="0 352 375 352 375 6.4375 0 6.4375"></polygon>
                <path d="M268.537,310.5 L245.888,310.5 L245.888,305.44 C265.544,293.989 266.153,203.396 260.504,187.838 L268.537,187.838 L268.537,310.5 Z M295.313,310.5 L272.664,310.5 L272.664,187.838 L280.696,187.838 C275.047,203.396 275.656,293.989 295.313,305.44 L295.313,310.5 Z M293.859,176.195 C293.859,175.387 293.538,174.613 292.967,174.041 C292.396,173.47 291.621,173.149 290.813,173.149 L250.387,173.149 C249.58,173.149 248.805,173.47 248.234,174.041 C247.663,174.613 247.342,175.387 247.342,176.195 L247.342,177.94 C247.342,181.304 250.069,184.031 253.433,184.031 L287.768,184.031 C291.132,184.031 293.859,181.304 293.859,177.94 L293.859,176.195 L293.859,176.195 Z M250.143,163.559 L250.143,161.496 C252.884,161.496 255.11,160.031 255.11,157.29 L286.091,157.29 C286.091,160.031 288.317,161.496 291.058,161.496 L291.058,163.559 L288.009,163.559 C287.007,163.559 286.193,164.373 286.193,165.375 C286.193,166.377 287.007,167.19 288.009,167.19 L291.058,167.19 L291.058,169.342 L273.559,169.342 L250.143,169.342 L250.143,167.19 L253.192,167.19 C254.194,167.19 255.008,166.377 255.008,165.375 C255.008,164.373 254.194,163.559 253.192,163.559 L250.143,163.559 Z M282.435,163.559 L278.261,163.559 C277.259,163.559 276.446,164.373 276.446,165.375 C276.446,166.377 277.259,167.19 278.261,167.19 L282.435,167.19 C283.437,167.19 284.25,166.377 284.25,165.375 C284.25,164.373 283.437,163.559 282.435,163.559 L282.435,163.559 Z M274.503,165.375 C274.503,164.373 273.689,163.559 272.687,163.559 L268.513,163.559 C267.511,163.559 266.698,164.373 266.698,165.375 C266.698,166.377 267.511,167.19 268.513,167.19 L272.687,167.19 C273.689,167.19 274.503,166.377 274.503,165.375 L274.503,165.375 Z M262.94,163.559 L258.766,163.559 C257.764,163.559 256.95,164.373 256.95,165.375 C256.95,166.377 257.764,167.19 258.766,167.19 L262.94,167.19 C263.942,167.19 264.755,166.377 264.755,165.375 C264.755,164.373 263.942,163.559 262.94,163.559 L262.94,163.559 Z M275.514,153.483 L265.687,153.483 L267.324,99.824 C265.441,99.526 264,97.895 264,95.928 C264,93.752 265.767,91.985 267.943,91.985 L268.169,91.985 C268.169,91.985 268.701,82.208 269.267,71.801 C269.306,71.093 269.891,70.539 270.6,70.539 C271.31,70.539 271.895,71.093 271.933,71.801 L273.032,91.985 L273.257,91.985 C275.434,91.985 277.201,93.752 277.201,95.928 C277.201,97.895 275.759,99.526 273.876,99.824 L275.514,153.483 Z" id="Fill-2" fill="#78BDC2"></path>
                <path d="M125.407,310.5 L73.6458,310.5 C74.5548,307.262 75.8198,304.046 77.2286,300.534 L126.024,300.534 C125.829,304.047 125.596,307.339 125.407,310.5 L125.407,310.5 Z M124.797,297.66 L80.6671,297.66 C79.7477,297.66 79.0012,296.717 79.0012,295.556 C79.0012,294.394 79.7477,293.451 80.6671,293.451 L124.797,293.451 C125.717,293.451 126.463,294.394 126.463,295.556 C126.463,296.717 125.717,297.66 124.797,297.66 L124.797,297.66 Z M126.399,290.577 L81.0605,290.577 C82.117,287.575 83.1541,284.291 84.0973,280.611 L126.311,280.611 C126.433,284.149 126.45,287.457 126.399,290.577 L126.399,290.577 Z M124.797,277.738 L86.6774,277.738 C85.758,277.738 85.0116,276.795 85.0116,275.633 C85.0116,274.471 85.758,273.528 86.6774,273.528 L124.797,273.528 C125.717,273.528 126.463,274.471 126.463,275.633 C126.463,276.795 125.717,277.738 124.797,277.738 L124.797,277.738 Z M125.712,270.655 L86.1957,270.655 C86.7108,267.582 87.1505,264.272 87.4895,260.689 L124.625,260.689 C125.088,264.194 125.444,267.509 125.712,270.655 L125.712,270.655 Z M122.795,257.815 L88.622,257.815 C87.7026,257.815 86.9562,256.872 86.9562,255.71 C86.9562,254.549 87.7026,253.606 88.622,253.606 L122.795,253.606 C123.714,253.606 124.461,254.549 124.461,255.71 C124.461,256.872 123.714,257.815 122.795,257.815 L122.795,257.815 Z M123.1,250.732 L88.1274,250.732 C88.1765,249.357 88.2116,247.946 88.2319,246.5 C88.2591,244.556 88.1795,242.649 88.0098,240.766 L121.185,240.766 C121.914,244.238 122.549,247.556 123.1,250.732 L123.1,250.732 Z M118.942,237.892 L88.622,237.892 C87.7026,237.892 86.9562,236.949 86.9562,235.788 C86.9562,234.626 87.7026,233.683 88.622,233.683 L118.942,233.683 C119.861,233.683 120.608,234.626 120.608,235.788 C120.608,236.949 119.861,237.892 118.942,237.892 L118.942,237.892 Z M119.361,230.809 L86.334,230.809 C85.555,227.522 84.5863,224.227 83.5237,220.843 L118.227,220.843 C118.534,224.281 118.93,227.735 119.361,230.809 L119.361,230.809 Z M116.325,217.97 L83.5934,217.97 C82.674,217.97 81.9276,217.027 81.9276,215.865 C81.9276,214.703 82.674,213.76 83.5934,213.76 L116.325,213.76 C117.244,213.76 117.991,214.703 117.991,215.865 C117.991,217.027 117.244,217.97 116.325,217.97 L116.325,217.97 Z M117.621,210.887 L80.3217,210.887 C79.3099,207.71 78.2959,204.406 77.3442,200.921 L118.228,200.921 C118.017,202.178 117.849,203.439 117.736,204.718 C117.591,206.382 117.561,208.503 117.621,210.887 L117.621,210.887 Z M117.116,198.047 L77.2414,198.047 C76.322,198.047 75.5756,197.104 75.5756,195.942 C75.5756,194.781 76.322,193.838 77.2414,193.838 L117.116,193.838 C118.035,193.838 118.782,194.781 118.782,195.942 C118.782,197.104 118.035,198.047 117.116,198.047 L117.116,198.047 Z M120.524,190.964 L74.9595,190.964 C74.3164,187.807 73.7539,184.495 73.3074,180.998 L122.949,180.998 C122.194,184.617 121.333,187.879 120.524,190.964 L120.524,190.964 Z M122.795,178.124 L73.8992,178.124 C72.9798,178.124 72.2334,177.181 72.2334,176.02 C72.2334,174.858 72.9798,173.915 73.8992,173.915 L122.795,173.915 C123.714,173.915 124.461,174.858 124.461,176.02 C124.461,177.181 123.714,178.124 122.795,178.124 L122.795,178.124 Z M124.525,171.041 L72.4067,171.041 C72.2708,168.524 72.1979,165.915 72.1979,163.209 L125.048,163.209 C124.969,166 124.785,168.601 124.525,171.041 L124.525,171.041 Z M72.9522,138.082 L124.293,138.082 L124.293,153.992 L124.911,153.992 C125.831,153.992 126.577,154.936 126.577,156.097 C126.577,157.259 125.831,158.202 124.911,158.202 L72.3344,158.202 C71.415,158.202 70.6686,157.259 70.6686,156.097 C70.6686,154.936 71.415,153.992 72.3344,153.992 L72.9522,153.992 L72.9522,138.082 Z" id="Fill-3" fill="#78BDC2"></path>
                <path d="M78.472,237.502 C43.5174,176.959 64.2921,99.427 124.835,64.472 C185.378,29.517 262.91,50.292 297.865,110.835 C332.82,171.378 312.045,248.91 251.502,283.865 C190.959,318.82 113.427,298.045 78.472,237.502 L78.472,237.502 Z" id="Fill-4" fill="#78BDC2"></path>
                <g id="Group-9" transform="translate(70.000000, 70.000000)">
                    <mask id="mask-2" fill="white">
                        <use xlink:href="#path-1"></use>
                    </mask>
                    <g id="Clip-6"></g>
                    <path d="M94.698,117.72 C73.481,80.971 86.091,33.91 122.839,12.694 C159.588,-8.523 206.648,4.087 227.865,40.835 C249.082,77.584 236.472,124.644 199.723,145.861 C162.975,167.078 115.914,154.468 94.698,117.72 L94.698,117.72 Z" id="Fill-5" fill="#E2EFF0" mask="url(#mask-2)"></path>
                    <path d="M198.537,240.5 L175.888,240.5 L175.888,235.44 C195.544,223.989 196.153,133.396 190.504,117.838 L198.537,117.838 L198.537,240.5 Z M225.313,240.5 L202.664,240.5 L202.664,117.838 L210.696,117.838 C205.047,133.396 205.656,223.989 225.313,235.44 L225.313,240.5 Z M223.859,106.195 C223.859,105.387 223.538,104.613 222.967,104.041 C222.396,103.47 221.621,103.149 220.813,103.149 L180.387,103.149 C179.58,103.149 178.805,103.47 178.234,104.041 C177.663,104.613 177.342,105.387 177.342,106.195 L177.342,107.94 C177.342,111.304 180.069,114.031 183.433,114.031 L217.768,114.031 C221.132,114.031 223.859,111.304 223.859,107.94 L223.859,106.195 L223.859,106.195 Z M180.143,93.559 L180.143,91.496 C182.884,91.496 185.11,90.031 185.11,87.29 L216.091,87.29 C216.091,90.031 218.317,91.496 221.058,91.496 L221.058,93.559 L218.009,93.559 C217.007,93.559 216.193,94.373 216.193,95.375 C216.193,96.377 217.007,97.19 218.009,97.19 L221.058,97.19 L221.058,99.342 L203.559,99.342 L180.143,99.342 L180.143,97.19 L183.192,97.19 C184.194,97.19 185.008,96.377 185.008,95.375 C185.008,94.373 184.194,93.559 183.192,93.559 L180.143,93.559 Z M212.435,93.559 L208.261,93.559 C207.259,93.559 206.446,94.373 206.446,95.375 C206.446,96.377 207.259,97.19 208.261,97.19 L212.435,97.19 C213.437,97.19 214.25,96.377 214.25,95.375 C214.25,94.373 213.437,93.559 212.435,93.559 L212.435,93.559 Z M204.503,95.375 C204.503,94.373 203.689,93.559 202.687,93.559 L198.513,93.559 C197.511,93.559 196.698,94.373 196.698,95.375 C196.698,96.377 197.511,97.19 198.513,97.19 L202.687,97.19 C203.689,97.19 204.503,96.377 204.503,95.375 L204.503,95.375 Z M192.94,93.559 L188.766,93.559 C187.764,93.559 186.95,94.373 186.95,95.375 C186.95,96.377 187.764,97.19 188.766,97.19 L192.94,97.19 C193.942,97.19 194.755,96.377 194.755,95.375 C194.755,94.373 193.942,93.559 192.94,93.559 L192.94,93.559 Z M205.514,83.483 L195.687,83.483 L197.324,29.824 C195.441,29.526 194,27.895 194,25.928 C194,23.752 195.767,21.985 197.943,21.985 L198.169,21.985 C198.169,21.985 198.701,12.208 199.267,1.801 C199.306,1.093 199.891,0.539 200.6,0.539 C201.31,0.539 201.895,1.093 201.933,1.801 L203.032,21.985 L203.257,21.985 C205.434,21.985 207.201,23.752 207.201,25.928 C207.201,27.895 205.759,29.526 203.876,29.824 L205.514,83.483 Z" id="Fill-7" fill="#FFFFFF" mask="url(#mask-2)"></path>
                    <path d="M55.407,240.5 L3.6458,240.5 C4.5548,237.262 5.8198,234.046 7.2286,230.534 L56.024,230.534 C55.829,234.047 55.596,237.339 55.407,240.5 L55.407,240.5 Z M54.797,227.66 L10.6671,227.66 C9.7477,227.66 9.0012,226.717 9.0012,225.556 C9.0012,224.394 9.7477,223.451 10.6671,223.451 L54.797,223.451 C55.717,223.451 56.463,224.394 56.463,225.556 C56.463,226.717 55.717,227.66 54.797,227.66 L54.797,227.66 Z M56.399,220.577 L11.0605,220.577 C12.117,217.575 13.1541,214.291 14.0973,210.611 L56.311,210.611 C56.433,214.149 56.45,217.457 56.399,220.577 L56.399,220.577 Z M54.797,207.738 L16.6774,207.738 C15.758,207.738 15.0116,206.795 15.0116,205.633 C15.0116,204.471 15.758,203.528 16.6774,203.528 L54.797,203.528 C55.717,203.528 56.463,204.471 56.463,205.633 C56.463,206.795 55.717,207.738 54.797,207.738 L54.797,207.738 Z M55.712,200.655 L16.1957,200.655 C16.7108,197.582 17.1505,194.272 17.4895,190.689 L54.625,190.689 C55.088,194.194 55.444,197.509 55.712,200.655 L55.712,200.655 Z M52.795,187.815 L18.622,187.815 C17.7026,187.815 16.9562,186.872 16.9562,185.71 C16.9562,184.549 17.7026,183.606 18.622,183.606 L52.795,183.606 C53.714,183.606 54.461,184.549 54.461,185.71 C54.461,186.872 53.714,187.815 52.795,187.815 L52.795,187.815 Z M53.1,180.732 L18.1274,180.732 C18.1765,179.357 18.2116,177.946 18.2319,176.5 C18.2591,174.556 18.1795,172.649 18.0098,170.766 L51.185,170.766 C51.914,174.238 52.549,177.556 53.1,180.732 L53.1,180.732 Z M48.942,167.892 L18.622,167.892 C17.7026,167.892 16.9562,166.949 16.9562,165.788 C16.9562,164.626 17.7026,163.683 18.622,163.683 L48.942,163.683 C49.861,163.683 50.608,164.626 50.608,165.788 C50.608,166.949 49.861,167.892 48.942,167.892 L48.942,167.892 Z M49.361,160.809 L16.334,160.809 C15.555,157.522 14.5863,154.227 13.5237,150.843 L48.227,150.843 C48.534,154.281 48.93,157.735 49.361,160.809 L49.361,160.809 Z M46.325,147.97 L13.5934,147.97 C12.674,147.97 11.9276,147.027 11.9276,145.865 C11.9276,144.703 12.674,143.76 13.5934,143.76 L46.325,143.76 C47.244,143.76 47.991,144.703 47.991,145.865 C47.991,147.027 47.244,147.97 46.325,147.97 L46.325,147.97 Z M47.621,140.887 L10.3217,140.887 C9.3099,137.71 8.2959,134.406 7.3442,130.921 L48.228,130.921 C48.017,132.178 47.849,133.439 47.736,134.718 C47.591,136.382 47.561,138.503 47.621,140.887 L47.621,140.887 Z M47.116,128.047 L7.2414,128.047 C6.322,128.047 5.5756,127.104 5.5756,125.942 C5.5756,124.781 6.322,123.838 7.2414,123.838 L47.116,123.838 C48.035,123.838 48.782,124.781 48.782,125.942 C48.782,127.104 48.035,128.047 47.116,128.047 L47.116,128.047 Z M50.524,120.964 L4.9595,120.964 C4.3164,117.807 3.7539,114.495 3.3074,110.998 L52.949,110.998 C52.194,114.617 51.333,117.879 50.524,120.964 L50.524,120.964 Z M52.795,108.124 L3.8992,108.124 C2.9798,108.124 2.2334,107.181 2.2334,106.02 C2.2334,104.858 2.9798,103.915 3.8992,103.915 L52.795,103.915 C53.714,103.915 54.461,104.858 54.461,106.02 C54.461,107.181 53.714,108.124 52.795,108.124 L52.795,108.124 Z M54.525,101.041 L2.4067,101.041 C2.2708,98.524 2.1979,95.915 2.1979,93.209 L55.048,93.209 C54.969,96 54.785,98.601 54.525,101.041 L54.525,101.041 Z M2.9522,68.082 L54.293,68.082 L54.293,83.992 L54.911,83.992 C55.831,83.992 56.577,84.936 56.577,86.097 C56.577,87.259 55.831,88.202 54.911,88.202 L2.3344,88.202 C1.415,88.202 0.6686,87.259 0.6686,86.097 C0.6686,84.936 1.415,83.992 2.3344,83.992 L2.9522,83.992 L2.9522,68.082 Z" id="Fill-8" fill="#FFFFFF" mask="url(#mask-2)"></path>
                </g>
                <path d="M119.966,93.097 C119.966,88.681 116.381,85.097 111.966,85.097 L84.0346,85.097 C79.6196,85.097 76.0351,88.681 76.0351,93.097 C76.0351,97.512 79.6196,101.096 84.0346,101.096 L111.966,101.096 C116.381,101.096 119.966,97.512 119.966,93.097 L119.966,93.097 Z" id="Fill-10" fill="#FFFFFF"></path>
                <path d="M90.0009,125.095 C90.0009,120.68 86.4164,117.095 82.0014,117.095 L62.1987,117.095 C57.7836,117.095 54.1991,120.68 54.1991,125.095 C54.1991,129.51 57.7836,133.094 62.1987,133.094 L82.0014,133.094 C86.4164,133.094 90.0009,129.51 90.0009,125.095 L90.0009,125.095 Z" id="Fill-11" fill="#FFFFFF"></path>
                <path d="M333.996,141.094 C333.996,136.679 330.411,133.094 325.996,133.094 L298.5,133.094 C294.084,133.094 290.5,136.679 290.5,141.094 C290.5,145.509 294.084,149.093 298.5,149.093 L325.996,149.093 C330.411,149.093 333.996,145.509 333.996,141.094 L333.996,141.094 Z" id="Fill-12" fill="#FFFFFF"></path>
                <path d="M98.0004,109.096 C98.0004,104.68 94.4159,101.096 90.0009,101.096 L54.1991,101.096 C49.7841,101.096 46.1996,104.68 46.1996,109.096 C46.1996,113.511 49.7841,117.095 54.1991,117.095 L90.0009,117.095 C94.4159,117.095 98.0004,113.511 98.0004,109.096 L98.0004,109.096 Z" id="Fill-13" fill="#78BDC2"></path>
                <path d="M165.76,157.093 C165.76,152.678 162.175,149.093 157.76,149.093 L147.5,149.093 C143.084,149.093 139.5,152.678 139.5,157.093 C139.5,161.508 143.084,165.092 147.5,165.092 L157.76,165.092 C162.175,165.092 165.76,161.508 165.76,157.093 L165.76,157.093 Z" id="Fill-14" fill="#E2EFF0"></path>
                <path d="M203.965,93.097 C203.965,88.681 200.38,85.097 195.965,85.097 L160.164,85.097 C155.748,85.097 152.164,88.681 152.164,93.097 C152.164,97.512 155.748,101.096 160.164,101.096 L195.965,101.096 C200.38,101.096 203.965,97.512 203.965,93.097 L203.965,93.097 Z" id="Fill-15" fill="#E2EFF0"></path>
                <path d="M187.5,173.092 C187.5,168.677 183.916,165.092 179.5,165.092 L156.5,165.092 C152.084,165.092 148.5,168.677 148.5,173.092 C148.5,177.507 152.084,181.091 156.5,181.091 L179.5,181.091 C183.916,181.091 187.5,177.507 187.5,173.092 L187.5,173.092 Z" id="Fill-16" fill="#78BDC2"></path>
                <path d="M341.995,125.095 C341.995,120.68 338.411,117.095 333.996,117.095 L300.5,117.095 C296.084,117.095 292.5,120.68 292.5,125.095 C292.5,129.51 296.084,133.094 300.5,133.094 L333.996,133.094 C338.411,133.094 341.995,129.51 341.995,125.095 L341.995,125.095 Z" id="Fill-17" fill="#E2EFF0"></path>
                <polygon id="Fill-18" fill="#AE7916" points="121.283 329.659 246.076 329.659 246.076 299.5231 121.283 299.5231"></polygon>
                <path d="M223.449,320.893 C227.403,320.893 230.614,324.103 230.614,328.058 C230.614,332.012 227.403,335.223 223.449,335.223 C219.494,335.223 216.283,332.012 216.283,328.058 C216.283,324.103 219.494,320.893 223.449,320.893 L223.449,320.893 Z" id="Fill-19" fill="#C4C4C4"></path>
                <path d="M223.646,312.633 L223.842,312.637 L224.039,312.643 L224.236,312.652 L224.431,312.663 L224.627,312.677 L224.822,312.693 L225.016,312.711 L225.21,312.732 L225.403,312.756 L225.596,312.781 L225.788,312.81 L225.98,312.84 L226.171,312.873 L226.361,312.908 L226.549,312.946 L226.738,312.985 L226.926,313.028 L227.112,313.072 L227.298,313.119 L227.483,313.167 L227.668,313.219 L227.852,313.272 L228.034,313.328 L228.216,313.386 L228.395,313.445 L228.574,313.507 L228.754,313.572 L228.931,313.638 L229.107,313.706 L229.282,313.776 L229.456,313.848 L229.63,313.923 L229.802,314 L229.972,314.078 L230.141,314.159 L230.309,314.241 L230.477,314.325 L230.643,314.412 L230.808,314.5 L230.97,314.59 L231.132,314.682 L231.294,314.776 L231.454,314.872 L231.612,314.97 L231.769,315.069 L231.925,315.17 L232.079,315.273 L232.232,315.378 L232.383,315.484 L232.533,315.592 L232.682,315.702 L232.829,315.813 L232.976,315.927 L233.121,316.043 L233.264,316.159 L233.405,316.277 L233.546,316.397 L233.684,316.519 L233.821,316.642 L233.957,316.767 L234.092,316.894 L234.224,317.022 L234.355,317.15 L234.485,317.282 L234.613,317.415 L234.74,317.55 L234.864,317.685 L234.987,317.822 L235.109,317.961 L235.229,318.101 L235.347,318.242 L235.464,318.386 L235.579,318.531 L235.693,318.676 L235.804,318.823 L235.914,318.973 L236.022,319.123 L236.128,319.273 L236.234,319.428 L236.337,319.582 L236.437,319.737 L236.537,319.894 L236.634,320.052 L236.73,320.212 L236.824,320.373 L236.916,320.535 L237.006,320.699 L237.095,320.864 L237.181,321.029 L237.265,321.197 L237.347,321.365 L237.428,321.534 L237.506,321.705 L237.583,321.877 L237.658,322.05 L237.73,322.224 L237.801,322.4 L237.869,322.576 L237.935,322.752 L237.999,322.931 L238.061,323.111 L238.121,323.291 L238.179,323.473 L238.234,323.655 L238.287,323.838 L238.339,324.023 L238.388,324.208 L238.434,324.393 L238.479,324.581 L238.521,324.768 L238.56,324.956 L238.598,325.146 L238.633,325.336 L238.666,325.526 L238.697,325.718 L238.725,325.91 L238.751,326.103 L238.774,326.297 L238.795,326.49 L238.813,326.684 L238.83,326.879 L238.843,327.075 L238.854,327.27 L238.863,327.467 L238.869,327.663 L238.873,327.86 L238.874,328.058 L238.873,328.255 L238.869,328.452 L238.863,328.649 L238.854,328.845 L238.843,329.041 L238.83,329.237 L238.813,329.431 L238.795,329.626 L238.774,329.819 L238.751,330.012 L238.725,330.205 L238.697,330.398 L238.666,330.589 L238.633,330.779 L238.598,330.969 L238.56,331.159 L238.521,331.347 L238.479,331.535 L238.434,331.722 L238.388,331.907 L238.339,332.092 L238.288,332.277 L238.234,332.461 L238.178,332.643 L238.121,332.824 L238.061,333.004 L237.999,333.184 L237.935,333.363 L237.869,333.539 L237.801,333.716 L237.73,333.891 L237.658,334.065 L237.583,334.238 L237.506,334.41 L237.428,334.581 L237.347,334.751 L237.265,334.919 L237.181,335.085 L237.095,335.252 L237.006,335.417 L236.916,335.58 L236.824,335.743 L236.73,335.904 L236.634,336.063 L236.537,336.221 L236.437,336.378 L236.337,336.534 L236.234,336.687 L236.129,336.841 L236.022,336.994 L235.914,337.143 L235.804,337.291 L235.693,337.438 L235.579,337.585 L235.464,337.73 L235.347,337.874 L235.229,338.014 L235.11,338.154 L234.987,338.293 L234.864,338.431 L234.739,338.567 L234.613,338.7 L234.486,338.832 L234.355,338.965 L234.223,339.095 L234.092,339.222 L233.958,339.348 L233.821,339.474 L233.683,339.597 L233.546,339.718 L233.405,339.838 L233.263,339.957 L233.122,340.072 L232.976,340.189 L232.829,340.302 L232.682,340.414 L232.533,340.523 L232.384,340.631 L232.233,340.737 L232.079,340.843 L231.923,340.947 L231.769,341.047 L231.612,341.146 L231.453,341.244 L231.295,341.339 L231.134,341.433 L230.971,341.525 L230.807,341.616 L230.643,341.704 L230.478,341.79 L230.309,341.874 L230.141,341.957 L229.973,342.037 L229.801,342.116 L229.629,342.192 L229.457,342.267 L229.282,342.339 L229.106,342.41 L228.93,342.478 L228.754,342.544 L228.575,342.608 L228.394,342.671 L228.215,342.73 L228.035,342.787 L227.853,342.843 L227.668,342.897 L227.483,342.948 L227.298,342.997 L227.113,343.043 L226.926,343.088 L226.738,343.13 L226.55,343.17 L226.36,343.207 L226.17,343.243 L225.98,343.275 L225.787,343.306 L225.595,343.334 L225.405,343.36 L225.211,343.383 L225.014,343.404 L224.822,343.423 L224.628,343.439 L224.43,343.452 L224.235,343.464 L224.039,343.472 L223.844,343.478 L223.647,343.482 L223.449,343.484 L223.25,343.482 L223.053,343.478 L222.858,343.472 L222.662,343.464 L222.467,343.452 L222.269,343.439 L222.075,343.423 L221.883,343.404 L221.686,343.383 L221.492,343.36 L221.302,343.334 L221.11,343.306 L220.917,343.275 L220.727,343.243 L220.537,343.207 L220.347,343.17 L220.159,343.13 L219.972,343.088 L219.784,343.043 L219.598,342.997 L219.414,342.948 L219.229,342.897 L219.045,342.843 L218.862,342.787 L218.682,342.73 L218.503,342.671 L218.322,342.608 L218.143,342.544 L217.966,342.478 L217.791,342.41 L217.616,342.34 L217.44,342.267 L217.268,342.192 L217.096,342.116 L216.925,342.037 L216.756,341.957 L216.588,341.874 L216.42,341.79 L216.254,341.704 L216.09,341.616 L215.926,341.525 L215.763,341.433 L215.602,341.339 L215.444,341.244 L215.285,341.146 L215.128,341.047 L214.973,340.946 L214.819,340.843 L214.665,340.738 L214.513,340.631 L214.363,340.523 L214.215,340.414 L214.068,340.302 L213.921,340.188 L213.776,340.073 L213.634,339.957 L213.491,339.838 L213.351,339.718 L213.214,339.597 L213.075,339.473 L212.939,339.348 L212.806,339.222 L212.674,339.095 L212.542,338.964 L212.411,338.832 L212.285,338.701 L212.159,338.568 L212.033,338.43 L211.91,338.293 L211.788,338.154 L211.668,338.014 L211.55,337.873 L211.433,337.73 L211.318,337.585 L211.205,337.439 L211.093,337.291 L210.983,337.143 L210.875,336.994 L210.768,336.841 L210.663,336.688 L210.561,336.534 L210.46,336.378 L210.36,336.22 L210.262,336.062 L210.167,335.904 L210.073,335.743 L209.981,335.58 L209.891,335.417 L209.802,335.252 L209.716,335.086 L209.632,334.92 L209.549,334.751 L209.469,334.58 L209.391,334.41 L209.314,334.238 L209.239,334.065 L209.167,333.891 L209.097,333.717 L209.028,333.539 L208.962,333.362 L208.898,333.184 L208.836,333.005 L208.776,332.825 L208.718,332.642 L208.663,332.46 L208.609,332.277 L208.558,332.092 L208.509,331.907 L208.463,331.722 L208.419,331.536 L208.376,331.347 L208.336,331.158 L208.299,330.969 L208.264,330.78 L208.231,330.589 L208.2,330.397 L208.172,330.205 L208.146,330.013 L208.123,329.82 L208.102,329.626 L208.083,329.43 L208.067,329.236 L208.054,329.042 L208.043,328.845 L208.034,328.649 L208.028,328.452 L208.024,328.254 L208.023,328.058 L208.024,327.861 L208.028,327.663 L208.034,327.467 L208.043,327.27 L208.054,327.074 L208.067,326.88 L208.083,326.685 L208.102,326.49 L208.123,326.296 L208.146,326.102 L208.172,325.91 L208.2,325.719 L208.231,325.526 L208.264,325.335 L208.299,325.146 L208.336,324.957 L208.376,324.768 L208.419,324.58 L208.463,324.393 L208.509,324.208 L208.558,324.023 L208.61,323.838 L208.663,323.656 L208.718,323.474 L208.776,323.291 L208.836,323.11 L208.898,322.931 L208.962,322.753 L209.028,322.576 L209.097,322.399 L209.167,322.224 L209.239,322.05 L209.314,321.877 L209.391,321.705 L209.469,321.535 L209.549,321.365 L209.632,321.196 L209.717,321.029 L209.802,320.864 L209.891,320.699 L209.981,320.535 L210.073,320.373 L210.167,320.212 L210.262,320.053 L210.36,319.895 L210.46,319.737 L210.561,319.581 L210.664,319.427 L210.768,319.274 L210.875,319.123 L210.983,318.973 L211.093,318.823 L211.205,318.676 L211.318,318.531 L211.433,318.386 L211.55,318.243 L211.668,318.101 L211.788,317.961 L211.91,317.822 L212.033,317.685 L212.158,317.549 L212.285,317.414 L212.412,317.282 L212.542,317.151 L212.673,317.022 L212.806,316.893 L212.94,316.767 L213.075,316.642 L213.213,316.519 L213.351,316.397 L213.491,316.277 L213.633,316.159 L213.776,316.042 L213.921,315.927 L214.068,315.813 L214.215,315.702 L214.363,315.592 L214.514,315.484 L214.665,315.377 L214.818,315.273 L214.972,315.17 L215.128,315.069 L215.285,314.969 L215.443,314.872 L215.603,314.776 L215.764,314.682 L215.927,314.59 L216.089,314.5 L216.254,314.412 L216.421,314.325 L216.588,314.241 L216.756,314.159 L216.926,314.078 L217.095,314 L217.267,313.923 L217.441,313.848 L217.616,313.776 L217.79,313.706 L217.966,313.638 L218.143,313.572 L218.323,313.507 L218.502,313.445 L218.681,313.386 L218.863,313.328 L219.046,313.272 L219.229,313.219 L219.414,313.168 L219.598,313.119 L219.785,313.072 L219.972,313.028 L220.159,312.985 L220.348,312.946 L220.536,312.908 L220.726,312.873 L220.917,312.84 L221.109,312.81 L221.301,312.781 L221.494,312.756 L221.687,312.732 L221.88,312.711 L222.075,312.693 L222.27,312.677 L222.466,312.663 L222.661,312.652 L222.858,312.643 L223.055,312.637 L223.251,312.633 L223.449,312.632 L223.646,312.633 Z M223.356,320.893 L223.264,320.895 L223.172,320.898 L223.08,320.902 L222.989,320.907 L222.898,320.913 L222.807,320.921 L222.716,320.93 L222.626,320.939 L222.536,320.95 L222.447,320.962 L222.358,320.975 L222.269,320.989 L222.181,321.005 L222.093,321.021 L222.005,321.038 L221.918,321.057 L221.831,321.076 L221.745,321.097 L221.659,321.118 L221.573,321.141 L221.488,321.165 L221.403,321.189 L221.319,321.215 L221.235,321.242 L221.151,321.269 L221.068,321.298 L220.986,321.328 L220.904,321.358 L220.822,321.39 L220.741,321.422 L220.661,321.456 L220.581,321.49 L220.501,321.526 L220.422,321.562 L220.343,321.6 L220.265,321.638 L220.188,321.677 L220.111,321.717 L220.034,321.758 L219.958,321.8 L219.883,321.842 L219.808,321.886 L219.734,321.93 L219.661,321.976 L219.588,322.022 L219.515,322.069 L219.444,322.117 L219.372,322.166 L219.302,322.215 L219.232,322.266 L219.163,322.317 L219.094,322.369 L219.026,322.422 L218.959,322.475 L218.892,322.53 L218.826,322.585 L218.76,322.641 L218.696,322.697 L218.632,322.755 L218.569,322.813 L218.506,322.872 L218.444,322.932 L218.383,322.992 L218.323,323.053 L218.263,323.115 L218.204,323.178 L218.146,323.241 L218.088,323.305 L218.031,323.37 L217.976,323.435 L217.92,323.501 L217.866,323.568 L217.812,323.635 L217.76,323.703 L217.708,323.772 L217.656,323.841 L217.606,323.911 L217.556,323.982 L217.508,324.053 L217.46,324.125 L217.413,324.197 L217.367,324.27 L217.321,324.343 L217.277,324.418 L217.233,324.492 L217.19,324.568 L217.149,324.644 L217.108,324.72 L217.068,324.797 L217.029,324.874 L216.99,324.952 L216.953,325.031 L216.917,325.11 L216.881,325.19 L216.847,325.27 L216.813,325.35 L216.781,325.431 L216.749,325.513 L216.718,325.595 L216.689,325.678 L216.66,325.761 L216.632,325.844 L216.606,325.928 L216.58,326.012 L216.555,326.097 L216.532,326.182 L216.509,326.268 L216.487,326.354 L216.467,326.44 L216.447,326.527 L216.429,326.614 L216.412,326.702 L216.395,326.79 L216.38,326.878 L216.366,326.967 L216.353,327.056 L216.341,327.146 L216.33,327.235 L216.32,327.326 L216.312,327.416 L216.304,327.507 L216.298,327.598 L216.293,327.689 L216.289,327.781 L216.286,327.873 L216.284,327.965 L216.283,328.058 L216.284,328.15 L216.286,328.243 L216.289,328.335 L216.293,328.426 L216.298,328.518 L216.304,328.609 L216.312,328.699 L216.32,328.79 L216.33,328.88 L216.341,328.97 L216.353,329.059 L216.366,329.148 L216.38,329.237 L216.395,329.325 L216.412,329.413 L216.429,329.501 L216.447,329.588 L216.467,329.675 L216.487,329.761 L216.509,329.848 L216.532,329.933 L216.555,330.018 L216.58,330.103 L216.606,330.187 L216.632,330.271 L216.66,330.355 L216.689,330.438 L216.718,330.52 L216.749,330.602 L216.781,330.684 L216.813,330.765 L216.847,330.846 L216.881,330.926 L216.917,331.005 L216.953,331.084 L216.99,331.163 L217.029,331.241 L217.068,331.319 L217.108,331.395 L217.149,331.472 L217.19,331.548 L217.233,331.623 L217.277,331.698 L217.321,331.772 L217.367,331.846 L217.413,331.919 L217.46,331.991 L217.508,332.063 L217.556,332.134 L217.606,332.204 L217.656,332.274 L217.708,332.344 L217.76,332.412 L217.812,332.48 L217.866,332.548 L217.92,332.614 L217.976,332.68 L218.031,332.746 L218.088,332.81 L218.146,332.874 L218.204,332.938 L218.263,333 L218.323,333.062 L218.383,333.123 L218.444,333.184 L218.506,333.243 L218.569,333.302 L218.632,333.361 L218.696,333.418 L218.76,333.475 L218.826,333.531 L218.892,333.586 L218.959,333.64 L219.026,333.694 L219.094,333.747 L219.163,333.799 L219.232,333.85 L219.302,333.9 L219.372,333.95 L219.444,333.999 L219.515,334.046 L219.588,334.093 L219.661,334.14 L219.734,334.185 L219.808,334.229 L219.883,334.273 L219.958,334.316 L220.034,334.358 L220.111,334.399 L220.188,334.439 L220.265,334.478 L220.343,334.516 L220.422,334.553 L220.501,334.59 L220.581,334.625 L220.661,334.659 L220.741,334.693 L220.822,334.726 L220.904,334.757 L220.986,334.788 L221.068,334.817 L221.151,334.846 L221.235,334.874 L221.319,334.901 L221.403,334.926 L221.488,334.951 L221.573,334.975 L221.659,334.997 L221.745,335.019 L221.831,335.039 L221.918,335.059 L222.005,335.077 L222.093,335.095 L222.181,335.111 L222.269,335.126 L222.358,335.14 L222.447,335.153 L222.536,335.165 L222.626,335.176 L222.716,335.186 L222.807,335.195 L222.898,335.202 L222.989,335.208 L223.08,335.214 L223.172,335.218 L223.264,335.221 L223.356,335.222 L223.449,335.223 L223.541,335.222 L223.633,335.221 L223.725,335.218 L223.817,335.214 L223.908,335.208 L223.999,335.202 L224.09,335.195 L224.181,335.186 L224.271,335.176 L224.361,335.165 L224.45,335.153 L224.539,335.14 L224.628,335.126 L224.716,335.111 L224.804,335.095 L224.892,335.077 L224.979,335.059 L225.066,335.039 L225.152,335.019 L225.238,334.997 L225.324,334.975 L225.409,334.951 L225.494,334.926 L225.578,334.901 L225.662,334.874 L225.746,334.846 L225.829,334.817 L225.911,334.788 L225.993,334.757 L226.075,334.726 L226.156,334.693 L226.236,334.659 L226.317,334.625 L226.396,334.59 L226.475,334.553 L226.554,334.516 L226.632,334.478 L226.709,334.439 L226.786,334.399 L226.863,334.358 L226.939,334.316 L227.014,334.273 L227.089,334.229 L227.163,334.185 L227.236,334.14 L227.309,334.093 L227.382,334.046 L227.453,333.999 L227.525,333.95 L227.595,333.9 L227.665,333.85 L227.734,333.799 L227.803,333.747 L227.871,333.694 L227.938,333.64 L228.005,333.586 L228.071,333.531 L228.137,333.475 L228.201,333.418 L228.265,333.361 L228.328,333.302 L228.391,333.243 L228.453,333.184 L228.514,333.123 L228.575,333.062 L228.634,333 L228.693,332.938 L228.751,332.874 L228.809,332.81 L228.866,332.746 L228.922,332.68 L228.977,332.614 L229.031,332.548 L229.085,332.48 L229.137,332.412 L229.189,332.344 L229.241,332.274 L229.291,332.204 L229.341,332.134 L229.389,332.063 L229.437,331.991 L229.484,331.919 L229.53,331.846 L229.576,331.772 L229.62,331.698 L229.664,331.623 L229.707,331.548 L229.748,331.472 L229.789,331.395 L229.829,331.319 L229.868,331.241 L229.907,331.163 L229.944,331.084 L229.98,331.005 L230.016,330.926 L230.05,330.846 L230.084,330.765 L230.116,330.684 L230.148,330.602 L230.179,330.52 L230.208,330.438 L230.237,330.355 L230.265,330.271 L230.291,330.187 L230.317,330.103 L230.342,330.018 L230.365,329.933 L230.388,329.848 L230.41,329.761 L230.43,329.675 L230.45,329.588 L230.468,329.501 L230.485,329.413 L230.502,329.325 L230.517,329.237 L230.531,329.148 L230.544,329.059 L230.556,328.97 L230.567,328.88 L230.577,328.79 L230.585,328.699 L230.593,328.609 L230.599,328.518 L230.604,328.426 L230.608,328.335 L230.611,328.243 L230.613,328.15 L230.614,328.058 L230.613,327.965 L230.611,327.873 L230.608,327.781 L230.604,327.689 L230.599,327.598 L230.593,327.507 L230.585,327.416 L230.577,327.326 L230.567,327.235 L230.556,327.146 L230.544,327.056 L230.531,326.967 L230.517,326.878 L230.502,326.79 L230.485,326.702 L230.468,326.614 L230.45,326.527 L230.43,326.44 L230.41,326.354 L230.388,326.268 L230.365,326.182 L230.342,326.097 L230.317,326.012 L230.291,325.928 L230.265,325.844 L230.237,325.761 L230.208,325.678 L230.179,325.595 L230.148,325.513 L230.116,325.431 L230.084,325.35 L230.05,325.27 L230.016,325.19 L229.98,325.11 L229.944,325.031 L229.907,324.952 L229.868,324.874 L229.829,324.797 L229.789,324.72 L229.748,324.644 L229.707,324.568 L229.664,324.492 L229.62,324.418 L229.576,324.343 L229.53,324.27 L229.484,324.197 L229.437,324.125 L229.389,324.053 L229.341,323.982 L229.291,323.911 L229.241,323.841 L229.189,323.772 L229.137,323.703 L229.085,323.635 L229.031,323.568 L228.977,323.501 L228.922,323.435 L228.866,323.37 L228.809,323.305 L228.751,323.241 L228.693,323.178 L228.634,323.115 L228.575,323.053 L228.514,322.992 L228.453,322.932 L228.391,322.872 L228.328,322.813 L228.265,322.755 L228.201,322.697 L228.137,322.641 L228.071,322.585 L228.005,322.53 L227.938,322.475 L227.871,322.422 L227.803,322.369 L227.734,322.317 L227.665,322.266 L227.595,322.215 L227.525,322.166 L227.453,322.117 L227.382,322.069 L227.309,322.022 L227.236,321.976 L227.163,321.93 L227.089,321.886 L227.014,321.842 L226.939,321.8 L226.863,321.758 L226.786,321.717 L226.709,321.677 L226.632,321.638 L226.554,321.6 L226.475,321.562 L226.396,321.526 L226.317,321.49 L226.236,321.456 L226.156,321.422 L226.075,321.39 L225.993,321.358 L225.911,321.328 L225.829,321.298 L225.746,321.269 L225.662,321.242 L225.578,321.215 L225.494,321.189 L225.409,321.165 L225.324,321.141 L225.238,321.118 L225.152,321.097 L225.066,321.076 L224.979,321.057 L224.892,321.038 L224.804,321.021 L224.716,321.005 L224.628,320.989 L224.539,320.975 L224.45,320.962 L224.361,320.95 L224.271,320.939 L224.181,320.93 L224.09,320.921 L223.999,320.913 L223.908,320.907 L223.817,320.902 L223.725,320.898 L223.633,320.895 L223.541,320.893 L223.449,320.893 L223.356,320.893 Z" id="Fill-20" fill="#2E3F53"></path>
                <path d="M146.83,317.02 C150.785,317.02 153.995,320.231 153.995,324.186 C153.995,328.14 150.785,331.351 146.83,331.351 C142.876,331.351 139.665,328.14 139.665,324.186 C139.665,320.231 142.876,317.02 146.83,317.02 L146.83,317.02 Z" id="Fill-21" fill="#C4C4C4"></path>
                <path d="M147.027,308.761 L147.225,308.765 L147.422,308.771 L147.617,308.78 L147.813,308.791 L148.008,308.805 L148.203,308.821 L148.398,308.839 L148.592,308.86 L148.786,308.884 L148.978,308.909 L149.17,308.937 L149.361,308.968 L149.552,309.001 L149.742,309.036 L149.932,309.074 L150.12,309.113 L150.307,309.155 L150.495,309.2 L150.68,309.247 L150.865,309.295 L151.05,309.347 L151.233,309.4 L151.414,309.455 L151.596,309.513 L151.778,309.573 L151.957,309.635 L152.135,309.699 L152.312,309.765 L152.489,309.834 L152.664,309.904 L152.838,309.977 L153.011,310.051 L153.183,310.127 L153.354,310.206 L153.523,310.287 L153.691,310.369 L153.859,310.454 L154.024,310.54 L154.189,310.628 L154.352,310.718 L154.515,310.81 L154.676,310.904 L154.836,311 L154.993,311.097 L155.15,311.196 L155.307,311.298 L155.461,311.401 L155.613,311.505 L155.765,311.612 L155.915,311.72 L156.064,311.83 L156.212,311.942 L156.358,312.055 L156.503,312.17 L156.645,312.286 L156.787,312.405 L156.927,312.525 L157.066,312.647 L157.203,312.77 L157.339,312.895 L157.473,313.021 L157.606,313.149 L157.737,313.279 L157.867,313.41 L157.995,313.543 L158.121,313.677 L158.246,313.813 L158.369,313.95 L158.49,314.088 L158.61,314.229 L158.729,314.371 L158.846,314.514 L158.961,314.658 L159.074,314.804 L159.186,314.952 L159.295,315.1 L159.404,315.251 L159.511,315.403 L159.615,315.556 L159.718,315.709 L159.819,315.865 L159.919,316.023 L160.016,316.181 L160.112,316.34 L160.205,316.501 L160.298,316.663 L160.388,316.827 L160.476,316.991 L160.562,317.157 L160.647,317.325 L160.729,317.493 L160.81,317.662 L160.888,317.833 L160.965,318.005 L161.039,318.178 L161.112,318.352 L161.182,318.527 L161.25,318.703 L161.317,318.881 L161.381,319.059 L161.443,319.239 L161.503,319.419 L161.56,319.6 L161.616,319.783 L161.669,319.967 L161.72,320.15 L161.769,320.335 L161.816,320.522 L161.86,320.708 L161.902,320.896 L161.942,321.085 L161.98,321.273 L162.015,321.464 L162.048,321.655 L162.078,321.846 L162.106,322.038 L162.132,322.23 L162.156,322.424 L162.177,322.618 L162.195,322.812 L162.211,323.007 L162.225,323.203 L162.236,323.398 L162.245,323.595 L162.251,323.791 L162.255,323.988 L162.256,324.186 L162.255,324.383 L162.251,324.58 L162.245,324.776 L162.236,324.973 L162.225,325.169 L162.211,325.364 L162.195,325.559 L162.177,325.753 L162.156,325.947 L162.132,326.141 L162.106,326.333 L162.078,326.525 L162.048,326.716 L162.015,326.908 L161.98,327.098 L161.942,327.287 L161.902,327.475 L161.86,327.663 L161.816,327.85 L161.769,328.036 L161.72,328.221 L161.669,328.405 L161.616,328.588 L161.56,328.771 L161.502,328.952 L161.443,329.133 L161.381,329.312 L161.317,329.49 L161.25,329.668 L161.182,329.844 L161.112,330.019 L161.039,330.194 L160.965,330.366 L160.888,330.538 L160.81,330.709 L160.729,330.878 L160.647,331.047 L160.562,331.214 L160.476,331.38 L160.388,331.545 L160.298,331.708 L160.205,331.871 L160.112,332.031 L160.016,332.191 L159.919,332.349 L159.819,332.506 L159.718,332.661 L159.615,332.816 L159.51,332.969 L159.404,333.121 L159.296,333.271 L159.186,333.419 L159.074,333.567 L158.961,333.713 L158.846,333.857 L158.729,334.001 L158.61,334.143 L158.491,334.282 L158.369,334.421 L158.246,334.558 L158.121,334.694 L157.994,334.829 L157.866,334.961 L157.737,335.093 L157.606,335.221 L157.473,335.35 L157.339,335.476 L157.203,335.602 L157.065,335.725 L156.927,335.847 L156.787,335.966 L156.646,336.084 L156.502,336.201 L156.358,336.316 L156.213,336.429 L156.064,336.542 L155.915,336.651 L155.764,336.76 L155.613,336.866 L155.462,336.97 L155.307,337.073 L155.151,337.175 L154.994,337.274 L154.835,337.372 L154.675,337.468 L154.514,337.562 L154.352,337.653 L154.19,337.743 L154.026,337.831 L153.857,337.919 L153.691,338.002 L153.523,338.085 L153.352,338.166 L153.183,338.244 L153.012,338.319 L152.838,338.395 L152.663,338.467 L152.49,338.537 L152.312,338.606 L152.134,338.672 L151.957,338.736 L151.778,338.798 L151.596,338.858 L151.416,338.915 L151.232,338.972 L151.048,339.025 L150.867,339.075 L150.682,339.124 L150.493,339.172 L150.307,339.216 L150.12,339.258 L149.93,339.298 L149.744,339.335 L149.554,339.37 L149.359,339.404 L149.169,339.434 L148.979,339.462 L148.785,339.488 L148.592,339.511 L148.398,339.532 L148.204,339.551 L148.01,339.567 L147.812,339.58 L147.616,339.592 L147.421,339.6 L147.224,339.606 L147.027,339.61 L146.83,339.611 L146.633,339.61 L146.437,339.606 L146.239,339.6 L146.044,339.592 L145.848,339.58 L145.65,339.567 L145.456,339.551 L145.262,339.532 L145.068,339.511 L144.876,339.488 L144.681,339.462 L144.491,339.434 L144.301,339.404 L144.107,339.37 L143.917,339.335 L143.731,339.298 L143.541,339.258 L143.353,339.216 L143.168,339.172 L142.978,339.124 L142.793,339.075 L142.612,339.025 L142.428,338.971 L142.244,338.915 L142.064,338.858 L141.882,338.798 L141.703,338.736 L141.527,338.673 L141.348,338.606 L141.171,338.537 L140.997,338.467 L140.822,338.395 L140.648,338.319 L140.478,338.244 L140.308,338.166 L140.138,338.085 L139.969,338.002 L139.803,337.919 L139.634,337.831 L139.47,337.743 L139.308,337.653 L139.146,337.562 L138.985,337.468 L138.826,337.372 L138.666,337.274 L138.509,337.175 L138.354,337.073 L138.199,336.97 L138.048,336.866 L137.896,336.76 L137.745,336.651 L137.597,336.542 L137.448,336.429 L137.303,336.316 L137.159,336.202 L137.014,336.084 L136.873,335.966 L136.733,335.846 L136.595,335.725 L136.458,335.602 L136.321,335.476 L136.187,335.35 L136.054,335.221 L135.923,335.092 L135.794,334.962 L135.666,334.829 L135.539,334.694 L135.415,334.558 L135.291,334.421 L135.169,334.282 L135.05,334.143 L134.931,334 L134.815,333.858 L134.7,333.713 L134.586,333.567 L134.474,333.419 L134.364,333.271 L134.256,333.121 L134.15,332.969 L134.045,332.816 L133.942,332.662 L133.841,332.506 L133.742,332.349 L133.644,332.191 L133.549,332.031 L133.455,331.87 L133.362,331.708 L133.272,331.545 L133.184,331.38 L133.098,331.214 L133.014,331.047 L132.931,330.878 L132.851,330.709 L132.772,330.538 L132.696,330.366 L132.621,330.193 L132.549,330.019 L132.478,329.844 L132.41,329.668 L132.344,329.491 L132.28,329.312 L132.218,329.133 L132.158,328.952 L132.1,328.77 L132.045,328.589 L131.991,328.405 L131.94,328.22 L131.891,328.035 L131.844,327.85 L131.8,327.663 L131.758,327.475 L131.718,327.287 L131.681,327.098 L131.645,326.907 L131.612,326.717 L131.582,326.526 L131.554,326.333 L131.528,326.14 L131.505,325.947 L131.484,325.754 L131.465,325.559 L131.449,325.364 L131.435,325.169 L131.424,324.973 L131.416,324.777 L131.409,324.58 L131.406,324.383 L131.404,324.186 L131.406,323.988 L131.409,323.791 L131.416,323.594 L131.424,323.398 L131.435,323.203 L131.449,323.007 L131.465,322.812 L131.484,322.618 L131.505,322.424 L131.528,322.231 L131.554,322.038 L131.582,321.846 L131.612,321.654 L131.645,321.464 L131.681,321.273 L131.718,321.084 L131.758,320.896 L131.8,320.708 L131.844,320.522 L131.891,320.336 L131.94,320.151 L131.991,319.966 L132.045,319.782 L132.1,319.601 L132.158,319.419 L132.218,319.239 L132.28,319.059 L132.344,318.881 L132.41,318.703 L132.478,318.527 L132.549,318.352 L132.621,318.178 L132.696,318.005 L132.772,317.833 L132.851,317.662 L132.931,317.493 L133.013,317.325 L133.098,317.157 L133.184,316.992 L133.272,316.827 L133.363,316.663 L133.455,316.501 L133.549,316.34 L133.644,316.18 L133.741,316.023 L133.841,315.865 L133.943,315.709 L134.045,315.555 L134.15,315.403 L134.256,315.251 L134.365,315.1 L134.474,314.952 L134.586,314.804 L134.7,314.658 L134.815,314.513 L134.931,314.371 L135.05,314.229 L135.17,314.088 L135.291,313.95 L135.415,313.813 L135.539,313.677 L135.665,313.543 L135.794,313.41 L135.923,313.279 L136.055,313.149 L136.188,313.021 L136.322,312.895 L136.457,312.77 L136.594,312.647 L136.733,312.525 L136.873,312.405 L137.015,312.286 L137.158,312.17 L137.303,312.055 L137.448,311.942 L137.596,311.83 L137.745,311.72 L137.895,311.612 L138.047,311.505 L138.2,311.401 L138.354,311.298 L138.51,311.196 L138.667,311.097 L138.825,311 L138.985,310.904 L139.145,310.81 L139.308,310.718 L139.472,310.628 L139.636,310.54 L139.801,310.454 L139.969,310.369 L140.138,310.286 L140.306,310.206 L140.478,310.128 L140.65,310.051 L140.822,309.977 L140.996,309.904 L141.171,309.834 L141.348,309.765 L141.526,309.699 L141.703,309.635 L141.882,309.573 L142.064,309.513 L142.246,309.455 L142.427,309.4 L142.61,309.347 L142.795,309.295 L142.98,309.247 L143.166,309.2 L143.353,309.155 L143.541,309.113 L143.729,309.074 L143.919,309.036 L144.109,309.001 L144.299,308.968 L144.49,308.937 L144.682,308.909 L144.875,308.884 L145.068,308.86 L145.262,308.839 L145.457,308.821 L145.652,308.805 L145.847,308.791 L146.043,308.78 L146.238,308.771 L146.436,308.765 L146.633,308.761 L146.83,308.76 L147.027,308.761 Z M146.738,317.021 L146.645,317.023 L146.553,317.026 L146.462,317.03 L146.37,317.035 L146.279,317.041 L146.188,317.049 L146.098,317.057 L146.008,317.067 L145.918,317.078 L145.829,317.09 L145.74,317.103 L145.651,317.117 L145.562,317.132 L145.474,317.149 L145.387,317.166 L145.3,317.185 L145.213,317.204 L145.126,317.225 L145.04,317.246 L144.955,317.269 L144.87,317.292 L144.785,317.317 L144.7,317.343 L144.617,317.369 L144.533,317.397 L144.45,317.426 L144.368,317.455 L144.286,317.486 L144.204,317.518 L144.123,317.55 L144.042,317.584 L143.962,317.618 L143.883,317.654 L143.803,317.69 L143.725,317.727 L143.647,317.766 L143.569,317.805 L143.492,317.845 L143.416,317.886 L143.34,317.928 L143.265,317.97 L143.19,318.014 L143.116,318.058 L143.042,318.104 L142.969,318.15 L142.897,318.197 L142.825,318.245 L142.754,318.294 L142.683,318.343 L142.614,318.393 L142.544,318.445 L142.476,318.497 L142.408,318.549 L142.34,318.603 L142.274,318.657 L142.207,318.713 L142.142,318.769 L142.077,318.825 L142.013,318.883 L141.95,318.941 L141.888,319 L141.826,319.06 L141.765,319.12 L141.704,319.181 L141.644,319.243 L141.585,319.306 L141.527,319.369 L141.47,319.433 L141.413,319.498 L141.357,319.563 L141.302,319.629 L141.248,319.696 L141.194,319.763 L141.141,319.831 L141.089,319.9 L141.038,319.969 L140.988,320.039 L140.938,320.109 L140.889,320.181 L140.841,320.252 L140.794,320.325 L140.748,320.398 L140.703,320.471 L140.658,320.546 L140.615,320.62 L140.572,320.696 L140.53,320.771 L140.489,320.848 L140.449,320.925 L140.41,321.002 L140.372,321.08 L140.335,321.159 L140.298,321.238 L140.263,321.318 L140.228,321.398 L140.195,321.478 L140.162,321.559 L140.131,321.641 L140.1,321.723 L140.07,321.806 L140.042,321.889 L140.014,321.972 L139.987,322.056 L139.962,322.14 L139.937,322.225 L139.913,322.31 L139.891,322.396 L139.869,322.482 L139.849,322.568 L139.829,322.655 L139.811,322.742 L139.793,322.83 L139.777,322.918 L139.762,323.006 L139.748,323.095 L139.735,323.184 L139.723,323.274 L139.712,323.363 L139.702,323.453 L139.693,323.544 L139.686,323.635 L139.679,323.726 L139.674,323.817 L139.67,323.909 L139.667,324.001 L139.666,324.093 L139.665,324.186 L139.666,324.278 L139.667,324.37 L139.67,324.462 L139.674,324.554 L139.679,324.645 L139.686,324.737 L139.693,324.827 L139.702,324.918 L139.712,325.008 L139.723,325.098 L139.735,325.187 L139.748,325.276 L139.762,325.365 L139.777,325.453 L139.793,325.541 L139.811,325.629 L139.829,325.716 L139.849,325.803 L139.869,325.889 L139.891,325.975 L139.913,326.061 L139.937,326.146 L139.962,326.231 L139.987,326.315 L140.014,326.399 L140.042,326.483 L140.07,326.566 L140.1,326.648 L140.131,326.73 L140.162,326.812 L140.195,326.893 L140.228,326.974 L140.263,327.054 L140.298,327.133 L140.335,327.212 L140.372,327.291 L140.41,327.369 L140.449,327.446 L140.489,327.523 L140.53,327.6 L140.572,327.676 L140.615,327.751 L140.658,327.826 L140.703,327.9 L140.748,327.973 L140.794,328.046 L140.841,328.119 L140.889,328.191 L140.938,328.262 L140.988,328.332 L141.038,328.402 L141.089,328.472 L141.141,328.54 L141.194,328.608 L141.248,328.676 L141.302,328.742 L141.357,328.808 L141.413,328.874 L141.47,328.938 L141.527,329.002 L141.585,329.066 L141.644,329.128 L141.704,329.19 L141.765,329.251 L141.826,329.312 L141.888,329.371 L141.95,329.43 L142.013,329.489 L142.077,329.546 L142.142,329.603 L142.207,329.659 L142.274,329.714 L142.34,329.768 L142.408,329.822 L142.476,329.875 L142.544,329.927 L142.614,329.978 L142.683,330.028 L142.754,330.078 L142.825,330.126 L142.897,330.174 L142.969,330.221 L143.042,330.268 L143.116,330.313 L143.19,330.357 L143.265,330.401 L143.34,330.444 L143.416,330.485 L143.492,330.526 L143.569,330.566 L143.647,330.606 L143.725,330.644 L143.803,330.681 L143.883,330.717 L143.962,330.753 L144.042,330.787 L144.123,330.821 L144.204,330.853 L144.286,330.885 L144.368,330.916 L144.45,330.945 L144.533,330.974 L144.617,331.002 L144.7,331.028 L144.785,331.054 L144.87,331.079 L144.955,331.102 L145.04,331.125 L145.126,331.147 L145.213,331.167 L145.3,331.187 L145.387,331.205 L145.474,331.223 L145.562,331.239 L145.651,331.254 L145.74,331.268 L145.829,331.281 L145.918,331.293 L146.008,331.304 L146.098,331.314 L146.188,331.322 L146.279,331.33 L146.37,331.336 L146.462,331.341 L146.553,331.346 L146.645,331.348 L146.738,331.35 L146.83,331.351 L146.923,331.35 L147.015,331.348 L147.107,331.346 L147.199,331.341 L147.29,331.336 L147.381,331.33 L147.472,331.322 L147.562,331.314 L147.652,331.304 L147.742,331.293 L147.832,331.281 L147.921,331.268 L148.009,331.254 L148.098,331.239 L148.186,331.223 L148.273,331.205 L148.361,331.187 L148.447,331.167 L148.534,331.147 L148.62,331.125 L148.706,331.102 L148.791,331.079 L148.876,331.054 L148.96,331.028 L149.044,331.002 L149.127,330.974 L149.21,330.945 L149.293,330.916 L149.375,330.885 L149.456,330.853 L149.537,330.821 L149.618,330.787 L149.698,330.753 L149.778,330.717 L149.857,330.681 L149.935,330.644 L150.013,330.606 L150.091,330.566 L150.168,330.526 L150.244,330.485 L150.32,330.444 L150.396,330.401 L150.47,330.357 L150.544,330.313 L150.618,330.268 L150.691,330.221 L150.763,330.174 L150.835,330.126 L150.906,330.078 L150.977,330.028 L151.047,329.978 L151.116,329.927 L151.185,329.875 L151.253,329.822 L151.32,329.768 L151.387,329.714 L151.453,329.659 L151.518,329.603 L151.583,329.546 L151.647,329.489 L151.71,329.43 L151.773,329.371 L151.835,329.312 L151.896,329.251 L151.956,329.19 L152.016,329.128 L152.075,329.066 L152.133,329.002 L152.191,328.938 L152.247,328.874 L152.303,328.808 L152.358,328.742 L152.413,328.676 L152.466,328.608 L152.519,328.54 L152.571,328.472 L152.622,328.402 L152.673,328.332 L152.722,328.262 L152.771,328.191 L152.819,328.119 L152.866,328.046 L152.912,327.973 L152.957,327.9 L153.002,327.826 L153.045,327.751 L153.088,327.676 L153.13,327.6 L153.171,327.523 L153.211,327.446 L153.25,327.369 L153.288,327.291 L153.326,327.212 L153.362,327.133 L153.397,327.054 L153.432,326.974 L153.465,326.893 L153.498,326.812 L153.53,326.73 L153.56,326.648 L153.59,326.566 L153.619,326.483 L153.646,326.399 L153.673,326.315 L153.699,326.231 L153.723,326.146 L153.747,326.061 L153.77,325.975 L153.791,325.889 L153.812,325.803 L153.831,325.716 L153.85,325.629 L153.867,325.541 L153.883,325.453 L153.899,325.365 L153.913,325.276 L153.926,325.187 L153.938,325.098 L153.949,325.008 L153.958,324.918 L153.967,324.827 L153.974,324.737 L153.981,324.645 L153.986,324.554 L153.99,324.462 L153.993,324.37 L153.995,324.278 L153.995,324.186 L153.995,324.093 L153.993,324.001 L153.99,323.909 L153.986,323.817 L153.981,323.726 L153.974,323.635 L153.967,323.544 L153.958,323.453 L153.949,323.363 L153.938,323.274 L153.926,323.184 L153.913,323.095 L153.899,323.006 L153.883,322.918 L153.867,322.83 L153.85,322.742 L153.831,322.655 L153.812,322.568 L153.791,322.482 L153.77,322.396 L153.747,322.31 L153.723,322.225 L153.699,322.14 L153.673,322.056 L153.646,321.972 L153.619,321.889 L153.59,321.806 L153.56,321.723 L153.53,321.641 L153.498,321.559 L153.465,321.478 L153.432,321.398 L153.397,321.318 L153.362,321.238 L153.326,321.159 L153.288,321.08 L153.25,321.002 L153.211,320.925 L153.171,320.848 L153.13,320.771 L153.088,320.696 L153.045,320.62 L153.002,320.546 L152.957,320.471 L152.912,320.398 L152.866,320.325 L152.819,320.252 L152.771,320.181 L152.722,320.109 L152.673,320.039 L152.622,319.969 L152.571,319.9 L152.519,319.831 L152.466,319.763 L152.413,319.696 L152.358,319.629 L152.303,319.563 L152.247,319.498 L152.191,319.433 L152.133,319.369 L152.075,319.306 L152.016,319.243 L151.956,319.181 L151.896,319.12 L151.835,319.06 L151.773,319 L151.71,318.941 L151.647,318.883 L151.583,318.825 L151.518,318.769 L151.453,318.713 L151.387,318.657 L151.32,318.603 L151.253,318.549 L151.185,318.497 L151.116,318.445 L151.047,318.393 L150.977,318.343 L150.906,318.294 L150.835,318.245 L150.763,318.197 L150.691,318.15 L150.618,318.104 L150.544,318.058 L150.47,318.014 L150.396,317.97 L150.32,317.928 L150.244,317.886 L150.168,317.845 L150.091,317.805 L150.013,317.766 L149.935,317.727 L149.857,317.69 L149.778,317.654 L149.698,317.618 L149.618,317.584 L149.537,317.55 L149.456,317.518 L149.375,317.486 L149.293,317.455 L149.21,317.426 L149.127,317.397 L149.044,317.369 L148.96,317.343 L148.876,317.317 L148.791,317.292 L148.706,317.269 L148.62,317.246 L148.534,317.225 L148.447,317.204 L148.361,317.185 L148.273,317.166 L148.186,317.149 L148.098,317.132 L148.009,317.117 L147.921,317.103 L147.832,317.09 L147.742,317.078 L147.652,317.067 L147.562,317.057 L147.472,317.049 L147.381,317.041 L147.29,317.035 L147.199,317.03 L147.107,317.026 L147.015,317.023 L146.923,317.021 L146.83,317.02 L146.738,317.021 Z" id="Fill-22" fill="#2E3F53"></path>
                <path d="M121.637,329.77 L119.319,329.77 C116.953,329.771 114.7,328.756 113.131,326.984 C111.563,325.212 110.83,322.852 111.118,320.504 C115.735,281.839 148.758,251.5 188.598,251.5 C208.942,251.5 226.19,270.754 227.581,283.714 C227.615,284.07 227.831,284.384 228.153,284.542 C243.775,292.209 253.919,298.525 258.826,301.793 C261,303.342 262.29,305.845 262.29,308.514 C262.3,312.057 262.3,317.181 262.3,321.51 C262.3,323.701 261.43,325.803 259.88,327.352 C258.331,328.901 256.229,329.771 254.038,329.771 C251.378,329.77 248.128,329.769 244.364,329.769 C244.363,318.547 235.253,309.437 224.031,309.437 C212.811,309.437 203.701,318.544 203.698,329.764 C191.021,329.763 176.981,329.763 162.303,329.764 C162.3,318.544 152.554,320.504 141.334,320.504 C130.112,320.504 121.637,318.548 121.637,329.77 L121.637,329.77 Z" id="Fill-23" fill="#FAB024"></path>
                <g id="Group-27" transform="translate(111.000000, 251.000000)">
                    <mask id="mask-4" fill="white">
                        <use xlink:href="#path-3"></use>
                    </mask>
                    <g id="Clip-25"></g>
                    <path d="M44.682,7.852 C59.67,6.683 90.983,12.416 100,25.986 C107.799,37.723 118.404,45.131 131,48.288 C143.518,51.425 147.363,69.967 149.835,75.206 L206.867,48.288 L209.08,25.986 L143.41,-28.058 L78.951,-11.231 L44.682,7.852 Z" id="Fill-24" fill="#F7C25F" mask="url(#mask-4)"></path>
                    <path d="M40.187,8.233 C14.276,31.931 11.803,59.848 2,97 L-59.5,45.712 L-58.0794,-4.5 L40.187,8.233" id="Fill-26" fill="#C37F0E" mask="url(#mask-4)"></path>
                </g>
                <path d="M157.692,310.017 C157.77,310.016 157.848,310.015 157.926,310.015 C158.004,310.015 158.082,310.016 158.159,310.017 L158.161,310.017 L158.161,310.017 C164.177,310.143 169.021,315.065 169.021,321.11 C169.021,321.167 169.019,321.223 169.016,321.279 L169.021,321.279 L169.021,329.66 L124.639,329.66 L124.639,321.279 L124.645,321.279 C124.641,321.223 124.639,321.167 124.639,321.11 C124.639,314.986 129.611,310.015 135.735,310.015 C135.813,310.015 135.89,310.016 135.968,310.017 L157.692,310.017 Z" id="Fill-28" fill="#F7C25F"></path>
                <path d="M204.119,325.582 C204.119,323.271 202.243,321.394 199.931,321.394 L165.889,321.394 C163.577,321.394 161.7,323.271 161.7,325.582 C161.7,327.894 163.577,329.771 165.889,329.771 L199.931,329.771 C202.243,329.771 204.119,327.894 204.119,325.582 L204.119,325.582 Z" id="Fill-29" fill="#C4C4C4"></path>
                <path d="M128.27,325.582 C128.27,323.271 126.393,321.394 124.081,321.394 L111.107,321.394 C108.795,321.394 106.919,323.271 106.919,325.582 C106.919,327.894 108.795,329.771 111.107,329.771 L124.081,329.771 C126.393,329.771 128.27,327.894 128.27,325.582 L128.27,325.582 Z" id="Fill-30" fill="#C4C4C4"></path>
                <path d="M268.081,325.582 C268.081,323.271 266.205,321.394 263.893,321.394 L244.918,321.394 C242.607,321.394 240.73,323.271 240.73,325.582 C240.73,327.894 242.607,329.771 244.918,329.771 L263.893,329.771 C266.205,329.771 268.081,327.894 268.081,325.582 L268.081,325.582 Z" id="Fill-31" fill="#C4C4C4"></path>
                <path d="M268.081,312.039 C268.081,309.727 266.205,307.851 263.893,307.851 L251.979,307.851 C249.667,307.851 247.79,309.727 247.79,312.039 C247.79,314.351 249.667,316.227 251.979,316.227 L263.893,316.227 C266.205,316.227 268.081,314.351 268.081,312.039 L268.081,312.039 Z" id="Fill-32" fill="#FFEC00"></path>
                <path d="M121.11,312.039 C121.11,309.727 119.233,307.851 116.922,307.851 L111.107,307.851 C108.795,307.851 106.919,309.727 106.919,312.039 C106.919,314.351 108.795,316.227 111.107,316.227 L116.922,316.227 C119.233,316.227 121.11,314.351 121.11,312.039 L121.11,312.039 Z" id="Fill-33" fill="#F3543E"></path>
                <path d="M179.003,258.924 C179.578,258.837 180.162,259.005 180.603,259.384 C181.044,259.763 181.298,260.316 181.298,260.897 C181.302,265.883 181.302,277.619 181.302,282.321 C181.302,283.426 180.406,284.321 179.302,284.321 L156.52,284.321 C156.518,284.322 152.315,280.724 146.82,275.563 C146.392,275.16 146.162,274.59 146.192,274.003 C146.222,273.417 146.508,272.873 146.975,272.516 C156.191,265.583 167.117,260.801 179.003,258.924 L179.003,258.924 Z M187.804,260.107 C187.804,259.003 188.699,258.107 189.804,258.107 C192.107,258.146 195.76,258.225 197.219,258.364 C209.679,261.187 219.308,271.505 221.11,284.321 L189.804,284.321 C189.274,284.321 188.765,284.111 188.39,283.736 C188.015,283.361 187.804,282.852 187.804,282.321 L187.804,260.107 L187.804,260.107 Z" id="Fill-34" fill="#2D3F52"></path>
                <path d="M179.3,291.631 C179.831,291.631 180.34,291.842 180.715,292.217 C181.09,292.592 181.3,293.101 181.3,293.631 L181.3,298.941 C177.266,298.941 173.991,295.666 173.991,291.631 L179.3,291.631 L179.3,291.631 Z M194.691,291.631 C194.691,295.4 191.833,298.506 188.169,298.899 L188.169,293.631 C188.169,293.101 188.379,292.592 188.754,292.217 C189.129,291.842 189.638,291.631 190.169,291.631 L194.691,291.631 L194.691,291.631 Z" id="Fill-35" fill="#C4C4C4"></path>
                <path d="M225.655,276.901 C226.691,279.267 227.352,281.576 227.581,283.714 C227.615,284.07 227.831,284.384 228.153,284.542 C230.046,285.471 231.858,286.38 233.59,287.266" id="Stroke-36" stroke="#2E3F53" stroke-width="2" stroke-linecap="round" stroke-linejoin="round"></path>
                <path d="M238.345,289.745 C248.291,295.033 255.082,299.3 258.826,301.793 C259.686,302.406 260.408,303.168 260.966,304.031" id="Stroke-37" stroke="#2E3F53" stroke-width="2" stroke-linecap="round" stroke-linejoin="round"></path>
                <path d="M262.3,319.458 L262.3,321.394 L263.893,321.394 C266.205,321.394 268.081,323.271 268.081,325.582 C268.081,327.894 266.205,329.771 263.893,329.771 L252.302,329.771" id="Stroke-38" stroke="#2E3F53" stroke-width="2" stroke-linecap="round" stroke-linejoin="round"></path>
                <path d="M113.71,307.851 C114.395,305.513 116.08,300.977 116.08,300.977 L106.302,300.977" id="Stroke-39" stroke="#2E3F53" stroke-width="2" stroke-linecap="round" stroke-linejoin="round"></path>
                <path d="M100.802,288.275 L122.53,288.275 C122.53,288.275 125.746,283.455 127.542,281.19 C130.38,277.611 133.523,274.284 136.931,271.25" id="Stroke-40" stroke="#2E3F53" stroke-width="2" stroke-linecap="round" stroke-linejoin="round"></path>
                <path d="M199.929,253.465 C196.328,252.216 192.521,251.5 188.598,251.5 C171.286,251.5 155.26,257.229 142.294,266.88 L130.802,266.88" id="Stroke-41" stroke="#2E3F53" stroke-width="2" stroke-linecap="round" stroke-linejoin="round"></path>
                <path d="M204.78,255.518 C208.268,257.269 211.493,259.495 214.355,261.995" id="Stroke-42" stroke="#2E3F53" stroke-width="2" stroke-linecap="round" stroke-linejoin="round"></path>
                <path d="M218.612,266.202 C219.091,266.737 222.745,271.466 223.823,273.313" id="Stroke-43" stroke="#2E3F53" stroke-width="2" stroke-linecap="round" stroke-linejoin="round"></path>
                <path d="M244.918,321.394 C242.607,321.394 240.73,323.271 240.73,325.582 C240.73,327.894 242.607,329.771 244.918,329.771 L247.302,329.771" id="Stroke-44" stroke="#2E3F53" stroke-width="2" stroke-linecap="round" stroke-linejoin="round"></path>
                <path d="M161.7,325.582 C161.7,327.894 163.577,329.771 165.889,329.771 L190.533,329.771" id="Stroke-45" stroke="#2E3F53" stroke-width="2" stroke-linecap="round" stroke-linejoin="round"></path>
                <path d="M193.727,329.771 L199.931,329.771" id="Stroke-46" stroke="#2E3F53" stroke-width="2" stroke-linecap="round" stroke-linejoin="round"></path>
                <polyline id="Stroke-47" stroke="#2E3F53" stroke-width="2" stroke-linecap="round" stroke-linejoin="round" points="121.802 329.771 113.802 329.771 129.802 329.771"></polyline>
                <path d="M99.8018,321 L125.053,321" id="Stroke-48" stroke="#2E3F53" stroke-width="2" stroke-linecap="round" stroke-linejoin="round"></path>
                <path d="M157.802,329.771 L170.302,329.771" id="Stroke-49" stroke="#2E3F53" stroke-width="2" stroke-linecap="round" stroke-linejoin="round"></path>
                <path d="M119.302,295 L109.302,295" id="Stroke-50" stroke="#2E3F53" stroke-width="2" stroke-linecap="round" stroke-linejoin="round"></path>
            </g>
        </g>
    </g>
</svg>